SplineFontDB: 3.0
FontName: KlaudiaDemi
FullName: KlaudiaDemi
FamilyName: KlaudiaDemi
Weight: Demi
Copyright: wmk69 (wmk69@o2.pl)\nSIL Open Font License v.1.1
Version: 1.02
ItalicAngle: 0
UnderlinePosition: -81
UnderlineWidth: 122
Ascent: 1638
Descent: 410
LayerCount: 2
Layer: 0 1 "Warstwa t+AUIA-a"  1
Layer: 1 1 "Plan pierwszy"  0
XUID: [1021 783 23647091 13836104]
FSType: 0
OS2Version: 3
OS2_WeightWidthSlopeOnly: 0
OS2_UseTypoMetrics: 1
CreationTime: 1260698820
ModificationTime: 1305349826
PfmFamily: 33
TTFWeight: 600
TTFWidth: 5
LineGap: 0
VLineGap: 0
Panose: 2 13 7 3 2 4 4 6 2 4
OS2TypoAscent: 1998
OS2TypoAOffset: 0
OS2TypoDescent: -537
OS2TypoDOffset: 0
OS2TypoLinegap: 0
OS2WinAscent: 1998
OS2WinAOffset: 0
OS2WinDescent: 537
OS2WinDOffset: 0
HheadAscent: 1998
HheadAOffset: 0
HheadDescent: -537
HheadDOffset: 0
OS2SubXSize: 1434
OS2SubYSize: 1331
OS2SubXOff: 0
OS2SubYOff: 287
OS2SupXSize: 1434
OS2SupYSize: 1331
OS2SupXOff: 0
OS2SupYOff: 977
OS2StrikeYSize: 102
OS2StrikeYPos: 512
OS2Vendor: '    '
OS2CodePages: 20000093.00000000
OS2UnicodeRanges: 8000002f.4000204b.00000000.00000000
Lookup: 258 0 0 "'kern' Kerning poziomy w tablicy 0"  {"Podtablica 'kern' Kerning poziomy w tablicy 0"  } ['kern' ('DFLT' <'dflt' > 'grek' <'dflt' > 'latn' <'dflt' > ) ]
DEI: 91125
KernClass2: 20 16 "Podtablica 'kern' Kerning poziomy w tablicy 0" 
 79 A Agrave Aacute Acircumflex Atilde Adieresis Aring Amacron Abreve Aogonek Delta
 1 F
 43 K R Kcommaaccent Racute Rcommaaccent Rcaron
 40 L Lacute Lcommaaccent Lcaron Ldot Lslash
 34 T Tcommaaccent Tcaron Tbar uni021A
 1 V
 30 Y Yacute Ycircumflex Ydieresis
 108 a g h m n q u w y agrave ugrave aogonek hcircumflex ncommaaccent napostrophe eng uogonek wcircumflex uni01E5
 81 c e o p s ae ccedilla egrave ograve oslash thorn eogonek oe scedilla scommaaccent
 8 f florin
 27 k kcommaaccent kgreenlandic
 14 r rcommaaccent
 1 v
 1 x
 1 z

StartChar: .notdef
Encoding: 65536 -1 0
Width: 944
Flags: W
HStem: 0 168<318 626> 1343 168<318 626>
VStem: 150 168<168 1343> 626 168<168 1343>
LayerCount: 2
Fore
SplineSet
150 0 m 1,0,-1
 150 1511 l 1,1,-1
 794 1511 l 1,2,-1
 794 0 l 1,3,-1
 150 0 l 1,0,-1
318 168 m 1,4,-1
 626 168 l 1,5,-1
 626 1343 l 1,6,-1
 318 1343 l 1,7,-1
 318 168 l 1,4,-1
EndSplineSet
Validated: 1
EndChar

StartChar: exclam
Encoding: 33 33 4
Width: 792
GlyphClass: 2
Flags: W
HStem: -20 305<290.349 501.105> 1491 20G<271 521>
VStem: 245 302<25.8954 238.589> 271 250<400 1511>
LayerCount: 2
Fore
SplineSet
245 132 m 128,-1,1
 245 195 245 195 289 240 c 0,2,3
 332 285 332 285 396 285 c 0,4,5
 458 285 458 285 502 240 c 0,6,7
 544 198 544 198 547 133 c 1,8,9
 547 69 547 69 502.5 24.5 c 128,-1,10
 458 -20 458 -20 396 -20 c 0,11,12
 333 -20 333 -20 289 25 c 0,13,0
 245 69 245 69 245 132 c 128,-1,1
271 400 m 1,14,-1
 271 1511 l 1,15,-1
 521 1511 l 1,16,-1
 521 400 l 1,17,-1
 271 400 l 1,14,-1
EndSplineSet
Validated: 1
EndChar

StartChar: quotedbl
Encoding: 34 34 5
Width: 956
GlyphClass: 2
Flags: W
HStem: 944 567<200 400 556 756>
VStem: 200 200<944 1511> 556 200<944 1511>
LayerCount: 2
Fore
SplineSet
556 944 m 1,0,-1
 556 1511 l 1,1,-1
 756 1511 l 1,2,-1
 756 944 l 1,3,-1
 556 944 l 1,0,-1
200 944 m 1,4,-1
 200 1511 l 1,5,-1
 400 1511 l 1,6,-1
 400 944 l 1,7,-1
 200 944 l 1,4,-1
EndSplineSet
Validated: 1
EndChar

StartChar: numbersign
Encoding: 35 35 6
Width: 1454
GlyphClass: 2
Flags: W
HStem: 478 200<150 450 650 804 1004 1304> 832 200<150 450 650 804 1004 1304>
VStem: 450 200<178 478 678 832 1032 1332> 804 200<178 478 678 832 1032 1332>
LayerCount: 2
Fore
SplineSet
450 178 m 1,0,-1
 450 478 l 1,1,-1
 150 478 l 1,2,-1
 150 678 l 1,3,-1
 450 678 l 1,4,-1
 450 832 l 1,5,-1
 150 832 l 1,6,-1
 150 1032 l 1,7,-1
 450 1032 l 1,8,-1
 450 1332 l 1,9,-1
 650 1332 l 1,10,-1
 650 1032 l 1,11,-1
 804 1032 l 1,12,-1
 804 1332 l 1,13,-1
 1004 1332 l 1,14,-1
 1004 1032 l 1,15,-1
 1304 1032 l 1,16,-1
 1304 832 l 1,17,-1
 1004 832 l 1,18,-1
 1004 678 l 1,19,-1
 1304 678 l 1,20,-1
 1304 478 l 1,21,-1
 1004 478 l 1,22,-1
 1004 178 l 1,23,-1
 804 178 l 1,24,-1
 804 478 l 1,25,-1
 650 478 l 1,26,-1
 650 178 l 1,27,-1
 450 178 l 1,0,-1
650 832 m 1,28,-1
 650 678 l 1,29,-1
 804 678 l 1,30,-1
 804 832 l 1,31,-1
 650 832 l 1,28,-1
EndSplineSet
Validated: 1
EndChar

StartChar: dollar
Encoding: 36 36 7
Width: 1573
GlyphClass: 2
Flags: W
HStem: -27 165<486.866 668> 734 243<918 1122.02>
VStem: 312 238<1071 1259.99> 668 250<-190 -27 164 734 1039 1346 1531.04 1691> 1218 255<420.961 665.125>
LayerCount: 2
Fore
SplineSet
668 1346 m 1,0,1
 619 1310 619 1310 586 1260 c 0,2,3
 549 1204 549 1204 549 1159 c 0,4,5
 549 1155 549 1155 550 1152 c 1,6,-1
 550 1151 l 1,7,8
 562 1067 562 1067 654 1043 c 1,9,-1
 660 1041 l 2,10,11
 665 1040 665 1040 668 1039 c 1,12,-1
 668 1346 l 1,0,1
80 273 m 1,13,-1
 283 380 l 1,14,-1
 308 339 l 2,15,16
 359 254 359 254 455 199 c 0,17,18
 555 141 555 141 668 138 c 1,19,-1
 668 781 l 1,20,-1
 608 792 l 1,21,22
 476 818 476 818 401 891 c 0,23,24
 312 978 312 978 312 1074 c 0,25,26
 312 1196 312 1196 365 1273 c 0,27,28
 466 1420 466 1420 609 1481 c 0,29,30
 639 1494 639 1494 668 1504 c 1,31,-1
 668 1691 l 1,32,-1
 918 1691 l 1,33,-1
 918 1535 l 1,34,35
 1018 1529 1018 1529 1094 1495 c 0,36,37
 1168 1461 1168 1461 1222 1418 c 2,38,-1
 1272 1379 l 1,39,-1
 1091 1252 l 1,40,-1
 1061 1283 l 2,41,42
 1035 1310 1035 1310 1002 1331 c 0,43,44
 966 1355 966 1355 918 1366 c 1,45,-1
 918 977 l 1,46,47
 1076 950 1076 950 1182 920 c 1,48,49
 1329 880 1329 880 1396 805 c 0,50,51
 1473 720 1473 720 1473 613 c 2,52,-1
 1473 602 l 2,53,54
 1473 469 1473 469 1383 329 c 1,55,56
 1281 168 1281 168 1030 44 c 0,57,58
 977 18 977 18 918 1 c 1,59,-1
 918 -190 l 1,60,-1
 668 -190 l 1,61,-1
 668 -27 l 1,62,63
 494 -23 494 -23 380 29 c 0,64,65
 244 91 244 91 156 181 c 0,66,67
 136 202 136 202 114 229 c 2,68,-1
 80 273 l 1,13,-1
918 734 m 1,69,-1
 918 164 l 1,70,-1
 927 169 l 1,71,72
 1102 275 1102 275 1172 418 c 0,73,74
 1218 513 1218 513 1218 576 c 0,75,76
 1218 590 1218 590 1217 597 c 0,77,78
 1208 665 1208 665 1120 690 c 0,79,80
 1075 703 1075 703 918 734 c 1,69,-1
EndSplineSet
Validated: 1
EndChar

StartChar: percent
Encoding: 37 37 8
Width: 2018
GlyphClass: 2
Flags: W
HStem: 0 167<1346.25 1567.85> 478 173<1367.49 1588.75> 870 168<430.285 655.85> 1338 173<451.492 672.747>
VStem: 150 238<1064.82 1274.58> 450 264<0 264> 715 237<1097.69 1311.15> 1066 238<194.882 413.492> 1321 264<1247 1511> 1631 237<230.965 450.118>
DStem2: 450 0 714 0 0.499408 0.866367<131.844 1744.06>
LayerCount: 2
Fore
SplineSet
1585 1511 m 1,0,-1
 714 0 l 1,1,-1
 450 0 l 1,2,-1
 1321 1511 l 1,3,-1
 1585 1511 l 1,0,-1
1868 366 m 0,4,5
 1868 322 1868 322 1846 268 c 0,6,7
 1813 187 1813 187 1745 123 c 0,8,9
 1723 102 1723 102 1675 69 c 0,10,11
 1575 0 1575 0 1414 0 c 2,12,13
 1414 0 1414 0 1410 0 c 0,14,15
 1293 0 1293 0 1219 40 c 1,16,17
 1131 89 1131 89 1093 161 c 0,18,19
 1066 214 1066 214 1066 271 c 0,20,21
 1066 324 1066 324 1089 378 c 0,22,23
 1123 459 1123 459 1190 522 c 0,24,25
 1216 547 1216 547 1262 576 c 1,26,27
 1376 651 1376 651 1520 651 c 2,28,29
 1520 651 1520 651 1524 651 c 0,30,31
 1631 651 1631 651 1716 605 c 0,32,33
 1805 556 1805 556 1842 484 c 0,34,35
 1868 432 1868 432 1868 366 c 0,4,5
1348 415 m 0,36,37
 1304 367 1304 367 1304 286 c 2,38,39
 1304 286 1304 286 1304 279 c 0,40,41
 1304 222 1304 222 1345 194 c 0,42,43
 1385 167 1385 167 1439 167 c 0,44,45
 1446 167 1446 167 1460 169 c 0,46,47
 1546 180 1546 180 1585 228 c 0,48,49
 1631 284 1631 284 1631 362 c 2,50,-1
 1631 366 l 2,51,52
 1631 423 1631 423 1590 451 c 0,53,54
 1550 478 1550 478 1498 478 c 0,55,56
 1489 478 1489 478 1473 476 c 0,57,58
 1396 467 1396 467 1348 415 c 0,36,37
952 1230 m 0,59,60
 952 1187 952 1187 930 1134 c 0,61,62
 897 1054 897 1054 829 991 c 0,63,64
 807 971 807 971 759 938 c 0,65,66
 659 870 659 870 498 870 c 2,67,68
 498 870 498 870 494 870 c 0,69,70
 377 870 377 870 303 910 c 0,71,72
 215 957 215 957 177 1029 c 0,73,74
 150 1081 150 1081 150 1137 c 0,75,76
 150 1189 150 1189 173 1242 c 0,77,78
 207 1322 207 1322 274 1384 c 0,79,80
 300 1409 300 1409 346 1438 c 0,81,82
 460 1511 460 1511 604 1511 c 2,83,-1
 608 1511 l 1,84,85
 718 1510 718 1510 800 1466 c 1,86,87
 890 1419 890 1419 926 1346 c 0,88,89
 952 1294 952 1294 952 1230 c 0,59,60
432 1276 m 0,90,91
 388 1231 388 1231 388 1149 c 2,92,93
 388 1149 388 1149 388 1145 c 0,94,95
 388 1090 388 1090 429 1064 c 256,96,97
 470 1038 470 1038 525 1038 c 0,98,99
 533 1038 533 1038 548 1039 c 0,100,101
 625 1044 625 1044 669 1096 c 0,102,103
 715 1150 715 1150 715 1226 c 2,104,105
 715 1226 715 1226 715 1230 c 0,106,107
 715 1285 715 1285 674 1312 c 0,108,109
 634 1338 634 1338 580 1338 c 0,110,111
 573 1338 573 1338 559 1336 c 0,112,113
 481 1326 481 1326 432 1276 c 0,90,91
EndSplineSet
Validated: 1
EndChar

StartChar: ampersand
Encoding: 38 38 9
Width: 1758
GlyphClass: 2
Flags: W
HStem: -20 179<523.768 891.036> 0 21G<1356.43 1658> 1100 20G<1170.5 1229.5> 1358 173<681.677 915.815>
VStem: 150 249<287.61 657.391> 377 238<1060.94 1290.46> 1316 254<589.252 967>
DStem2: 894 1031 694 922 0.595377 -0.803447<0 608.233 879.734 1112.35>
LayerCount: 2
Fore
SplineSet
1658 0 m 1,0,-1
 1371 0 l 1,1,-1
 1234 188 l 1,2,3
 1144 115 1144 115 1028 57 c 0,4,5
 872 -20 872 -20 686 -20 c 2,6,-1
 672 -20 l 2,7,8
 559 -20 559 -20 454 19 c 0,9,10
 356 56 356 56 285 122 c 0,11,12
 216 186 216 186 185 267 c 0,13,14
 156 340 156 340 151 417 c 0,15,16
 150 433 150 433 150 469 c 0,17,18
 150 512 150 512 162 565 c 0,19,20
 192 691 192 691 290 802 c 1,21,22
 377 899 377 899 480 954 c 1,23,24
 430 993 430 993 404 1043 c 0,25,26
 377 1095 377 1095 377 1153 c 0,27,28
 377 1205 377 1205 400 1258 c 0,29,30
 435 1340 435 1340 501 1403 c 0,31,32
 529 1429 529 1429 572 1457 c 0,33,34
 686 1531 686 1531 831 1531 c 2,35,-1
 835 1531 l 1,36,37
 913 1530 913 1530 1026 1483 c 0,38,39
 1059 1469 1059 1469 1098 1431 c 2,40,-1
 1146 1385 l 1,41,-1
 947 1272 l 1,42,-1
 921 1307 l 2,43,44
 915 1315 915 1315 901 1327 c 1,45,46
 860 1358 860 1358 807 1358 c 0,47,48
 799 1358 799 1358 786 1356 c 0,49,50
 707 1345 707 1345 659 1292 c 0,51,52
 615 1243 615 1243 615 1154 c 2,53,-1
 615 1150 l 2,54,55
 615 1090 615 1090 656 1060 c 0,56,57
 689 1036 689 1036 781 1034 c 1,58,59
 862 1031 862 1031 869 1031 c 2,60,-1
 889 1031 l 1,61,-1
 894 1031 l 1,62,-1
 1253 540 l 1,63,64
 1286 592 1286 592 1304 686 c 0,65,66
 1316 747 1316 747 1316 806 c 2,67,-1
 1316 825 l 2,68,69
 1316 838 1316 838 1312 865 c 1,70,71
 1298 932 1298 932 1274 976 c 0,72,73
 1253 1013 1253 1013 1227.5 1038.5 c 128,-1,74
 1202 1064 1202 1064 1181 1080 c 0,75,76
 1166 1091 1166 1091 1150 1102 c 2,77,-1
 1128 1118 l 1,78,-1
 1156 1119 l 2,79,80
 1165 1120 1165 1120 1176 1120 c 0,81,82
 1183 1120 1183 1120 1200 1120 c 1,83,84
 1259 1116 1259 1116 1330 1097 c 1,85,86
 1406 1078 1406 1078 1462 1036 c 1,87,88
 1537 982 1537 982 1566 868 c 0,89,90
 1570 850 1570 850 1570 819 c 0,91,92
 1570 812 1570 812 1570 806 c 0,93,94
 1568 732 1568 732 1538 626 c 0,95,96
 1505 512 1505 512 1398 352 c 1,97,-1
 1658 0 l 1,0,-1
1118 352 m 1,98,-1
 694 922 l 1,99,100
 671 915 671 915 661 911 c 0,101,102
 539 853 539 853 466 743 c 0,103,104
 420 672 420 672 404 575 c 0,105,106
 399 546 399 546 399 502 c 0,107,108
 399 481 399 481 401 445 c 0,109,110
 406 353 406 353 435 301 c 0,111,112
 476 227 476 227 538 194 c 0,113,114
 603 159 603 159 703 159 c 0,115,116
 799 159 799 159 911 211 c 0,117,118
 1020 262 1020 262 1118 352 c 1,98,-1
EndSplineSet
Validated: 1
EndChar

StartChar: quotesingle
Encoding: 39 39 10
Width: 600
GlyphClass: 2
Flags: W
HStem: 944 567<200 400>
VStem: 200 200<944 1511>
LayerCount: 2
Fore
SplineSet
200 944 m 1,0,-1
 200 1511 l 1,1,-1
 400 1511 l 1,2,-1
 400 944 l 1,3,-1
 200 944 l 1,0,-1
EndSplineSet
Validated: 1
EndChar

StartChar: parenleft
Encoding: 40 40 11
Width: 935
GlyphClass: 2
Flags: W
VStem: 200 250<378.134 1159.66>
DStem2: 785 -289 541 -248 0.603108 -0.797659<-356.579 -128.462>
LayerCount: 2
Fore
SplineSet
785 -289 m 1,0,-1
 572 -289 l 1,1,-1
 541 -248 l 1,2,3
 445 -109 445 -109 397 -25 c 0,4,5
 318 112 318 112 268 286 c 1,6,7
 200 528 200 528 200 763 c 2,8,9
 200 763 200 763 200 770 c 0,10,11
 200 1023 200 1023 269 1255 c 1,12,13
 318 1416 318 1416 395 1552 c 0,14,15
 470 1684 470 1684 549 1791 c 1,16,-1
 571 1818 l 1,17,-1
 784 1818 l 1,18,-1
 756 1779 l 1,19,20
 685 1670 685 1670 634 1564 c 0,21,22
 541 1371 541 1371 495 1187 c 1,23,24
 450 1015 450 1015 450 767 c 0,25,26
 450 523 450 523 495 344 c 0,27,28
 551 122 551 122 629 -26 c 0,29,30
 690 -143 690 -143 758 -252 c 1,31,-1
 785 -289 l 1,0,-1
EndSplineSet
Validated: 1
EndChar

StartChar: parenright
Encoding: 41 41 12
Width: 935
GlyphClass: 2
Flags: W
VStem: 485 250<377.137 1159.77>
LayerCount: 2
Fore
SplineSet
150 -289 m 1,0,-1
 177 -252 l 1,1,2
 245 -143 245 -143 307 -26 c 1,3,4
 384 122 384 122 441 344 c 1,5,6
 485 523 485 523 485 767 c 0,7,8
 485 1015 485 1015 441 1187 c 0,9,10
 395 1370 395 1370 301 1564 c 0,11,12
 253 1665 253 1665 179 1779 c 1,13,-1
 151 1818 l 1,14,-1
 365 1818 l 1,15,-1
 387 1791 l 1,16,17
 463 1687 463 1687 541 1552 c 1,18,19
 619 1411 619 1411 666 1255 c 0,20,21
 735 1023 735 1023 735 770 c 0,22,23
 735 526 735 526 667 286 c 0,24,25
 615 105 615 105 538 -25 c 0,26,27
 488 -111 488 -111 395 -248 c 1,28,-1
 364 -289 l 1,29,-1
 150 -289 l 1,0,-1
EndSplineSet
Validated: 1
EndChar

StartChar: asterisk
Encoding: 42 42 13
Width: 1208
GlyphClass: 2
Flags: W
HStem: 1491 20G<504 704>
VStem: 504 200<598 892 1230 1511>
DStem2: 250 1371 150 1205 0.868574 -0.49556<0 285.897 633.327 925.666> 150 918 250 744 0.868574 0.49556<0.629934 292.969 640.399 926.296>
LayerCount: 2
Fore
SplineSet
504 598 m 1,0,-1
 504 892 l 1,1,-1
 250 744 l 1,2,-1
 150 918 l 1,3,-1
 404 1064 l 1,4,-1
 150 1205 l 1,5,-1
 250 1371 l 1,6,-1
 504 1230 l 1,7,-1
 504 1511 l 1,8,-1
 704 1511 l 1,9,-1
 704 1230 l 1,10,-1
 958 1371 l 1,11,-1
 1058 1205 l 1,12,-1
 804 1064 l 1,13,-1
 1058 918 l 1,14,-1
 958 744 l 1,15,-1
 704 892 l 1,16,-1
 704 598 l 1,17,-1
 504 598 l 1,0,-1
EndSplineSet
Validated: 1
EndChar

StartChar: plus
Encoding: 43 43 14
Width: 1233
GlyphClass: 2
Flags: W
HStem: 656 200<150 516 716 1083>
VStem: 516 200<290 656 856 1212>
LayerCount: 2
Fore
SplineSet
516 290 m 1,0,-1
 516 656 l 1,1,-1
 150 656 l 1,2,-1
 150 856 l 1,3,-1
 516 856 l 1,4,-1
 516 1212 l 1,5,-1
 716 1212 l 1,6,-1
 716 856 l 1,7,-1
 1083 856 l 1,8,-1
 1083 656 l 1,9,-1
 716 656 l 1,10,-1
 716 290 l 1,11,-1
 516 290 l 1,0,-1
EndSplineSet
Validated: 1
EndChar

StartChar: comma
Encoding: 44 44 15
Width: 670
GlyphClass: 2
Flags: W
VStem: 285 235<-115.293 116.895>
LayerCount: 2
Fore
SplineSet
352 373 m 1,0,-1
 384 338 l 2,1,2
 423 295 423 295 438 273 c 0,3,4
 520 158 520 158 520 31 c 0,5,6
 520 -112 520 -112 396 -235 c 1,7,8
 330 -294 330 -294 312 -307 c 1,9,-1
 276 -336 l 1,10,-1
 150 -208 l 1,11,-1
 185 -174 l 2,12,13
 212 -148 212 -148 234 -124 c 0,14,15
 285 -69 285 -69 285 5 c 2,16,-1
 285 8 l 2,17,18
 285 78 285 78 216 147 c 2,19,-1
 156 207 l 1,20,-1
 352 373 l 1,0,-1
EndSplineSet
Validated: 1
EndChar

StartChar: hyphen
Encoding: 45 45 16
Width: 1233
GlyphClass: 2
Flags: W
HStem: 656 200<150 1083>
LayerCount: 2
Fore
SplineSet
1083 656 m 1,0,-1
 150 656 l 1,1,-1
 150 856 l 1,2,-1
 1083 856 l 1,3,-1
 1083 656 l 1,0,-1
EndSplineSet
Validated: 1
EndChar

StartChar: period
Encoding: 46 46 17
Width: 602
GlyphClass: 2
Flags: W
HStem: -20 305<194.349 406.105>
VStem: 150 302<26.3796 238.62>
LayerCount: 2
Fore
SplineSet
150 132 m 0,0,1
 150 196 150 196 193 240 c 0,2,3
 236 285 236 285 301 285 c 0,4,5
 363 285 363 285 407 240 c 0,6,7
 449 198 449 198 452 133 c 1,8,9
 452 69 452 69 407.5 24.5 c 128,-1,10
 363 -20 363 -20 301 -20 c 0,11,12
 236 -20 236 -20 193 25 c 0,13,14
 150 69 150 69 150 132 c 0,0,1
EndSplineSet
Validated: 1
EndChar

StartChar: slash
Encoding: 47 47 18
Width: 1231
GlyphClass: 2
Flags: W
VStem: 0 226<-183 43> 1005 226<1461 1687>
DStem2: 0 -183 226 -183 0.473397 0.880849<106.988 2122.95>
LayerCount: 2
Fore
SplineSet
1231 1687 m 1,0,-1
 226 -183 l 1,1,-1
 0 -183 l 1,2,-1
 1005 1687 l 1,3,-1
 1231 1687 l 1,0,-1
EndSplineSet
Validated: 1
EndChar

StartChar: zero
Encoding: 48 48 19
Width: 1789
GlyphClass: 2
Flags: W
HStem: -20 173<606.553 1014.21> 1357 174<761.263 1184.89>
VStem: 100 251<418.757 930.579> 1436 253<583.699 1089.93>
LayerCount: 2
Fore
SplineSet
996 1531 m 1,0,1
 1165 1530 1165 1530 1288 1473 c 0,2,3
 1437 1404 1437 1404 1512 1320 c 1,4,5
 1601 1223 1601 1223 1638 1127 c 1,6,7
 1676 1032 1676 1032 1687 896 c 0,8,9
 1689 868 1689 868 1689 840 c 0,10,11
 1688 758 1688 758 1672 680 c 0,12,13
 1636 509 1636 509 1504 333 c 0,14,15
 1380 168 1380 168 1147 57 c 0,16,17
 986 -20 986 -20 813 -20 c 2,18,19
 813 -20 813 -20 792 -20 c 0,20,21
 627 -20 627 -20 502 38 c 0,22,23
 357 105 357 105 277 190 c 1,24,25
 186 300 186 300 151 387 c 0,26,27
 115 475 115 475 102 614 c 0,28,29
 100 639 100 639 100 672 c 0,30,31
 101 753 101 753 116 830 c 0,32,33
 153 1012 153 1012 286 1178 c 0,34,35
 442 1372 442 1372 643 1455 c 0,36,37
 826 1531 826 1531 992 1531 c 2,38,-1
 996 1531 l 1,0,1
981 1357 m 0,39,40
 852 1354 852 1354 751 1308 c 0,41,42
 572 1226 572 1226 455 1061 c 0,43,44
 395 977 395 977 360 806 c 0,45,46
 351 762 351 762 351 699 c 0,47,48
 351 661 351 661 355 612 c 0,49,50
 366 478 366 478 410 385 c 0,51,52
 462 276 462 276 576 213 c 0,53,54
 684 153 684 153 801 153 c 2,55,56
 818 153 l 0,57,58
 914 158 914 158 1026 202 c 0,59,60
 1214 279 1214 279 1330 450 c 0,61,62
 1404 559 1404 559 1425 703 c 0,63,64
 1436 777 1436 777 1436 819 c 0,65,66
 1436 857 1436 857 1432 899 c 0,67,68
 1419 1036 1419 1036 1376 1126 c 0,69,70
 1324 1233 1324 1233 1210 1299 c 0,71,72
 1111 1357 1111 1357 1002 1357 c 2,73,74
 981 1357 l 0,39,40
EndSplineSet
Validated: 1
EndChar

StartChar: one
Encoding: 49 49 20
Width: 755
GlyphClass: 2
Flags: W
HStem: 0 21G<255 505> 1311 200<5 255>
VStem: 255 250<0 1311>
LayerCount: 2
Fore
SplineSet
255 0 m 1,0,-1
 255 1311 l 1,1,-1
 5 1311 l 1,2,-1
 5 1511 l 1,3,-1
 505 1511 l 1,4,-1
 505 0 l 1,5,-1
 255 0 l 1,0,-1
EndSplineSet
Validated: 16385
EndChar

StartChar: two
Encoding: 50 50 21
Width: 1415
GlyphClass: 2
Flags: W
HStem: 0 200<376 1262> 1357 174<556.395 872.658>
VStem: 1009 256<857.782 1212.55>
LayerCount: 2
Fore
SplineSet
1262 0 m 1,0,-1
 174 0 l 1,1,-1
 159 20 l 1,2,3
 120 70 120 70 120 126 c 0,4,5
 120 211 120 211 204 298 c 0,6,7
 342 442 342 442 576 568 c 1,8,9
 788 681 788 681 898 774 c 0,10,11
 958 825 958 825 987 908 c 1,12,13
 1009 974 1009 974 1009 1036 c 2,14,-1
 1009 1042 l 2,15,16
 1009 1115 1009 1115 973 1197 c 0,17,18
 942 1266 942 1266 866 1317 c 1,19,20
 804 1357 804 1357 717 1357 c 2,21,-1
 709 1357 l 2,22,23
 640 1357 640 1357 579 1325 c 0,24,25
 456 1261 456 1261 385 1138 c 0,26,27
 366 1106 366 1106 355 1077 c 2,28,-1
 335 1024 l 1,29,-1
 133 1134 l 1,30,-1
 157 1178 l 2,31,32
 176 1212 176 1212 205 1251 c 0,33,34
 323 1408 323 1408 473 1473 c 0,35,36
 606 1531 606 1531 734 1531 c 2,37,-1
 738 1531 l 2,38,39
 864 1531 864 1531 957 1488 c 0,40,41
 1064 1439 1064 1439 1127 1374 c 0,42,43
 1189 1310 1189 1310 1225 1227 c 0,44,45
 1265 1135 1265 1135 1265 1030 c 0,46,47
 1265 920 1265 920 1228 846 c 0,48,49
 1161 711 1161 711 1045 630 c 0,50,51
 905 532 905 532 698 418 c 0,52,53
 449 281 449 281 376 200 c 1,54,-1
 1262 200 l 1,55,-1
 1262 0 l 1,0,-1
EndSplineSet
Validated: 1
EndChar

StartChar: three
Encoding: 51 51 22
Width: 1431
GlyphClass: 2
Flags: W
HStem: -20 166<464.73 796.281> 889 165<625.906 817.44> 1358 173<623.185 836.747>
VStem: 879 238<1116.45 1330.18> 1032 249<370.979 760.961>
LayerCount: 2
Fore
SplineSet
100 342 m 1,0,-1
 335 428 l 1,1,-1
 348 373 l 2,2,3
 357 333 357 333 373 298 c 0,4,5
 412 218 412 218 471 186 c 0,6,7
 545 146 545 146 624 146 c 2,8,-1
 634 146 l 2,9,10
 690 146 690 146 770 178 c 0,11,12
 890 226 890 226 964 331 c 0,13,14
 1010 398 1010 398 1027 488 c 0,15,16
 1032 514 1032 514 1032 555 c 0,17,18
 1032 575 1032 575 1030 610 c 0,19,20
 1026 684 1026 684 995 748 c 0,21,22
 965 809 965 809 889 853 c 0,23,24
 826 889 826 889 739 889 c 2,25,-1
 730 889 l 2,26,27
 708 889 708 889 683 885 c 2,28,-1
 625 876 l 1,29,-1
 625 1057 l 1,30,-1
 677 1054 l 1,31,-1
 689 1054 l 2,32,33
 706 1054 706 1054 711 1055 c 0,34,35
 791 1063 791 1063 833 1114 c 0,36,37
 879 1169 879 1169 879 1244 c 2,38,-1
 879 1248 l 2,39,40
 879 1305 879 1305 838 1331 c 1,41,42
 798 1358 798 1358 744 1358 c 0,43,44
 736 1358 736 1358 723 1356 c 0,45,46
 643 1345 643 1345 597 1288 c 0,47,48
 579 1265 579 1265 569 1240 c 2,49,-1
 548 1185 l 1,50,-1
 361 1298 l 1,51,-1
 392 1342 l 2,52,53
 407 1363 407 1363 438 1394 c 0,54,55
 467 1423 467 1423 509 1452 c 0,56,57
 624 1531 624 1531 768 1531 c 2,58,-1
 772 1531 l 1,59,60
 881 1530 881 1530 964 1485 c 0,61,62
 1052 1438 1052 1438 1090 1365 c 0,63,64
 1117 1312 1117 1312 1117 1255 c 0,65,66
 1117 1203 1117 1203 1094 1149 c 0,67,68
 1057 1059 1057 1059 993 1003 c 1,69,-1
 985 997 l 1,70,71
 1083 956 1083 956 1146 897 c 0,72,73
 1215 832 1215 832 1246 763 c 0,74,75
 1275 698 1275 698 1280 602 c 0,76,77
 1281 583 1281 583 1281 552 c 0,78,79
 1281 507 1281 507 1269 455 c 0,80,81
 1242 339 1242 339 1142 218 c 0,82,83
 1048 104 1048 104 875 30 c 0,84,85
 758 -20 758 -20 623 -20 c 2,86,-1
 609 -20 l 2,87,88
 476 -20 476 -20 391 20 c 0,89,90
 282 71 282 71 219 139 c 0,91,92
 168 193 168 193 130 271 c 0,93,94
 112 308 112 308 102 337 c 1,95,-1
 100 342 l 1,0,-1
EndSplineSet
Validated: 1
EndChar

StartChar: four
Encoding: 52 52 23
Width: 1402
GlyphClass: 2
Flags: W
HStem: 0 21G<902 1152> 268 200<347 902> 1491 20G<925 1152>
VStem: 902 250<0 268 468 1311>
LayerCount: 2
Fore
SplineSet
902 0 m 1,0,-1
 902 268 l 1,1,-1
 80 268 l 1,2,-1
 82 287 l 1,3,4
 110 500 110 500 176 664 c 0,5,6
 259 868 259 868 425 1071 c 1,7,8
 537 1206 537 1206 686 1329 c 0,9,10
 813 1434 813 1434 925 1504 c 1,11,-1
 937 1511 l 1,12,-1
 1152 1511 l 1,13,-1
 1152 0 l 1,14,-1
 902 0 l 1,0,-1
347 468 m 1,15,-1
 902 468 l 1,16,-1
 902 1311 l 1,17,18
 815 1234 815 1234 704 1110 c 0,19,20
 555 945 555 945 454 752 c 0,21,22
 377 606 377 606 347 468 c 1,15,-1
EndSplineSet
Validated: 1
EndChar

StartChar: five
Encoding: 53 53 24
Width: 1434
GlyphClass: 2
Flags: W
HStem: -20 166<475.196 794.984> 889 167<570.784 905.75> 1311 200<578 1147>
VStem: 1036 248<371.556 748.149>
LayerCount: 2
Fore
SplineSet
100 341 m 1,0,-1
 338 428 l 1,1,-1
 351 373 l 2,2,3
 360 336 360 336 377 298 c 0,4,5
 411 225 411 225 481 187 c 0,6,7
 555 146 555 146 627 146 c 2,8,-1
 637 146 l 2,9,10
 683 146 683 146 768 179 c 0,11,12
 897 229 897 229 968 331 c 0,13,14
 1012 395 1012 395 1030 488 c 0,15,16
 1036 518 1036 518 1036 556 c 0,17,18
 1036 586 1036 586 1034 608 c 0,19,20
 1027 679 1027 679 993 746 c 0,21,22
 957 815 957 815 893 853 c 1,23,24
 830 889 830 889 742 889 c 2,25,-1
 733 889 l 2,26,27
 662 889 662 889 602 861 c 0,28,29
 534 829 534 829 478 776 c 2,30,-1
 463 762 l 1,31,-1
 235 762 l 1,32,-1
 358 1511 l 1,33,-1
 1147 1511 l 1,34,-1
 1147 1311 l 1,35,-1
 578 1311 l 1,36,-1
 525 1012 l 1,37,38
 633 1056 633 1056 756 1056 c 2,39,-1
 762 1056 l 2,40,41
 887 1056 887 1056 980 1018 c 0,42,43
 1092 971 1092 971 1150 913 c 0,44,45
 1214 850 1214 850 1244 780 c 0,46,47
 1281 696 1281 696 1283 612 c 0,48,49
 1284 576 1284 576 1284 574 c 2,50,-1
 1284 567 l 2,51,52
 1284 514 1284 514 1272 462 c 0,53,54
 1243 340 1243 340 1145 221 c 1,55,56
 1048 105 1048 105 878 31 c 0,57,58
 760 -20 760 -20 626 -20 c 2,59,-1
 612 -20 l 2,60,61
 487 -20 487 -20 395 20 c 0,62,63
 289 65 289 65 225 130 c 1,64,65
 150 204 150 204 124 275 c 2,66,-1
 100 341 l 1,0,-1
EndSplineSet
Validated: 1
EndChar

StartChar: six
Encoding: 54 54 25
Width: 1543
GlyphClass: 2
Flags: W
HStem: -20 169<577.41 901.38> 878 178<681.259 1011.72> 1357 174<807.816 1145.55>
VStem: 150 296<361.512 649.875> 1146 247<379.361 737.423>
LayerCount: 2
Fore
SplineSet
1272 1504 m 1,0,-1
 1146 1346 l 1,1,-1
 1117 1351 l 2,2,3
 1078 1357 1078 1357 1035 1357 c 2,4,-1
 1014 1357 l 2,5,6
 910 1357 910 1357 804 1311 c 0,7,8
 623 1234 623 1234 509 1080 c 0,9,10
 465 1019 465 1019 433 898 c 1,11,12
 514 966 514 966 607 1003 c 0,13,14
 740 1056 740 1056 866 1056 c 2,15,-1
 871 1056 l 2,16,17
 997 1056 997 1056 1089 1018 c 0,18,19
 1196 973 1196 973 1258 914 c 0,20,21
 1327 848 1327 848 1358 777 c 0,22,23
 1387 711 1387 711 1392 614 c 0,24,25
 1393 594 1393 594 1393 575 c 2,26,-1
 1393 568 l 2,27,28
 1393 517 1393 517 1381 463 c 0,29,30
 1353 341 1353 341 1253 221 c 0,31,32
 1151 100 1151 100 990 31 c 0,33,34
 870 -20 870 -20 736 -20 c 2,35,-1
 721 -20 l 2,36,37
 599 -20 599 -20 508 17 c 0,38,39
 405 60 405 60 332 137 c 1,40,41
 224 247 224 247 180 405 c 0,42,43
 150 514 150 514 150 621 c 0,44,45
 150 738 150 738 169 831 c 0,46,47
 207 1013 207 1013 339 1180 c 0,48,49
 496 1377 496 1377 696 1458 c 0,50,51
 876 1531 876 1531 1049 1531 c 0,52,53
 1125 1531 1125 1531 1190 1519 c 2,54,-1
 1272 1504 l 1,0,-1
856 878 m 2,55,-1
 842 878 l 2,56,57
 781 878 781 878 702 844 c 0,58,59
 598 800 598 800 531 713 c 0,60,61
 471 636 471 636 454 549 c 0,62,63
 446 509 446 509 446 472 c 2,64,65
 446 472 446 472 446 463 c 0,66,67
 446 439 446 439 451 407 c 0,68,69
 460 346 460 346 486 297 c 0,70,71
 525 221 525 221 588 186 c 0,72,73
 655 149 655 149 730 149 c 2,74,-1
 737 149 l 2,75,76
 806 149 806 149 875 180 c 0,77,78
 998 235 998 235 1077 341 c 0,79,80
 1119 397 1119 397 1138 477 c 0,81,82
 1145 505 1145 505 1146 549 c 0,83,84
 1146 570 1146 570 1142 610 c 0,85,86
 1136 669 1136 669 1106 729 c 0,87,88
 1071 799 1071 799 1001 840 c 0,89,90
 936 878 936 878 856 878 c 2,55,-1
EndSplineSet
Validated: 1
EndChar

StartChar: seven
Encoding: 55 55 26
Width: 1213
GlyphClass: 2
Flags: W
HStem: 0 21G<106 489.5> 1311 200<50 839.675>
VStem: 106 281<0 281> 851 262<916.297 1308.38>
DStem2: 106 0 387 0 0.687404 0.726275<193.161 931.721>
LayerCount: 2
Fore
SplineSet
106 0 m 1,0,-1
 442 355 l 1,1,2
 557 480 557 480 649 606 c 0,3,4
 752 747 752 747 811 921 c 0,5,6
 851 1041 851 1041 851 1156 c 0,7,8
 851 1227 851 1227 830 1311 c 1,9,-1
 50 1311 l 1,10,-1
 50 1511 l 1,11,-1
 1036 1511 l 1,12,-1
 1039 1511 l 2,13,14
 1046 1511 1046 1511 1067 1451 c 0,15,16
 1113 1322 1113 1322 1113 1193 c 2,17,18
 1113 1193 1113 1193 1113 1183 c 0,19,20
 1113 1027 1113 1027 1047 851 c 0,21,22
 977 664 977 664 829 483 c 0,23,24
 712 341 712 341 592 215 c 2,25,26
 592 215 592 215 387 0 c 1,27,-1
 106 0 l 1,0,-1
EndSplineSet
Validated: 1
EndChar

StartChar: eight
Encoding: 56 56 27
Width: 1394
GlyphClass: 2
Flags: W
HStem: -20 166<482.704 813.117> 874 184<607.285 831.992> 1358 173<627.684 849.747>
VStem: 100 246<288.944 657.391> 327 238<1084.82 1295.58> 892 237<1119.64 1331.15> 1042 252<378.337 726.901>
LayerCount: 2
Fore
SplineSet
884 836 m 0,0,1
 812 874 812 874 744 874 c 2,2,-1
 732 874 l 2,3,4
 656 874 656 874 591 842 c 0,5,6
 484 788 484 788 427 718 c 0,7,8
 368 645 368 645 351 554 c 0,9,10
 346 528 346 528 346 481 c 0,11,12
 346 458 346 458 350 416 c 0,13,14
 356 355 356 355 389 291 c 0,15,16
 423 225 423 225 490 186 c 0,17,18
 560 146 560 146 637 146 c 2,19,-1
 647 146 l 2,20,21
 717 146 717 146 791 179 c 0,22,23
 902 228 902 228 977 341 c 0,24,25
 1025 415 1025 415 1037 490 c 0,26,27
 1042 521 1042 521 1042 561 c 0,28,29
 1042 592 1042 592 1037 620 c 0,30,31
 1023 702 1023 702 973 761 c 1,32,33
 933 810 933 810 884 836 c 0,0,1
757 1358 m 0,34,35
 742 1358 742 1358 735 1357 c 0,36,37
 658 1347 658 1347 609 1297 c 0,38,39
 565 1252 565 1252 565 1169 c 2,40,-1
 565 1165 l 2,41,42
 565 1110 565 1110 606 1084 c 256,43,44
 647 1058 647 1058 702 1058 c 0,45,46
 710 1058 710 1058 725 1059 c 0,47,48
 801 1064 801 1064 845 1116 c 0,49,50
 892 1173 892 1173 892 1246 c 2,51,-1
 892 1250 l 2,52,53
 892 1305 892 1305 851 1332 c 0,54,55
 811 1358 811 1358 757 1358 c 0,34,35
1294 552 m 0,56,57
 1294 507 1294 507 1282 455 c 0,58,59
 1255 339 1255 339 1155 218 c 0,60,61
 1061 104 1061 104 888 30 c 0,62,63
 771 -20 771 -20 636 -20 c 2,64,-1
 622 -20 l 2,65,66
 512 -20 512 -20 406 19 c 0,67,68
 310 54 310 54 235 122 c 0,69,70
 175 176 175 176 134 271 c 0,71,72
 106 335 106 335 101 417 c 0,73,74
 100 434 100 434 100 455 c 0,75,76
 100 512 100 512 112 565 c 0,77,78
 142 691 142 691 240 802 c 1,79,80
 327 899 327 899 430 954 c 1,81,82
 380 993 380 993 354 1043 c 0,83,84
 327 1095 327 1095 327 1153 c 0,85,86
 327 1205 327 1205 350 1258 c 0,87,88
 385 1340 385 1340 451 1403 c 0,89,90
 479 1429 479 1429 522 1457 c 0,91,92
 636 1531 636 1531 781 1531 c 2,93,-1
 785 1531 l 1,94,95
 893 1530 893 1530 977 1485 c 0,96,97
 1066 1438 1066 1438 1103 1364 c 0,98,99
 1129 1312 1129 1312 1129 1247 c 0,100,101
 1129 1202 1129 1202 1107 1149 c 0,102,103
 1071 1061 1071 1061 1006 1003 c 1,104,-1
 998 997 l 1,105,106
 1101 955 1101 955 1159 897 c 1,107,108
 1222 838 1222 838 1253 764 c 0,109,110
 1289 678 1289 678 1293 603 c 0,111,112
 1294 584 1294 584 1294 552 c 0,56,57
EndSplineSet
Validated: 1
EndChar

StartChar: nine
Encoding: 57 57 28
Width: 1543
GlyphClass: 2
Flags: W
HStem: -20 174<397.453 735.184> 455 178<531.276 861.741> 1362 169<641.62 966.602>
VStem: 150 247<773.577 1131.64> 1097 296<861.125 1152.69>
LayerCount: 2
Fore
SplineSet
271 7 m 1,0,-1
 397 165 l 1,1,-1
 426 160 l 2,2,3
 465 154 465 154 508 154 c 2,4,-1
 529 154 l 2,5,6
 633 154 633 154 739 200 c 0,7,8
 920 277 920 277 1034 431 c 0,9,10
 1078 492 1078 492 1110 613 c 1,11,12
 1029 545 1029 545 936 508 c 0,13,14
 803 455 803 455 677 455 c 2,15,-1
 672 455 l 2,16,17
 546 455 546 455 454 493 c 0,18,19
 347 538 347 538 285 597 c 0,20,21
 216 663 216 663 185 734 c 0,22,23
 156 800 156 800 151 897 c 0,24,25
 150 917 150 917 150 936 c 2,26,-1
 150 943 l 2,27,28
 150 994 150 994 162 1048 c 0,29,30
 190 1170 190 1170 290 1290 c 0,31,32
 392 1411 392 1411 553 1480 c 0,33,34
 673 1531 673 1531 807 1531 c 2,35,-1
 822 1531 l 2,36,37
 934 1531 934 1531 1035 1492 c 1,38,39
 1134 1451 1134 1451 1211 1377 c 0,40,41
 1315 1277 1315 1277 1363 1106 c 0,42,43
 1393 996 1393 996 1393 890 c 0,44,45
 1393 773 1393 773 1374 680 c 0,46,47
 1336 498 1336 498 1204 331 c 0,48,49
 1047 134 1047 134 847 53 c 0,50,51
 667 -20 667 -20 494 -20 c 0,52,53
 418 -20 418 -20 353 -8 c 2,54,-1
 271 7 l 1,0,-1
687 633 m 2,55,-1
 701 633 l 2,56,57
 762 633 762 633 841 667 c 0,58,59
 945 711 945 711 1012 798 c 0,60,61
 1072 875 1072 875 1089 962 c 0,62,63
 1097 1002 1097 1002 1097 1039 c 2,64,65
 1097 1039 1097 1039 1097 1048 c 0,66,67
 1097 1072 1097 1072 1092 1104 c 0,68,69
 1083 1165 1083 1165 1057 1214 c 0,70,71
 1018 1290 1018 1290 955 1325 c 0,72,73
 888 1362 888 1362 813 1362 c 2,74,-1
 806 1362 l 2,75,76
 737 1362 737 1362 668 1331 c 0,77,78
 545 1276 545 1276 466 1170 c 0,79,80
 424 1114 424 1114 405 1034 c 0,81,82
 398 1006 398 1006 397 962 c 0,83,84
 397 941 397 941 401 901 c 0,85,86
 407 842 407 842 437 782 c 0,87,88
 472 712 472 712 542 671 c 0,89,90
 607 633 607 633 687 633 c 2,55,-1
EndSplineSet
Validated: 1
EndChar

StartChar: colon
Encoding: 58 58 29
Width: 604
GlyphClass: 2
Flags: W
HStem: -20 305<196.349 408.991> 602 305<194.349 406.105>
VStem: 152 302<26.3796 238.62 649.301 859.231>
LayerCount: 2
Fore
SplineSet
150 755 m 0,0,1
 150 818 150 818 193 862 c 0,2,3
 236 907 236 907 301 907 c 0,4,5
 363 907 363 907 407 862 c 0,6,7
 449 820 449 820 452 756 c 1,8,9
 452 691 452 691 407.5 646.5 c 128,-1,10
 363 602 363 602 301 602 c 0,11,12
 236 602 236 602 193 647 c 0,13,14
 150 691 150 691 150 755 c 0,0,1
152 132 m 0,15,16
 152 196 152 196 195 240 c 0,17,18
 238 285 238 285 303 285 c 0,19,20
 365 285 365 285 409 240 c 0,21,22
 451 198 451 198 454 133 c 1,23,24
 454 70 454 70 409 25 c 256,25,26
 364 -20 364 -20 303 -20 c 0,27,28
 238 -20 238 -20 195 25 c 0,29,30
 152 69 152 69 152 132 c 0,15,16
EndSplineSet
Validated: 1
EndChar

StartChar: semicolon
Encoding: 59 59 30
Width: 670
GlyphClass: 2
Flags: W
HStem: 602 305<237.349 448.59>
VStem: 193 302<648.38 860.62> 285 235<-104.293 133.888>
LayerCount: 2
Fore
SplineSet
352 392 m 1,0,-1
 384 356 l 2,1,2
 420 316 420 316 438 290 c 0,3,4
 520 172 520 172 520 42 c 0,5,6
 520 -101 520 -101 396 -224 c 0,7,8
 327 -292 327 -292 312 -304 c 2,9,-1
 276 -333 l 1,10,-1
 150 -197 l 1,11,-1
 185 -163 l 2,12,13
 212 -136 212 -136 234 -113 c 0,14,15
 285 -58 285 -58 285 16 c 2,16,-1
 285 19 l 2,17,18
 285 93 285 93 216 165 c 1,19,-1
 156 226 l 1,20,-1
 352 392 l 1,0,-1
193 755 m 0,21,22
 193 818 193 818 236 862 c 0,23,24
 279 907 279 907 344 907 c 0,25,26
 405 907 405 907 450 862 c 0,27,28
 492 820 492 820 495 756 c 1,29,30
 495 691 495 691 450 646.5 c 128,-1,31
 405 602 405 602 344 602 c 0,32,33
 279 602 279 602 236 647 c 0,34,35
 193 691 193 691 193 755 c 0,21,22
EndSplineSet
Validated: 1
EndChar

StartChar: less
Encoding: 60 60 31
Width: 1256
GlyphClass: 2
Flags: W
HStem: 124 284<772 1056> 1147 239<817 1056>
DStem2: 150 859 414 780 0.864401 0.502803<188.48 927.955> 414 780 150 653 0.863571 -0.504227<0 741.985>
LayerCount: 2
Fore
SplineSet
150 653 m 1,0,-1
 150 859 l 1,1,-1
 1056 1386 l 1,2,-1
 1056 1147 l 1,3,-1
 414 780 l 1,4,-1
 1056 408 l 1,5,-1
 1056 124 l 1,6,-1
 150 653 l 1,0,-1
EndSplineSet
Validated: 1
EndChar

StartChar: equal
Encoding: 61 61 32
Width: 1233
GlyphClass: 2
Flags: W
HStem: 478 200<150 1083> 836 200<150 1083>
LayerCount: 2
Fore
SplineSet
1083 836 m 1,0,-1
 150 836 l 1,1,-1
 150 1036 l 1,2,-1
 1083 1036 l 1,3,-1
 1083 836 l 1,0,-1
1083 478 m 1,4,-1
 150 478 l 1,5,-1
 150 678 l 1,6,-1
 1083 678 l 1,7,-1
 1083 478 l 1,4,-1
EndSplineSet
Validated: 1
EndChar

StartChar: greater
Encoding: 62 62 33
Width: 1256
GlyphClass: 2
Flags: W
HStem: 126 239<200 439> 1104 283<200 483>
DStem2: 200 1387 200 1104 0.864401 -0.502803<142.293 884.281> 200 365 200 126 0.864401 0.502803<0 739.474>
LayerCount: 2
Fore
SplineSet
1106 860 m 1,0,-1
 1106 653 l 1,1,-1
 200 126 l 1,2,-1
 200 365 l 1,3,-1
 842 732 l 1,4,-1
 200 1104 l 1,5,-1
 200 1387 l 1,6,-1
 1106 860 l 1,0,-1
EndSplineSet
Validated: 1
EndChar

StartChar: question
Encoding: 63 63 34
Width: 1432
GlyphClass: 2
Flags: W
HStem: -20 305<504.38 717.105> 1357 174<573.216 888.102>
VStem: 461 302<26.3796 238.62> 1026 256<870.624 1213.51>
LayerCount: 2
Fore
SplineSet
461 132 m 0,0,1
 461 196 461 196 503 240 c 0,2,3
 547 285 547 285 612 285 c 0,4,5
 674 285 674 285 719 240 c 0,6,7
 760 198 760 198 763 133 c 1,8,9
 763 69 763 69 718.5 24.5 c 128,-1,10
 674 -20 674 -20 612 -20 c 0,11,12
 547 -20 547 -20 503 25 c 0,13,14
 461 69 461 69 461 132 c 0,0,1
150 1134 m 1,15,-1
 174 1178 l 2,16,17
 192 1212 192 1212 222 1251 c 0,18,19
 340 1408 340 1408 490 1473 c 0,20,21
 623 1531 623 1531 751 1531 c 2,22,-1
 755 1531 l 1,23,24
 884 1530 884 1530 975 1488 c 0,25,26
 1080 1440 1080 1440 1144 1373 c 0,27,28
 1206 1309 1206 1309 1242 1225 c 0,29,30
 1282 1133 1282 1133 1282 1044 c 0,31,32
 1282 924 1282 924 1246 841 c 0,33,34
 1196 724 1196 724 1083 647 c 0,35,36
 948 556 948 556 855 502 c 0,37,38
 794 467 794 467 734 426 c 0,39,40
 698 402 698 402 712 376 c 2,41,-1
 716 368 l 1,42,-1
 514 368 l 1,43,-1
 513 376 l 2,44,45
 511 388 511 388 510 402 c 1,46,-1
 510 404 l 2,47,48
 510 481 510 481 610 558 c 0,49,50
 802 707 802 707 843 736 c 0,51,52
 964 822 964 822 1003 907 c 0,53,54
 1026 956 1026 956 1026 1036 c 2,55,-1
 1026 1042 l 2,56,57
 1026 1115 1026 1115 989 1197 c 1,58,59
 960 1266 960 1266 882 1317 c 0,60,61
 821 1357 821 1357 734 1357 c 2,62,-1
 726 1357 l 2,63,64
 658 1357 658 1357 596 1325 c 0,65,66
 472 1261 472 1261 401 1138 c 0,67,68
 387 1113 387 1113 373 1077 c 2,69,-1
 352 1024 l 1,70,-1
 150 1134 l 1,15,-1
EndSplineSet
Validated: 1
EndChar

StartChar: at
Encoding: 64 64 35
Width: 1767
GlyphClass: 2
Flags: W
HStem: -410 173<660.049 1036.75> -20 174<840.206 1116.48> 0 21G<1316 1567> 692 88<1037.64 1226.24> 946 174<804.641 1180.66>
VStem: 150 252<24.8674 514.715> 544 236<216.648 475.188> 1316 251<0 103 344.812 805.891>
DStem2: 1193 -108 1338 -249 0.825645 0.564191<-263.201 34.4019>
LayerCount: 2
Fore
SplineSet
1567 0 m 1,0,-1
 1316 0 l 1,1,-1
 1316 103 l 1,2,3
 1234 50 1234 50 1163 26 c 0,4,5
 1032 -20 1032 -20 948 -20 c 2,6,-1
 944 -20 l 2,7,8
 840 -20 840 -20 749 27 c 1,9,10
 675 68 675 68 626 128 c 0,11,12
 544 228 544 228 544 334 c 2,13,-1
 544 337 l 2,14,15
 544 428 544 428 604 522 c 1,16,17
 665 620 665 620 755 682 c 0,18,19
 834 736 834 736 930 763 c 1,20,21
 995 780 995 780 1078 780 c 0,22,23
 1120 780 1120 780 1155 770 c 0,24,25
 1201 757 1201 757 1223 739 c 0,26,27
 1256 712 1256 712 1270 686 c 1,28,-1
 1251 690 l 1,29,30
 1235 692 1235 692 1218 692 c 0,31,32
 1159 691 1159 691 1093 671 c 1,33,34
 1059 662 1059 662 971 613 c 0,35,36
 922 586 922 586 869 530 c 0,37,38
 820 479 820 479 801 436 c 0,39,40
 780 388 780 388 780 335 c 0,41,42
 780 329 780 329 780 322 c 256,43,44
 780 265 780 265 827 212 c 1,45,46
 876 154 876 154 965 154 c 2,47,-1
 972 154 l 1,48,49
 1139 171 1139 171 1251 312 c 0,50,51
 1297 370 1297 370 1313 489 c 0,52,53
 1317 517 1317 517 1317 547 c 2,54,-1
 1317 561 l 2,55,56
 1317 617 1317 617 1310 677 c 0,57,58
 1303 738 1303 738 1281 787 c 0,59,60
 1245 865 1245 865 1177 904 c 0,61,62
 1102 946 1102 946 1024 946 c 2,63,-1
 1017 946 l 2,64,65
 915 946 915 946 800 900 c 0,66,67
 606 821 606 821 505 670 c 0,68,69
 441 574 441 574 410 410 c 0,70,71
 402 367 402 367 402 301 c 0,72,73
 402 261 402 261 405 211 c 0,74,75
 413 76 413 76 466 -15 c 0,76,77
 528 -122 528 -122 625 -175 c 0,78,79
 737 -237 737 -237 851 -237 c 2,80,-1
 868 -237 l 2,81,82
 947 -237 947 -237 1073 -178 c 0,83,84
 1137 -148 1137 -148 1193 -108 c 2,85,-1
 1221 -88 l 1,86,-1
 1398 -208 l 1,87,-1
 1338 -249 l 2,88,89
 1270 -296 1270 -296 1198 -332 c 0,90,91
 1043 -410 1043 -410 863 -410 c 2,92,-1
 842 -410 l 2,93,94
 685 -410 685 -410 553 -356 c 0,95,96
 428 -305 428 -305 334 -212 c 1,97,98
 259 -135 259 -135 208 -33 c 0,99,100
 163 56 163 56 152 202 c 0,101,102
 150 229 150 229 150 262 c 0,103,104
 150 341 150 341 166 418 c 0,105,106
 203 594 203 594 336 766 c 0,107,108
 485 958 485 958 693 1044 c 0,109,110
 876 1120 876 1120 1031 1120 c 2,111,-1
 1046 1120 l 2,112,113
 1172 1120 1172 1120 1265 1076 c 0,114,115
 1373 1026 1373 1026 1435 960 c 0,116,117
 1507 884 1507 884 1534 809 c 0,118,119
 1562 732 1562 732 1565 633 c 0,120,121
 1567 566 1567 566 1567 551 c 2,122,-1
 1567 0 l 1,0,-1
EndSplineSet
Validated: 1
EndChar

StartChar: A
Encoding: 65 65 36
Width: 1614
GlyphClass: 2
Flags: W
HStem: 0 21G<5 239.151 1329.7 1609> 671 200<627 936> 1491 20G<683.893 930.107>
VStem: 5 225<0 225> 1339 270<0 270>
DStem2: 5 0 230 0 0.414393 0.910098<93.2384 831.133 1050.45 1423.7> 921 1511 781 1211 0.414393 -0.910098<215.014 588.679 808.408 1548.37>
LayerCount: 2
Fore
SplineSet
5 0 m 1,0,-1
 693 1511 l 1,1,-1
 921 1511 l 1,2,-1
 1609 0 l 1,3,-1
 1339 0 l 1,4,-1
 1027 671 l 1,5,-1
 537 671 l 1,6,-1
 230 0 l 1,7,-1
 5 0 l 1,0,-1
781 1211 m 1,8,-1
 627 871 l 1,9,-1
 936 871 l 1,10,-1
 781 1211 l 1,8,-1
EndSplineSet
Validated: 16385
EndChar

StartChar: B
Encoding: 66 66 37
Width: 1502
GlyphClass: 2
Flags: W
HStem: -20 160<625.953 884.536> 0 21G<200 450> 847 25<562.042 596.781> 1359 172<586.212 821.021> 1491 20G<200 450>
VStem: 200 250<0 1223.29 1420 1511> 862 238<1113.71 1333.99> 1150 252<405.816 770.984>
LayerCount: 2
Fore
SplineSet
200 0 m 1,0,-1
 200 1511 l 1,1,-1
 450 1511 l 1,2,-1
 450 1420 l 1,3,4
 471 1438 471 1438 494 1454 c 0,5,6
 605 1531 605 1531 752 1531 c 2,7,-1
 756 1531 l 1,8,9
 859 1530 859 1530 947 1484 c 0,10,11
 1039 1436 1039 1436 1074 1368 c 0,12,13
 1100 1317 1100 1317 1100 1261 c 0,14,15
 1100 1212 1100 1212 1078 1159 c 0,16,17
 1055 1103 1055 1103 1016 1058 c 1,18,19
 1059 1053 1059 1053 1095 1042 c 0,20,21
 1205 1007 1205 1007 1285 924 c 0,22,23
 1355 851 1355 851 1379 771 c 0,24,25
 1402 691 1402 691 1402 623 c 2,26,-1
 1402 618 l 2,27,28
 1402 543 1402 543 1376 449 c 0,29,30
 1340 322 1340 322 1244 211 c 0,31,32
 1169 124 1169 124 1052 55 c 1,33,34
 928 -20 928 -20 760 -20 c 0,35,36
 758 -20 758 -20 756 -20 c 0,37,38
 676 -20 676 -20 609 37 c 0,39,40
 571 69 571 69 551 115 c 0,41,42
 539 143 539 143 535 165 c 1,43,44
 617 142 617 142 685 140 c 0,45,46
 714 139 714 139 727 141 c 0,47,48
 823 156 823 156 886 185 c 0,49,50
 1014 245 1014 245 1082 359 c 1,51,52
 1122 424 1122 424 1141 513 c 0,53,54
 1150 556 1150 556 1150 600 c 0,55,56
 1150 615 1150 615 1148 633 c 0,57,58
 1141 698 1141 698 1116 752 c 0,59,60
 1087 814 1087 814 1019 864 c 1,61,62
 954 909 954 909 875 909 c 2,63,-1
 869 909 l 2,64,65
 820 909 820 909 752 897 c 0,66,67
 686 886 686 886 612 866 c 1,68,69
 576 855 576 855 550 847 c 1,70,71
 566 862 566 862 579 872 c 0,72,73
 587 878 587 878 723 1000 c 0,74,75
 772 1044 772 1044 833 1128 c 0,76,77
 862 1169 862 1169 862 1237 c 2,78,-1
 862 1245 l 2,79,80
 862 1303 862 1303 822 1335 c 0,81,82
 791 1359 791 1359 720 1359 c 0,83,84
 716 1359 716 1359 704 1358 c 0,85,86
 634 1353 634 1353 567 1302 c 0,87,88
 529 1273 529 1273 492 1220 c 1,89,90
 450 1156 450 1156 450 1076 c 2,91,-1
 450 0 l 1,92,-1
 200 0 l 1,0,-1
EndSplineSet
Validated: 1
EndChar

StartChar: C
Encoding: 67 67 38
Width: 1627
GlyphClass: 2
Flags: W
HStem: -20 173<605.76 1005.87> 1357 174<761.704 1175.7>
VStem: 100 251<417.909 930.579>
DStem2: 1321 462 1491 337 0.59051 0.80703<-270.738 50.213>
LayerCount: 2
Fore
SplineSet
1521 378 m 5,0,-1
 1491 337 l 5,1,2
 1356 160 1356 160 1153 58 c 4,3,4
 997 -20 997 -20 813 -20 c 6,5,-1
 792 -20 l 6,6,7
 627 -20 627 -20 502 38 c 4,8,9
 353 107 353 107 277 190 c 28,10,11
 186 290 186 290 145 397 c 4,12,13
 109 491 109 491 102 614 c 4,14,15
 100 647 100 647 100 673 c 4,16,17
 101 755 101 755 116 830 c 4,18,19
 154 1014 154 1014 286 1178 c 4,20,21
 443 1372 443 1372 643 1455 c 4,22,23
 827 1531 827 1531 992 1531 c 6,24,-1
 996 1531 l 5,25,26
 1165 1530 1165 1530 1287 1472 c 4,27,28
 1416 1411 1416 1411 1503 1320 c 6,29,-1
 1547 1274 l 5,30,-1
 1347 1157 l 5,31,-1
 1321 1194 l 5,32,33
 1283 1250 1283 1250 1210 1294 c 4,34,35
 1107 1357 1107 1357 980 1357 c 6,36,-1
 961 1357 l 6,37,38
 859 1357 859 1357 751 1308 c 4,39,40
 572 1226 572 1226 455 1061 c 4,41,42
 395 977 395 977 360 806 c 4,43,44
 351 762 351 762 351 699 c 4,45,46
 351 660 351 660 355 612 c 4,47,48
 366 476 366 476 410 385 c 4,49,50
 463 275 463 275 569 215 c 4,51,52
 680 153 680 153 801 153 c 6,53,-1
 818 153 l 6,54,55
 920 153 920 153 1039 212 c 4,56,57
 1182 284 1182 284 1321 462 c 5,58,-1
 1350 503 l 5,59,-1
 1521 378 l 5,0,-1
EndSplineSet
Validated: 1
EndChar

StartChar: D
Encoding: 68 68 39
Width: 1692
GlyphClass: 2
Flags: W
HStem: -20 160<625.953 895.909> 0 21G<200 450> 1357 174<665.694 1084.92> 1491 20G<200 450>
VStem: 200 250<0 1154.58 1389 1511> 1339 253<591.438 1089.85>
LayerCount: 2
Fore
SplineSet
200 0 m 1,0,-1
 200 1511 l 1,1,-1
 450 1511 l 1,2,-1
 450 1389 l 1,3,4
 495 1426 495 1426 542 1452 c 0,5,6
 689 1531 689 1531 894 1531 c 2,7,-1
 899 1531 l 1,8,9
 1071 1530 1071 1530 1191 1473 c 0,10,11
 1330 1407 1330 1407 1415 1321 c 1,12,13
 1504 1222 1504 1222 1540 1125 c 0,14,15
 1582 1013 1582 1013 1590 895 c 0,16,17
 1592 862 1592 862 1592 839 c 0,18,19
 1591 755 1591 755 1575 678 c 0,20,21
 1538 505 1538 505 1407 331 c 0,22,23
 1280 162 1280 162 1050 53 c 0,24,25
 898 -19 898 -19 756 -20 c 0,26,27
 676 -20 676 -20 609 37 c 0,28,29
 571 69 571 69 551 115 c 0,30,31
 539 143 539 143 535 165 c 1,32,33
 617 142 617 142 685 140 c 0,34,35
 708 139 708 139 727 141 c 0,36,37
 788 147 788 147 828 159 c 0,38,39
 906 183 906 183 968 220 c 0,40,41
 1134 319 1134 319 1220 444 c 0,42,43
 1296 555 1296 555 1329 706 c 0,44,45
 1339 752 1339 752 1339 817 c 0,46,47
 1339 854 1339 854 1335 899 c 0,48,49
 1322 1044 1322 1044 1279 1126 c 0,50,51
 1222 1234 1222 1234 1113 1299 c 0,52,53
 1015 1357 1015 1357 880 1357 c 2,54,-1
 864 1357 l 2,55,56
 748 1357 748 1357 657 1309 c 0,57,58
 576 1266 576 1266 525 1200 c 0,59,60
 450 1101 450 1101 450 1020 c 2,61,-1
 450 0 l 1,62,-1
 200 0 l 1,0,-1
EndSplineSet
Validated: 1
EndChar

StartChar: E
Encoding: 69 69 40
Width: 1627
GlyphClass: 2
Flags: W
HStem: -20 173<592.422 1007.59> 671 200<373 1167> 1357 174<759.059 1175.7>
VStem: 100 251<417.723 671>
DStem2: 1321 462 1491 337 0.577465 0.816416<-256.347 46.0976>
LayerCount: 2
Fore
SplineSet
1521 377 m 5,0,-1
 1491 337 l 6,1,2
 1364 167 1364 167 1148 58 c 4,3,4
 993 -20 993 -20 813 -20 c 6,5,-1
 792 -20 l 6,6,7
 626 -20 626 -20 502 38 c 4,8,9
 355 107 355 107 277 189 c 4,10,11
 187 285 187 285 146 395 c 5,12,13
 110 486 110 486 102 616 c 4,14,15
 100 652 100 652 100 675 c 4,16,17
 101 758 101 758 116 832 c 4,18,19
 155 1018 155 1018 286 1181 c 4,20,21
 447 1380 447 1380 643 1459 c 4,22,23
 821 1531 821 1531 992 1531 c 6,24,-1
 996 1531 l 5,25,26
 1165 1530 1165 1530 1287 1472 c 4,27,28
 1416 1411 1416 1411 1503 1320 c 6,29,-1
 1547 1274 l 5,30,-1
 1347 1157 l 5,31,-1
 1321 1194 l 5,32,33
 1283 1250 1283 1250 1210 1294 c 4,34,35
 1107 1357 1107 1357 980 1357 c 6,36,-1
 961 1357 l 6,37,38
 857 1357 857 1357 751 1309 c 4,39,40
 573 1228 573 1228 455 1065 c 4,41,42
 404 994 404 994 373 871 c 5,43,-1
 1167 871 l 5,44,-1
 1167 671 l 5,45,-1
 351 671 l 5,46,47
 353 628 353 628 355 608 c 4,48,49
 367 471 367 471 410 383 c 4,50,51
 468 265 468 265 566 210 c 4,52,53
 670 153 670 153 801 153 c 6,54,-1
 818 153 l 6,55,56
 929 153 929 153 1052 218 c 4,57,58
 1196 294 1196 294 1321 462 c 5,59,-1
 1350 503 l 5,60,-1
 1521 377 l 5,0,-1
EndSplineSet
Validated: 1
EndChar

StartChar: F
Encoding: 70 70 41
Width: 1394
GlyphClass: 2
Flags: W
HStem: 0 21G<200 450> 671 200<450 1020> 1357 174<679.795 1007.39> 1491 20G<200 450>
VStem: 200 250<0 671 871 1140.38 1366 1511>
LayerCount: 2
Fore
SplineSet
200 0 m 1,0,-1
 200 1511 l 1,1,-1
 450 1511 l 1,2,-1
 450 1366 l 1,3,4
 528 1436 528 1436 613 1473 c 0,5,6
 745 1531 745 1531 874 1531 c 2,7,-1
 878 1531 l 1,8,9
 1007 1530 1007 1530 1097 1486 c 0,10,11
 1204 1434 1204 1434 1267 1365 c 0,12,13
 1295 1334 1295 1334 1314 1305 c 2,14,-1
 1344 1261 l 1,15,-1
 1134 1136 l 1,16,-1
 1112 1189 l 2,17,18
 1082 1260 1082 1260 1005 1314 c 0,19,20
 943 1357 943 1357 857 1357 c 2,21,-1
 849 1357 l 2,22,23
 764 1357 764 1357 686 1316 c 0,24,25
 586 1264 586 1264 532 1196 c 1,26,27
 450 1099 450 1099 450 944 c 2,28,-1
 450 871 l 1,29,-1
 1020 871 l 1,30,-1
 1020 671 l 1,31,-1
 450 671 l 1,32,-1
 450 0 l 1,33,-1
 200 0 l 1,0,-1
EndSplineSet
Validated: 1
EndChar

StartChar: G
Encoding: 71 71 42
Width: 1789
GlyphClass: 2
Flags: W
HStem: -20 173<599.143 1026.99> 671 200<994 1420> 1357 174<760.707 1178.28>
VStem: 100 251<418.069 929.58>
LayerCount: 2
Fore
SplineSet
1689 871 m 1,0,-1
 1688 822 l 2,1,2
 1687 749 1687 749 1672 684 c 0,3,4
 1631 494 1631 494 1504 334 c 0,5,6
 1359 152 1359 152 1160 56 c 0,7,8
 1003 -20 1003 -20 813 -20 c 2,9,-1
 792 -20 l 2,10,11
 610 -20 610 -20 494 38 c 0,12,13
 359 106 359 106 277 190 c 0,14,15
 190 280 190 280 147 399 c 0,16,17
 110 500 110 500 102 616 c 0,18,19
 100 649 100 649 100 675 c 0,20,21
 101 759 101 759 116 832 c 0,22,23
 156 1019 156 1019 286 1181 c 0,24,25
 446 1380 446 1380 643 1459 c 0,26,27
 821 1531 821 1531 992 1531 c 2,28,-1
 996 1531 l 1,29,30
 1170 1530 1170 1530 1288 1472 c 0,31,32
 1432 1401 1432 1401 1515 1311 c 1,33,-1
 1546 1274 l 1,34,-1
 1352 1157 l 1,35,-1
 1325 1193 l 2,36,37
 1285 1246 1285 1246 1210 1295 c 1,38,39
 1111 1357 1111 1357 980 1357 c 2,40,-1
 961 1357 l 2,41,42
 849 1357 849 1357 736 1302 c 0,43,44
 568 1221 568 1221 455 1061 c 0,45,46
 395 977 395 977 360 806 c 0,47,48
 351 763 351 763 351 700 c 0,49,50
 351 661 351 661 355 612 c 0,51,52
 366 471 366 471 410 385 c 0,53,54
 463 281 463 281 568 214 c 0,55,56
 664 153 664 153 801 153 c 2,57,-1
 818 153 l 2,58,59
 932 153 932 153 1044 204 c 0,60,61
 1228 288 1228 288 1331 448 c 0,62,63
 1394 546 1394 546 1420 671 c 1,64,-1
 994 671 l 1,65,-1
 994 871 l 1,66,-1
 1689 871 l 1,0,-1
EndSplineSet
Validated: 1
EndChar

StartChar: H
Encoding: 72 72 43
Width: 1622
GlyphClass: 2
Flags: W
HStem: 0 21G<200 450 1172 1422> 671 200<450 1172> 1491 20G<200 450 1172 1422>
VStem: 200 250<0 671 871 1511> 1172 250<0 671 871 1511>
LayerCount: 2
Fore
SplineSet
200 0 m 1,0,-1
 200 1511 l 1,1,-1
 450 1511 l 1,2,-1
 450 871 l 1,3,-1
 1172 871 l 1,4,-1
 1172 1511 l 1,5,-1
 1422 1511 l 1,6,-1
 1422 0 l 1,7,-1
 1172 0 l 1,8,-1
 1172 671 l 1,9,-1
 450 671 l 1,10,-1
 450 0 l 1,11,-1
 200 0 l 1,0,-1
EndSplineSet
Validated: 1
EndChar

StartChar: I
Encoding: 73 73 44
Width: 650
GlyphClass: 2
Flags: W
HStem: 0 21G<200 450> 1491 20G<200 450>
VStem: 200 250<0 1511>
LayerCount: 2
Fore
SplineSet
200 0 m 1,0,-1
 200 1511 l 1,1,-1
 450 1511 l 1,2,-1
 450 0 l 1,3,-1
 200 0 l 1,0,-1
EndSplineSet
Validated: 1
EndChar

StartChar: J
Encoding: 74 74 45
Width: 1282
GlyphClass: 2
Flags: W
HStem: -20 173<283.552 581.533> 1311 200<392 831>
VStem: 832 250<398.172 1311>
LayerCount: 2
Fore
SplineSet
20 144 m 1,0,-1
 187 287 l 1,1,-1
 220 251 l 2,2,3
 249 218 249 218 281 199 c 0,4,5
 358 153 358 153 427 153 c 2,6,-1
 436 153 l 2,7,8
 507 153 507 153 604.5 208.5 c 128,-1,9
 702 264 702 264 765 356 c 1,10,11
 823 437 823 437 829 530 c 0,12,13
 832 575 832 575 832 584 c 2,14,-1
 832 595 l 1,15,16
 831 1059 831 1059 831 1311 c 1,17,-1
 392 1311 l 1,18,-1
 392 1511 l 1,19,-1
 1081 1511 l 1,20,-1
 1082 671 l 2,21,22
 1082 568 1082 568 1072 507 c 0,23,24
 1052 387 1052 387 945 247 c 0,25,26
 848 119 848 119 679 38 c 0,27,28
 556 -20 556 -20 424 -20 c 2,29,-1
 411 -20 l 2,30,31
 286 -20 286 -20 192 25 c 0,32,33
 114 62 114 62 64 106 c 2,34,-1
 20 144 l 1,0,-1
EndSplineSet
Validated: 1
EndChar

StartChar: K
Encoding: 75 75 46
Width: 1546
GlyphClass: 2
Flags: W
HStem: 0 21G<200 450 1100.37 1541> 1491 20G<200 450 1025 1289.56>
VStem: 200 250<0 330.081 514 1511> 1090 244<914.633 1449.05> 1129 412<0 412>
DStem2: 871 442 618 357 0.834724 -0.550669<0 458.754>
LayerCount: 2
Fore
SplineSet
200 0 m 1,0,-1
 200 1511 l 1,1,-1
 450 1511 l 1,2,-1
 450 514 l 1,3,4
 612 539 612 539 688 572 c 0,5,6
 835 636 835 636 896 694 c 0,7,8
 972 766 972 766 1024 864 c 128,-1,9
 1076 962 1076 962 1086 1086 c 0,10,11
 1090 1134 1090 1134 1090 1164 c 0,12,13
 1089 1241 1089 1241 1079 1304 c 0,14,15
 1067 1381 1067 1381 1046 1446 c 2,16,-1
 1025 1511 l 1,17,-1
 1284 1511 l 1,18,-1
 1294 1475 l 1,19,20
 1319 1392 1319 1392 1328 1314 c 0,21,22
 1334 1263 1334 1263 1334 1210 c 0,23,24
 1333 1146 1333 1146 1326 1086 c 0,25,26
 1308 942 1308 942 1256 830 c 0,27,28
 1188 683 1188 683 1080 585 c 0,29,30
 992 505 992 505 871 442 c 1,31,-1
 1541 0 l 1,32,-1
 1129 0 l 1,33,-1
 618 357 l 1,34,35
 530 335 530 335 450 323 c 1,36,-1
 450 0 l 1,37,-1
 200 0 l 1,0,-1
EndSplineSet
Validated: 1
EndChar

StartChar: L
Encoding: 76 76 47
Width: 1098
GlyphClass: 2
Flags: W
HStem: 0 200<450 1078> 1491 20G<200 450>
VStem: 200 250<200 1511>
LayerCount: 2
Fore
SplineSet
200 0 m 1,0,-1
 200 1511 l 1,1,-1
 450 1511 l 1,2,-1
 450 200 l 1,3,-1
 1078 200 l 1,4,-1
 1078 0 l 1,5,-1
 200 0 l 1,0,-1
EndSplineSet
Validated: 1
EndChar

StartChar: M
Encoding: 77 77 48
Width: 2522
GlyphClass: 2
Flags: W
HStem: 0 21G<200 450 1136 1386 2072 2322> 1357 174<683.009 1020.93 1619.3 1957.39> 1491 20G<200 450>
VStem: 200 250<0 1134.78 1366 1511> 1136 250<0 1136.93> 2072 250<0 1246.79>
CounterMasks: 1 1c
LayerCount: 2
Fore
SplineSet
200 0 m 1,0,-1
 200 1511 l 1,1,-1
 450 1511 l 1,2,-1
 450 1366 l 1,3,4
 528 1436 528 1436 613 1473 c 0,5,6
 745 1531 745 1531 874 1531 c 2,7,-1
 878 1531 l 1,8,9
 995 1530 995 1530 1095 1495 c 1,10,11
 1196 1461 1196 1461 1257 1398 c 0,12,13
 1297 1357 1297 1357 1326 1307 c 1,14,15
 1447 1429 1447 1429 1549 1473 c 0,16,17
 1682 1531 1682 1531 1810 1531 c 2,18,-1
 1814 1531 l 1,19,20
 1927 1530 1927 1530 2031 1496 c 0,21,22
 2131 1463 2131 1463 2193 1405 c 0,23,24
 2260 1342 2260 1342 2294 1251 c 0,25,26
 2320 1184 2320 1184 2322 1094 c 1,27,-1
 2322 0 l 1,28,-1
 2072 0 l 1,29,-1
 2072 1086 l 1,30,31
 2071 1171 2071 1171 2043 1222 c 0,32,33
 2010 1283 2010 1283 1950 1317 c 0,34,35
 1878 1357 1878 1357 1789 1357 c 2,36,-1
 1785 1357 l 1,37,38
 1698 1356 1698 1356 1622 1315 c 0,39,40
 1529 1265 1529 1265 1467 1191 c 0,41,42
 1386 1096 1386 1096 1386 950 c 2,43,-1
 1386 0 l 1,44,-1
 1136 0 l 1,45,-1
 1136 1086 l 1,46,47
 1135 1171 1135 1171 1107 1222 c 0,48,49
 1074 1283 1074 1283 1014 1317 c 0,50,51
 942 1357 942 1357 853 1357 c 2,52,-1
 849 1357 l 1,53,54
 762 1356 762 1356 686 1315 c 0,55,56
 590 1263 590 1263 532 1192 c 0,57,58
 450 1092 450 1092 450 934 c 2,59,-1
 450 0 l 1,60,-1
 200 0 l 1,0,-1
EndSplineSet
Validated: 1
EndChar

StartChar: N
Encoding: 78 78 49
Width: 1621
GlyphClass: 2
Flags: W
HStem: 0 21G<200 450 1171 1421> 1357 174<703.362 1060.34> 1491 20G<200 450>
VStem: 200 250<0 1135.17 1365 1511> 1171 250<0 1249.27>
LayerCount: 2
Fore
SplineSet
200 0 m 1,0,-1
 200 1511 l 1,1,-1
 450 1511 l 1,2,-1
 450 1365 l 1,3,4
 526 1427 526 1427 632 1473 c 0,5,6
 765 1531 765 1531 908 1531 c 2,7,-1
 913 1531 l 1,8,9
 1025 1530 1025 1530 1130 1496 c 0,10,11
 1225 1465 1225 1465 1291 1406 c 0,12,13
 1357 1346 1357 1346 1393 1252 c 0,14,15
 1420 1183 1420 1183 1421 1094 c 1,16,-1
 1421 0 l 1,17,-1
 1171 0 l 1,18,-1
 1171 1086 l 1,19,20
 1169 1172 1169 1172 1142 1223 c 0,21,22
 1110 1286 1110 1286 1045 1322 c 0,23,24
 982 1357 982 1357 896 1357 c 2,25,26
 896 1357 896 1357 884 1357 c 0,27,28
 803 1356 803 1356 701 1312 c 1,29,30
 593 1267 593 1267 532 1192 c 0,31,32
 450 1093 450 1093 450 934 c 2,33,-1
 450 0 l 1,34,-1
 200 0 l 1,0,-1
EndSplineSet
Validated: 1
EndChar

StartChar: O
Encoding: 79 79 50
Width: 1789
GlyphClass: 2
Flags: W
HStem: -20 173<606.553 1019.39> 1357 174<761.263 1184.89>
VStem: 100 251<418.757 930.579> 1436 253<584.191 1089.93>
LayerCount: 2
Fore
SplineSet
996 1531 m 1,0,1
 1165 1530 1165 1530 1288 1473 c 0,2,3
 1437 1404 1437 1404 1512 1320 c 1,4,5
 1601 1223 1601 1223 1638 1127 c 1,6,7
 1676 1032 1676 1032 1687 896 c 0,8,9
 1689 868 1689 868 1689 840 c 0,10,11
 1688 758 1688 758 1672 680 c 0,12,13
 1636 509 1636 509 1504 333 c 0,14,15
 1380 168 1380 168 1147 57 c 0,16,17
 986 -20 986 -20 813 -20 c 2,18,19
 813 -20 813 -20 792 -20 c 0,20,21
 627 -20 627 -20 502 38 c 0,22,23
 357 105 357 105 277 190 c 1,24,25
 186 300 186 300 151 387 c 0,26,27
 115 475 115 475 102 614 c 0,28,29
 100 639 100 639 100 672 c 0,30,31
 101 753 101 753 116 830 c 0,32,33
 153 1012 153 1012 286 1178 c 0,34,35
 442 1372 442 1372 643 1455 c 0,36,37
 826 1531 826 1531 992 1531 c 2,38,-1
 996 1531 l 1,0,1
981 1357 m 0,39,40
 852 1354 852 1354 751 1308 c 0,41,42
 572 1226 572 1226 455 1061 c 0,43,44
 395 977 395 977 360 806 c 0,45,46
 351 762 351 762 351 699 c 0,47,48
 351 661 351 661 355 612 c 0,49,50
 366 478 366 478 410 385 c 0,51,52
 462 276 462 276 576 213 c 0,53,54
 684 153 684 153 801 153 c 2,55,56
 818 153 l 0,57,58
 920 156 920 156 1027 200 c 0,59,60
 1216 280 1216 280 1330 450 c 0,61,62
 1404 560 1404 560 1425 703 c 0,63,64
 1436 777 1436 777 1436 819 c 0,65,66
 1436 857 1436 857 1432 899 c 0,67,68
 1419 1036 1419 1036 1376 1126 c 0,69,70
 1324 1233 1324 1233 1210 1299 c 0,71,72
 1111 1357 1111 1357 1002 1357 c 2,73,74
 981 1357 l 0,39,40
EndSplineSet
Validated: 1
EndChar

StartChar: P
Encoding: 80 80 51
Width: 1500
GlyphClass: 2
Flags: W
HStem: 0 21G<200 450> 313 152<615.186 884.349> 1357 174<682.913 1007.43> 1491 20G<200 450>
VStem: 200 250<0 1132.5 1366 1511> 1151 249<752.021 1201.34>
LayerCount: 2
Fore
SplineSet
200 0 m 1,0,-1
 200 1511 l 1,1,-1
 450 1511 l 1,2,-1
 450 1366 l 1,3,4
 528 1436 528 1436 613 1473 c 0,5,6
 745 1531 745 1531 874 1531 c 2,7,-1
 878 1531 l 1,8,9
 1007 1530 1007 1530 1097 1487 c 0,10,11
 1204 1435 1204 1435 1267 1367 c 0,12,13
 1333 1295 1333 1295 1365 1212 c 0,14,15
 1394 1137 1394 1137 1399 1028 c 0,16,17
 1400 1006 1400 1006 1400 972 c 0,18,19
 1400 918 1400 918 1388 858 c 0,20,21
 1361 722 1361 722 1262 585 c 1,22,23
 1169 454 1169 454 1050 391 c 1,24,25
 905 313 905 313 766 313 c 0,26,27
 761 313 761 313 756 313 c 0,28,29
 672 313 672 313 609 362 c 0,30,31
 573 391 573 391 551 440 c 0,32,33
 539 468 539 468 535 490 c 1,34,35
 611 469 611 469 685 465 c 0,36,37
 707 464 707 464 727 466 c 0,38,39
 818 474 818 474 886 510 c 1,40,41
 1023 585 1023 585 1082 684 c 0,42,43
 1128 760 1128 760 1145 874 c 0,44,45
 1151 911 1151 911 1151 956 c 0,46,47
 1151 983 1151 983 1149 1020 c 0,48,49
 1144 1112 1144 1112 1113 1188 c 0,50,51
 1083 1260 1083 1260 1005 1314 c 0,52,53
 943 1357 943 1357 857 1357 c 2,54,-1
 849 1357 l 2,55,56
 764 1357 764 1357 686 1314 c 0,57,58
 586 1260 586 1260 532 1190 c 1,59,60
 450 1090 450 1090 450 928 c 2,61,-1
 450 0 l 1,62,-1
 200 0 l 1,0,-1
EndSplineSet
Validated: 1
EndChar

StartChar: Q
Encoding: 81 81 52
Width: 1808
GlyphClass: 2
Flags: W
HStem: -20 173<606.553 1005.3> 0 21G<1383.48 1808> 1357 174<761.263 1182.4>
VStem: 100 251<418.224 929.614> 1436 253<582.973 1087.71>
DStem2: 953 560 1073 231 0.836538 -0.547908<0 280.646 563.631 690.8>
LayerCount: 2
Fore
SplineSet
564 560 m 1,0,-1
 953 560 l 1,1,-1
 1255 371 l 1,2,3
 1298 404 1298 404 1330 450 c 0,4,5
 1401 551 1401 551 1425 703 c 0,6,7
 1436 779 1436 779 1436 819 c 0,8,9
 1436 857 1436 857 1432 899 c 0,10,11
 1419 1036 1419 1036 1376 1126 c 0,12,13
 1324 1233 1324 1233 1210 1299 c 0,14,15
 1111 1357 1111 1357 1002 1357 c 2,16,-1
 981 1357 l 1,17,18
 851 1353 851 1353 751 1308 c 0,19,20
 574 1227 574 1227 455 1061 c 0,21,22
 393 975 393 975 360 806 c 0,23,24
 351 762 351 762 351 699 c 0,25,26
 351 660 351 660 355 612 c 0,27,28
 366 478 366 478 410 385 c 0,29,30
 462 276 462 276 576 213 c 0,31,32
 684 153 684 153 801 153 c 2,33,-1
 818 153 l 2,34,35
 908 153 908 153 1024 204 c 0,36,37
 1033 208 1033 208 1073 231 c 1,38,-1
 564 560 l 1,0,-1
1689 818 m 0,39,40
 1689 759 1689 759 1672 678 c 0,41,42
 1634 497 1634 497 1504 332 c 0,43,44
 1482 304 1482 304 1427 255 c 1,45,-1
 1808 0 l 1,46,-1
 1412 0 l 1,47,-1
 1248 115 l 1,48,49
 1198 83 1198 83 1147 58 c 0,50,51
 989 -20 989 -20 813 -20 c 2,52,-1
 792 -20 l 2,53,54
 627 -20 627 -20 502 38 c 0,55,56
 357 105 357 105 277 190 c 1,57,58
 191 285 191 285 148 389 c 0,59,60
 111 479 111 479 102 614 c 0,61,62
 100 646 100 646 100 672 c 0,63,64
 101 754 101 754 116 830 c 0,65,66
 153 1012 153 1012 286 1178 c 0,67,68
 442 1372 442 1372 643 1455 c 0,69,70
 826 1531 826 1531 992 1531 c 2,71,-1
 996 1531 l 1,72,73
 1169 1530 1169 1530 1288 1473 c 0,74,75
 1426 1407 1426 1407 1504 1325 c 256,76,77
 1582 1243 1582 1243 1635 1126 c 0,78,79
 1680 1027 1680 1027 1687 895 c 0,80,81
 1689 855 1689 855 1689 818 c 0,39,40
EndSplineSet
Validated: 1
EndChar

StartChar: R
Encoding: 82 82 53
Width: 1591
GlyphClass: 2
Flags: W
HStem: 0 21G<200 450 1104.05 1541> 1357 174<682.913 1005.94> 1491 20G<200 450>
VStem: 200 250<0 1134.45 1366 1511> 1151 249<750.169 1201.34>
DStem2: 1010 372 1131 0 0.803001 -0.595977<0 318.867>
LayerCount: 2
Fore
SplineSet
200 0 m 1,0,-1
 200 1511 l 1,1,-1
 450 1511 l 1,2,-1
 450 1366 l 1,3,4
 528 1436 528 1436 613 1473 c 0,5,6
 745 1531 745 1531 874 1531 c 2,7,-1
 878 1531 l 2,8,9
 1004 1531 1004 1531 1097 1487 c 1,10,11
 1204 1435 1204 1435 1267 1367 c 0,12,13
 1333 1295 1333 1295 1365 1212 c 0,14,15
 1394 1137 1394 1137 1399 1028 c 0,16,17
 1400 1006 1400 1006 1400 972 c 0,18,19
 1400 918 1400 918 1388 858 c 0,20,21
 1360 719 1360 719 1262 585 c 0,22,23
 1167 454 1167 454 1010 372 c 1,24,-1
 1541 0 l 1,25,-1
 1131 0 l 1,26,-1
 491 475 l 1,27,28
 524 466 524 466 563 462 c 0,29,30
 593 459 593 459 639 459 c 2,31,-1
 662 459 l 2,32,33
 689 459 689 459 724 462 c 0,34,35
 806 469 806 469 882 503 c 0,36,37
 1009 561 1009 561 1082 684 c 0,38,39
 1128 760 1128 760 1145 874 c 0,40,41
 1151 911 1151 911 1151 956 c 0,42,43
 1151 983 1151 983 1149 1020 c 0,44,45
 1144 1112 1144 1112 1113 1188 c 0,46,47
 1083 1260 1083 1260 1005 1314 c 0,48,49
 943 1357 943 1357 857 1357 c 2,50,-1
 849 1357 l 2,51,52
 764 1357 764 1357 686 1314 c 0,53,54
 586 1260 586 1260 532 1190 c 1,55,56
 450 1095 450 1095 450 928 c 2,57,-1
 450 0 l 1,58,-1
 200 0 l 1,0,-1
EndSplineSet
Validated: 1
EndChar

StartChar: S
Encoding: 83 83 54
Width: 1573
GlyphClass: 2
Flags: W
HStem: -20 173<495.238 892.16> 1357 174<687.846 1003.3>
VStem: 312 237<1045.73 1230.01> 1218 255<449.192 673.493>
DStem2: 884 976 848 751 0.980794 -0.195044<-335.991 387.088>
LayerCount: 2
Fore
SplineSet
80 296 m 1,0,-1
 284 409 l 1,1,-1
 308 366 l 1,2,3
 357 276 357 276 455 218 c 0,4,5
 563 153 563 153 683 153 c 2,6,-1
 697 153 l 2,7,8
 817 153 817 153 927 214 c 1,9,10
 1102 314 1102 314 1172 446 c 0,11,12
 1218 533 1218 533 1218 593 c 0,13,14
 1218 606 1218 606 1217 612 c 0,15,16
 1208 674 1208 674 1120 697 c 0,17,18
 1051 716 1051 716 848 751 c 1,19,20
 848 751 848 751 608 796 c 0,21,22
 471 822 471 822 400 893 c 0,23,24
 312 981 312 981 312 1071 c 2,25,26
 312 1071 312 1071 312 1073 c 0,27,28
 312 1192 312 1192 365 1268 c 0,29,30
 467 1414 467 1414 609 1473 c 1,31,32
 738 1531 738 1531 870 1531 c 2,33,-1
 874 1531 l 1,34,35
 1003 1530 1003 1530 1094 1486 c 0,36,37
 1169 1450 1169 1450 1222 1406 c 1,38,-1
 1271 1364 l 1,39,-1
 1090 1232 l 1,40,-1
 1060 1264 l 2,41,42
 1038 1288 1038 1288 1001 1314 c 0,43,44
 938 1357 938 1357 853 1357 c 2,45,-1
 845 1357 l 2,46,47
 772 1357 772 1357 715 1328 c 0,48,49
 633 1287 633 1287 586 1221 c 0,50,51
 549 1169 549 1169 549 1127 c 0,52,53
 549 1125 549 1125 550 1120 c 0,54,55
 562 1042 562 1042 653 1020 c 1,56,57
 702 1007 702 1007 884 976 c 0,58,59
 1067 945 1067 945 1181 915 c 0,60,61
 1328 876 1328 876 1396 802 c 0,62,63
 1473 718 1473 718 1473 613 c 2,64,-1
 1473 603 l 2,65,66
 1473 472 1473 472 1383 334 c 0,67,68
 1279 174 1279 174 1030 55 c 1,69,70
 881 -20 881 -20 693 -20 c 2,71,72
 693 -20 693 -20 670 -20 c 0,73,74
 502 -20 502 -20 379 39 c 0,75,76
 245 104 245 104 155 200 c 0,77,78
 132 225 132 225 114 250 c 2,79,-1
 80 296 l 1,0,-1
EndSplineSet
Validated: 1
EndChar

StartChar: T
Encoding: 84 84 55
Width: 1210
GlyphClass: 2
Flags: W
HStem: 0 21G<480 730> 1311 200<20 480 730 1190>
VStem: 480 250<0 1311>
LayerCount: 2
Fore
SplineSet
480 0 m 1,0,-1
 480 1311 l 1,1,-1
 20 1311 l 1,2,-1
 20 1511 l 1,3,-1
 1190 1511 l 1,4,-1
 1190 1311 l 1,5,-1
 730 1311 l 1,6,-1
 730 0 l 1,7,-1
 480 0 l 1,0,-1
EndSplineSet
Validated: 1
EndChar

StartChar: U
Encoding: 85 85 56
Width: 1621
GlyphClass: 2
Flags: W
HStem: -20 174<561.983 917.638> 0 21G<1171 1421> 1491 20G<200 450 1171 1421>
VStem: 200 250<261.729 1511> 1171 250<0 146 375.827 1511>
LayerCount: 2
Fore
SplineSet
1421 0 m 1,0,-1
 1171 0 l 1,1,-1
 1171 146 l 1,2,3
 1095 84 1095 84 989 38 c 0,4,5
 856 -20 856 -20 713 -20 c 2,6,7
 713 -20 713 -20 708 -20 c 0,8,9
 599 -20 599 -20 491 15 c 0,10,11
 396 46 396 46 330 105 c 0,12,13
 264 165 264 165 228 259 c 0,14,15
 201 328 201 328 200 417 c 1,16,-1
 200 1511 l 1,17,-1
 450 1511 l 1,18,-1
 450 425 l 1,19,20
 452 339 452 339 479 288 c 0,21,22
 511 225 511 225 576 189 c 0,23,24
 639 154 639 154 725 154 c 2,25,26
 725 154 725 154 737 154 c 0,27,28
 818 155 818 155 920 199 c 1,29,30
 1028 244 1028 244 1089 319 c 0,31,32
 1171 418 1171 418 1171 577 c 2,33,-1
 1171 1511 l 1,34,-1
 1421 1511 l 1,35,-1
 1421 0 l 1,0,-1
EndSplineSet
Validated: 1
EndChar

StartChar: V
Encoding: 86 86 57
Width: 1614
GlyphClass: 2
Flags: W
HStem: 0 21G<683.893 930.107> 1491 20G<5 284.156 1374.99 1609>
VStem: 5 270<1241 1511> 1384 225<1286 1511>
DStem2: 275 1511 5 1511 0.414393 -0.910098<0 1342.88> 834 290 921 0 0.414393 0.910098<0 1339.15>
LayerCount: 2
Fore
SplineSet
693 0 m 1,0,-1
 5 1511 l 1,1,-1
 275 1511 l 1,2,-1
 834 290 l 1,3,-1
 1384 1511 l 1,4,-1
 1609 1511 l 1,5,-1
 921 0 l 1,6,-1
 693 0 l 1,0,-1
EndSplineSet
Validated: 16385
EndChar

StartChar: W
Encoding: 87 87 58
Width: 2560
GlyphClass: 2
Flags: W
HStem: -20 174<564.917 902.697 1502.45 1836.98> 1491 20G<200 450 1136 1386 1744 2151>
VStem: 200 250<264.21 1511> 1136 250<373.644 1511> 2209 251<566.662 1067.05>
LayerCount: 2
Fore
SplineSet
200 1511 m 1,0,-1
 450 1511 l 1,1,-1
 450 425 l 1,2,3
 451 340 451 340 479 289 c 0,4,5
 512 228 512 228 572 194 c 0,6,7
 643 154 643 154 733 154 c 2,8,-1
 737 154 l 2,9,10
 822 154 822 154 900 196 c 0,11,12
 992 245 992 245 1055 320 c 0,13,14
 1136 415 1136 415 1136 555 c 2,15,-1
 1136 1511 l 1,16,-1
 1386 1511 l 1,17,-1
 1386 425 l 1,18,19
 1387 340 1387 340 1415 289 c 0,20,21
 1448 228 1448 228 1508 194 c 0,22,23
 1579 154 1579 154 1669 154 c 2,24,-1
 1673 154 l 2,25,26
 1753 154 1753 154 1837 197 c 0,27,28
 2002 282 2002 282 2100 427 c 0,29,30
 2166 526 2166 526 2196 685 c 0,31,32
 2209 753 2209 753 2209 822 c 0,33,34
 2209 866 2209 866 2204 906 c 0,35,36
 2183 1073 2183 1073 2097 1198 c 0,37,38
 1993 1349 1993 1349 1873 1429 c 1,39,-1
 1744 1511 l 1,40,-1
 2116 1511 l 1,41,-1
 2119 1511 l 1,42,43
 2183 1463 2183 1463 2258 1378 c 0,44,45
 2346 1277 2346 1277 2407 1126 c 0,46,47
 2446 1030 2446 1030 2457 903 c 0,48,49
 2460 867 2460 867 2460 829 c 0,50,51
 2460 745 2460 745 2442 658 c 0,52,53
 2406 487 2406 487 2274 309 c 0,54,55
 2144 134 2144 134 1909 37 c 1,56,57
 1776 -20 1776 -20 1648 -20 c 2,58,-1
 1644 -20 l 2,59,60
 1530 -20 1530 -20 1427 16 c 1,61,62
 1326 50 1326 50 1265 113 c 0,63,64
 1225 154 1225 154 1196 204 c 1,65,66
 1075 82 1075 82 973 38 c 0,67,68
 840 -20 840 -20 712 -20 c 2,69,-1
 708 -20 l 2,70,71
 598 -20 598 -20 491 15 c 0,72,73
 391 48 391 48 329 106 c 0,74,75
 262 169 262 169 228 260 c 0,76,77
 202 327 202 327 200 417 c 1,78,-1
 200 1511 l 1,0,-1
EndSplineSet
Validated: 1
EndChar

StartChar: X
Encoding: 88 88 59
Width: 1484
GlyphClass: 2
Flags: W
HStem: 0 21G<5 280.855 1144.94 1477> 1491 20G<9 341.026 1204.15 1479>
VStem: 5 260<0 260> 9 317<1194 1511> 1160 317<0 317> 1220 259<1252 1511>
DStem2: 5 0 265 0 0.626643 0.779307<162.927 901.775 1200.06 1938.9> 326 1511 9 1511 0.605964 -0.795492<0 724.184 982.572 1707.36>
LayerCount: 2
Fore
SplineSet
5 0 m 1,0,-1
 598 737 l 1,1,-1
 9 1511 l 1,2,-1
 326 1511 l 1,3,-1
 761 932 l 1,4,-1
 1220 1511 l 1,5,-1
 1479 1511 l 1,6,-1
 887 774 l 1,7,-1
 1477 0 l 1,8,-1
 1160 0 l 1,9,-1
 724 579 l 1,10,-1
 265 0 l 1,11,-1
 5 0 l 1,0,-1
EndSplineSet
Validated: 16385
EndChar

StartChar: Y
Encoding: 89 89 60
Width: 1469
GlyphClass: 2
Flags: W
HStem: 0 21G<601 851> 1491 20G<5 289.957 1222.93 1464>
VStem: 5 274<1237 1511> 601 250<0 421> 1234 230<1281 1511>
DStem2: 279 1511 5 1511 0.479754 -0.877403<0 988.592> 754 644 851 421 0.490185 0.871618<0 990.982>
LayerCount: 2
Fore
SplineSet
601 0 m 1,0,-1
 601 421 l 1,1,-1
 5 1511 l 1,2,-1
 279 1511 l 1,3,-1
 754 644 l 1,4,-1
 1234 1511 l 1,5,-1
 1464 1511 l 1,6,-1
 851 421 l 1,7,-1
 851 0 l 1,8,-1
 601 0 l 1,0,-1
EndSplineSet
Validated: 16385
EndChar

StartChar: Z
Encoding: 90 90 61
Width: 1440
GlyphClass: 2
Flags: W
HStem: 0 216<116 203.869> 0 200<498 1280> 1311 200<203 1005.18>
VStem: 1015 265<932.234 1308.99>
LayerCount: 2
Fore
SplineSet
70 0 m 1,0,-1
 70 197 l 1,1,-1
 116 216 l 1,2,3
 299 305 299 305 520 453 c 0,4,5
 725 590 725 590 818 691 c 0,6,7
 929 813 929 813 975 926 c 0,8,9
 1015 1026 1015 1026 1015 1154 c 0,10,11
 1015 1234 1015 1234 996 1311 c 1,12,-1
 203 1311 l 1,13,-1
 203 1511 l 1,14,-1
 1177 1511 l 1,15,-1
 1192 1486 l 1,16,17
 1213 1448 1213 1448 1220 1430 c 0,18,19
 1266 1314 1266 1314 1266 1144 c 0,20,21
 1266 984 1266 984 1210 867 c 0,22,23
 1126 692 1126 692 987 552 c 0,24,25
 888 451 888 451 674 306 c 0,26,27
 579 242 579 242 498 200 c 1,28,-1
 1280 200 l 1,29,-1
 1280 0 l 1,30,-1
 70 0 l 1,0,-1
EndSplineSet
Validated: 19457
EndChar

StartChar: bracketleft
Encoding: 91 91 62
Width: 953
GlyphClass: 2
Flags: W
HStem: -289 200<500 903> 1618 200<500 903>
VStem: 250 250<-89 1618>
LayerCount: 2
Fore
SplineSet
250 -289 m 1,0,-1
 250 1818 l 1,1,-1
 903 1818 l 1,2,-1
 903 1618 l 1,3,-1
 500 1618 l 1,4,-1
 500 -89 l 1,5,-1
 903 -89 l 1,6,-1
 903 -289 l 1,7,-1
 250 -289 l 1,0,-1
EndSplineSet
Validated: 1
EndChar

StartChar: backslash
Encoding: 92 92 63
Width: 1231
GlyphClass: 2
Flags: W
VStem: 0 226<1461 1687> 1005 226<-183 43>
DStem2: 226 1687 0 1687 0.473397 -0.880849<0 2015.96>
LayerCount: 2
Fore
SplineSet
0 1687 m 1,0,-1
 226 1687 l 1,1,-1
 1231 -183 l 1,2,-1
 1005 -183 l 1,3,-1
 0 1687 l 1,0,-1
EndSplineSet
Validated: 1
EndChar

StartChar: bracketright
Encoding: 93 93 64
Width: 953
GlyphClass: 2
Flags: W
HStem: -289 200<50 453> 1618 200<50 453>
VStem: 453 250<-89 1618>
LayerCount: 2
Fore
SplineSet
703 -289 m 1,0,-1
 50 -289 l 1,1,-1
 50 -89 l 1,2,-1
 453 -89 l 1,3,-1
 453 1618 l 1,4,-1
 50 1618 l 1,5,-1
 50 1818 l 1,6,-1
 703 1818 l 1,7,-1
 703 -289 l 1,0,-1
EndSplineSet
Validated: 1
EndChar

StartChar: asciicircum
Encoding: 94 94 65
Width: 1602
GlyphClass: 2
Flags: W
HStem: 938 573
VStem: 100 277<938 1215> 1150 352<938 1290>
DStem2: 100 938 377 938 0.723191 0.690648<200.324 736.625> 902 1511 770 1303 0.723191 -0.690648<48.1935 575.093>
LayerCount: 2
Fore
SplineSet
100 938 m 1,0,-1
 700 1511 l 1,1,-1
 902 1511 l 1,2,-1
 1502 938 l 1,3,-1
 1150 938 l 1,4,-1
 770 1303 l 1,5,-1
 377 938 l 1,6,-1
 100 938 l 1,0,-1
EndSplineSet
Validated: 1
EndChar

StartChar: underscore
Encoding: 95 95 66
Width: 1233
GlyphClass: 2
Flags: W
HStem: -410 200<150 1083>
LayerCount: 2
Fore
SplineSet
1083 -410 m 1,0,-1
 150 -410 l 1,1,-1
 150 -210 l 1,2,-1
 1083 -210 l 1,3,-1
 1083 -410 l 1,0,-1
EndSplineSet
Validated: 1
EndChar

StartChar: grave
Encoding: 96 96 67
Width: 842
GlyphClass: 2
Flags: W
HStem: 969 542
VStem: 150 542
DStem2: 292 1511 150 1369 0.707989 -0.706223<0 566.142>
LayerCount: 2
Fore
SplineSet
551 969 m 1,0,-1
 150 1369 l 1,1,-1
 292 1511 l 1,2,-1
 692 1110 l 1,3,-1
 551 969 l 1,0,-1
EndSplineSet
Validated: 1
EndChar

StartChar: a
Encoding: 97 97 68
Width: 1347
GlyphClass: 2
Flags: W
HStem: -20 174<485.456 765.216> 0 21G<897 1147> 935 185<575.594 858.37>
VStem: 100 249<291.979 705.961> 897 250<0 883.119>
LayerCount: 2
Fore
SplineSet
1147 0 m 1,0,-1
 897 0 l 1,1,-1
 897 802 l 1,2,-1
 897 803 l 1,3,4
 892 856 892 856 866 884 c 0,5,6
 829 924 829 924 763 933 c 0,7,8
 749 935 749 935 735 935 c 0,9,10
 679 935 679 935 618 910 c 0,11,12
 489 858 489 858 417 750 c 0,13,14
 375 686 375 686 355 582 c 0,15,16
 349 552 349 552 349 510 c 0,17,18
 349 485 349 485 351 452 c 0,19,20
 356 373 356 373 387 304 c 0,21,22
 417 239 417 239 494 193 c 0,23,24
 558 154 558 154 637 154 c 2,25,-1
 651 154 l 2,26,27
 719 154 719 154 776 198 c 0,28,29
 809 223 809 223 831 257 c 1,30,31
 844 279 l 1,32,-1
 849 254 l 2,33,34
 854 225 854 225 854 193 c 0,35,36
 854 120 854 120 805 62 c 0,37,38
 736 -20 736 -20 625 -20 c 2,39,-1
 622 -20 l 2,40,41
 499 -20 499 -20 403 25 c 0,42,43
 293 76 293 76 233 138 c 1,44,45
 167 204 167 204 135 280 c 0,46,47
 106 348 106 348 101 450 c 0,48,49
 100 471 100 471 100 490 c 0,50,51
 100 551 100 551 112 608 c 0,52,53
 139 733 139 733 238 860 c 1,54,55
 331 981 331 981 505 1062 c 0,56,57
 628 1120 628 1120 772 1120 c 0,58,59
 905 1120 905 1120 1014 1034 c 1,60,61
 1147 931 1147 931 1147 744 c 2,62,-1
 1147 0 l 1,0,-1
EndSplineSet
Validated: 1
EndChar

StartChar: b
Encoding: 98 98 69
Width: 1347
GlyphClass: 2
Flags: W
HStem: -20 185<488.872 771.922> 946 174<570.922 862.441> 1490 20G<200 450>
VStem: 200 250<216.912 1510> 998 249<396.209 808.021>
LayerCount: 2
Fore
SplineSet
200 1510 m 1,0,-1
 450 1510 l 1,1,-1
 450 299 l 1,2,-1
 450 297 l 1,3,4
 455 245 455 245 481 216 c 0,5,6
 518 176 518 176 584 167 c 0,7,8
 598 165 598 165 612 165 c 0,9,10
 668 165 668 165 729 190 c 0,11,12
 858 242 858 242 930 350 c 0,13,14
 972 414 972 414 992 518 c 0,15,16
 998 548 998 548 998 590 c 0,17,18
 998 615 998 615 996 648 c 0,19,20
 991 727 991 727 960 796 c 0,21,22
 930 861 930 861 853 907 c 0,23,24
 789 946 789 946 710 946 c 2,25,-1
 696 946 l 2,26,27
 629 946 629 946 571 902 c 0,28,29
 540 878 540 878 517 844 c 1,30,31
 517 844 517 844 503 821 c 1,32,-1
 499 848 l 2,33,34
 494 882 494 882 494 920 c 0,35,36
 494 986 494 986 526 1033 c 0,37,38
 586 1120 586 1120 722 1120 c 2,39,-1
 725 1120 l 1,40,41
 850 1119 850 1119 944 1076 c 0,42,43
 1051 1027 1051 1027 1108 969 c 0,44,45
 1181 894 1181 894 1213 820 c 0,46,47
 1242 754 1242 754 1246 651 c 0,48,49
 1247 625 1247 625 1247 596 c 0,50,51
 1247 552 1247 552 1235 494 c 0,52,53
 1209 370 1209 370 1109 240 c 0,54,55
 1016 119 1016 119 844 39 c 0,56,57
 719 -20 719 -20 575 -20 c 1,58,59
 425 -18 425 -18 330 70 c 0,60,61
 200 189 200 189 200 351 c 2,62,-1
 200 1510 l 1,0,-1
EndSplineSet
Validated: 1
EndChar

StartChar: c
Encoding: 99 99 70
Width: 1247
GlyphClass: 2
Flags: W
HStem: -20 173<480.187 801.402> 946 174<580.034 899.943>
VStem: 100 249<291.769 707.569>
LayerCount: 2
Fore
SplineSet
1153 255 m 5,0,-1
 1123 218 l 5,1,2
 1032 109 1032 109 889 39 c 4,3,4
 770 -20 770 -20 635 -20 c 6,5,-1
 622 -20 l 6,6,7
 491 -20 491 -20 399 23 c 28,8,9
 293 78 293 78 233 138 c 4,10,11
 167 204 167 204 135 280 c 4,12,13
 106 349 106 349 101 450 c 4,14,15
 100 471 100 471 100 491 c 4,16,17
 100 552 100 552 112 608 c 4,18,19
 144 753 144 753 239 862 c 4,20,21
 361 1002 361 1002 507 1063 c 4,22,23
 647 1120 647 1120 768 1120 c 6,24,25
 772 1120 l 4,26,27
 898 1120 898 1120 991 1075 c 4,28,29
 1068 1038 1068 1038 1119 994 c 5,30,-1
 1167 954 l 5,31,-1
 989 819 l 5,32,-1
 959 853 l 5,33,34
 934 878 934 878 899 903 c 4,35,36
 837 946 837 946 751 946 c 6,37,-1
 743 946 l 6,38,39
 674 946 674 946 612 918 c 4,40,41
 492 862 492 862 417 750 c 4,42,43
 374 686 374 686 355 582 c 4,44,45
 349 549 349 549 349 510 c 4,46,47
 349 486 349 486 351 453 c 4,48,49
 356 368 356 368 387 304 c 4,50,51
 426 224 426 224 494 188 c 4,52,53
 558 153 558 153 641 153 c 6,54,-1
 647 153 l 6,55,56
 717 153 717 153 789 190 c 4,57,58
 882 238 882 238 963 351 c 5,59,-1
 994 400 l 5,60,-1
 1153 255 l 5,0,-1
EndSplineSet
Validated: 1
EndChar

StartChar: d
Encoding: 100 100 71
Width: 1347
GlyphClass: 2
Flags: W
HStem: -20 173<488.805 767.248> 0 21G<897 1147> 987 133<615.601 800.99> 1491 20G<897 1147>
VStem: 100 249<293.477 707.265> 897 250<0 82 279.656 1511>
LayerCount: 2
Fore
SplineSet
1147 0 m 1,0,-1
 897 0 l 1,1,-1
 897 82 l 1,2,-1
 876 64 l 1,3,4
 773 -20 773 -20 635 -20 c 2,5,-1
 622 -20 l 2,6,7
 499 -20 499 -20 403 24 c 0,8,9
 293 74 293 74 233 135 c 0,10,11
 167 202 167 202 135 278 c 0,12,13
 106 347 106 347 101 448 c 0,14,15
 100 469 100 469 100 499 c 0,16,17
 100 550 100 550 112 606 c 0,18,19
 146 753 146 753 240 866 c 0,20,21
 342 989 342 989 502 1070 c 0,22,23
 601 1120 601 1120 681 1120 c 2,24,-1
 698 1120 l 2,25,26
 770 1120 770 1120 802 1076 c 0,27,28
 825 1044 825 1044 825 1004 c 0,29,30
 825 992 825 992 823 981 c 1,31,32
 806 987 806 987 772 987 c 0,33,34
 752 987 752 987 710 978 c 0,35,36
 653 966 653 966 597 932 c 0,37,38
 500 874 500 874 417 754 c 0,39,40
 374 692 374 692 355 585 c 0,41,42
 349 551 349 551 349 511 c 0,43,44
 349 487 349 487 351 454 c 0,45,46
 356 372 356 372 387 306 c 0,47,48
 421 233 421 233 493 194 c 1,49,50
 561 153 561 153 637 153 c 2,51,-1
 647 153 l 2,52,53
 707 153 707 153 781 207 c 0,54,55
 830 242 830 242 859 290 c 1,56,57
 889 337 889 337 897 375 c 1,58,-1
 897 1511 l 1,59,-1
 1147 1511 l 1,60,-1
 1147 0 l 1,0,-1
EndSplineSet
Validated: 1
EndChar

StartChar: e
Encoding: 101 101 72
Width: 1247
GlyphClass: 2
Flags: W
HStem: -20 173<479.227 800.207> 462 200<372 912> 946 174<579.395 899.943>
VStem: 101 249<286.995 462>
LayerCount: 2
Fore
SplineSet
1153 254 m 1,0,-1
 1123 218 l 2,1,2
 1028 104 1028 104 894 37 c 0,3,4
 780 -20 780 -20 635 -20 c 2,5,-1
 622 -20 l 2,6,7
 499 -20 499 -20 403 25 c 24,8,9
 296 75 296 75 233 138 c 0,10,11
 167 204 167 204 135 280 c 0,12,13
 106 349 106 349 101 450 c 0,14,15
 100 471 100 471 100 491 c 0,16,17
 100 553 100 553 112 608 c 0,18,19
 143 746 143 746 239 862 c 0,20,21
 357 1003 357 1003 507 1063 c 1,22,23
 641 1120 641 1120 768 1120 c 2,24,25
 772 1120 l 0,26,27
 898 1120 898 1120 991 1075 c 0,28,29
 1068 1038 1068 1038 1119 994 c 1,30,-1
 1167 954 l 1,31,-1
 989 820 l 1,32,-1
 958 853 l 1,33,34
 938 876 938 876 899 903 c 0,35,36
 836 946 836 946 751 946 c 2,37,-1
 743 946 l 2,38,39
 674 946 674 946 613 919 c 0,40,41
 490 864 490 864 417 758 c 0,42,43
 390 719 390 719 372 662 c 1,44,-1
 912 662 l 1,45,-1
 912 462 l 1,46,-1
 350 462 l 1,47,48
 350 456 350 456 351 445 c 0,49,50
 357 359 357 359 387 300 c 0,51,52
 424 229 424 229 487 193 c 0,53,54
 558 153 558 153 641 153 c 2,55,-1
 647 153 l 2,56,57
 721 153 721 153 802 198 c 0,58,59
 881 242 881 242 963 351 c 1,60,-1
 994 400 l 1,61,-1
 1153 254 l 1,0,-1
EndSplineSet
Validated: 1
EndChar

StartChar: f
Encoding: 102 102 73
Width: 1101
GlyphClass: 2
Flags: W
HStem: 0 21G<200 450> 743 187<114 200 450 835> 1358 173<588.653 851.836>
VStem: 200 250<0 738 930 1193.11>
LayerCount: 2
Fore
SplineSet
200 0 m 1,0,-1
 200 743 l 1,1,-1
 114 743 l 1,2,-1
 114 930 l 1,3,-1
 200 930 l 1,4,-1
 200 988 l 2,5,6
 200 1181 200 1181 329 1320 c 1,7,8
 390 1393 390 1393 474 1449 c 0,9,10
 597 1531 597 1531 717 1531 c 2,11,-1
 725 1531 l 2,12,13
 855 1531 855 1531 945 1486 c 0,14,15
 1026 1446 1026 1446 1074 1404 c 2,16,-1
 1121 1362 l 1,17,-1
 940 1232 l 1,18,-1
 910 1264 l 2,19,20
 882 1295 882 1295 853 1314 c 0,21,22
 786 1358 786 1358 710 1358 c 2,23,-1
 700 1358 l 2,24,25
 636 1358 636 1358 568 1299 c 0,26,27
 525 1263 525 1263 490 1198 c 1,28,29
 453 1132 453 1132 450 1061 c 1,30,-1
 450 924 l 1,31,-1
 835 924 l 1,32,-1
 835 738 l 1,33,-1
 450 738 l 1,34,-1
 450 0 l 1,35,-1
 200 0 l 1,0,-1
EndSplineSet
Validated: 1
EndChar

StartChar: g
Encoding: 103 103 74
Width: 1348
GlyphClass: 2
Flags: W
HStem: -410 173<348.345 642.272> -20 174<486.233 765.061> 935 185<574.64 859.86>
VStem: 101 249<291.81 708.575> 898 250<32.2373 883.119>
LayerCount: 2
Fore
SplineSet
85 -246 m 1,0,-1
 254 -103 l 1,1,-1
 286 -140 l 2,2,3
 314 -172 314 -172 346 -191 c 0,4,5
 421 -237 421 -237 502 -237 c 0,6,7
 554 -237 554 -237 635 -197 c 0,8,9
 752 -140 752 -140 828 -18 c 1,10,11
 881 65 881 65 886 134 c 1,12,-1
 898 802 l 1,13,-1
 898 803 l 1,14,15
 893 856 893 856 866 884 c 0,16,17
 829 924 829 924 763 933 c 0,18,19
 750 935 750 935 736 935 c 0,20,21
 678 935 678 935 617 910 c 0,22,23
 490 859 490 859 418 750 c 0,24,25
 369 677 369 677 354 583 c 1,26,27
 350 551 350 551 350 510 c 0,28,29
 350 490 350 490 352 452 c 0,30,31
 356 373 356 373 388 304 c 0,32,33
 418 238 418 238 494 193 c 1,34,35
 557 154 557 154 638 154 c 2,36,-1
 652 154 l 2,37,38
 719 154 719 154 776 198 c 0,39,40
 809 223 809 223 831 257 c 2,41,42
 831 257 831 257 845 279 c 1,43,-1
 849 254 l 1,44,45
 855 225 855 225 855 193 c 0,46,47
 855 119 855 119 805 61 c 0,48,49
 735 -20 735 -20 626 -20 c 2,50,-1
 623 -20 l 2,51,52
 501 -20 501 -20 402 25 c 0,53,54
 297 73 297 73 233 138 c 0,55,56
 165 207 165 207 134 280 c 1,57,58
 107 347 107 347 102 450 c 0,59,60
 101 471 101 471 101 490 c 0,61,62
 101 555 101 555 112 607 c 0,63,64
 138 731 138 731 239 860 c 1,65,66
 336 986 336 986 505 1062 c 1,67,68
 624 1120 624 1120 773 1120 c 0,69,70
 902 1120 902 1120 1014 1034 c 0,71,72
 1147 932 1147 932 1148 740 c 1,73,-1
 1148 288 l 2,74,75
 1148 172 1148 172 1136 127 c 0,76,77
 1103 -7 1103 -7 1010 -129 c 1,78,79
 912 -267 912 -267 743 -351 c 0,80,81
 624 -410 624 -410 490 -410 c 2,82,-1
 477 -410 l 2,83,84
 350 -410 350 -410 256 -365 c 0,85,86
 182 -329 182 -329 130 -284 c 2,87,-1
 85 -246 l 1,0,-1
EndSplineSet
Validated: 1
EndChar

StartChar: h
Encoding: 104 104 75
Width: 1432
GlyphClass: 2
Flags: W
HStem: 0 21G<200 450 982 1232> 935 185<662.07 942.498> 1491 20G<200 450>
VStem: 200 250<0 734.634 972 1511> 982 250<0 882.119>
LayerCount: 2
Fore
SplineSet
200 0 m 1,0,-1
 200 1511 l 1,1,-1
 450 1511 l 1,2,-1
 450 972 l 1,3,4
 514 1023 514 1023 590 1061 c 0,5,6
 707 1120 707 1120 857 1120 c 0,7,8
 990 1120 990 1120 1099 1034 c 1,9,10
 1232 931 1232 931 1232 744 c 2,11,-1
 1232 0 l 1,12,-1
 982 0 l 1,13,-1
 982 800 l 1,14,-1
 982 802 l 1,15,16
 977 855 977 855 951 883 c 0,17,18
 911 926 911 926 848 933 c 0,19,20
 831 935 831 935 820 935 c 0,21,22
 763 935 763 935 703 910 c 0,23,24
 579 859 579 859 502 746 c 0,25,26
 453 674 453 674 450 583 c 1,27,-1
 450 0 l 1,28,-1
 200 0 l 1,0,-1
EndSplineSet
Validated: 1
EndChar

StartChar: i
Encoding: 105 105 76
Width: 650
GlyphClass: 2
Flags: W
HStem: 0 180<463.627 616> 1080 20G<200 450> 1226 305<221.38 430.172>
VStem: 176 302<1272.41 1482.99> 200 250<203.443 1100>
LayerCount: 2
Fore
SplineSet
616 0 m 1,0,-1
 512 0 l 2,1,2
 380 0 380 0 298 52 c 0,3,4
 200 113 200 113 200 243 c 2,5,-1
 200 1100 l 1,6,-1
 450 1100 l 1,7,-1
 450 253 l 1,8,9
 451 217 451 217 463 203 c 0,10,11
 483 182 483 182 512 180 c 1,12,-1
 616 180 l 1,13,-1
 616 0 l 1,0,-1
478 1373 m 0,14,15
 478 1316 478 1316 433 1271 c 256,16,17
 388 1226 388 1226 327 1226 c 0,18,19
 263 1226 263 1226 220 1271 c 0,20,21
 176 1316 176 1316 176 1378.5 c 128,-1,22
 176 1441 176 1441 220 1486 c 128,-1,23
 264 1531 264 1531 327 1531 c 128,-1,24
 390 1531 390 1531 434 1483 c 128,-1,25
 478 1435 478 1435 478 1373 c 0,14,15
EndSplineSet
Validated: 1
EndChar

StartChar: j
Encoding: 106 106 77
Width: 654
GlyphClass: 2
Flags: W
HStem: -410 180<0 181.043> 1080 20G<200 450> 1226 305<221.349 432.105>
VStem: 176 302<1272.41 1484.59> 200 250<-186.175 1100>
LayerCount: 2
Fore
SplineSet
0 -410 m 1,0,-1
 0 -230 l 1,1,-1
 96 -230 l 2,2,3
 152 -230 152 -230 182 -187 c 0,4,5
 200 -161 200 -161 200 -84 c 2,6,-1
 200 1100 l 1,7,-1
 450 1100 l 1,8,-1
 450 -80 l 1,9,10
 448 -222 448 -222 357 -310 c 0,11,12
 254 -410 254 -410 138 -410 c 2,13,-1
 0 -410 l 1,0,-1
176 1379 m 0,14,15
 176 1441 176 1441 220 1486 c 0,16,17
 263 1531 263 1531 327 1531 c 128,-1,18
 391 1531 391 1531 434 1486 c 0,19,20
 478 1441 478 1441 478 1378 c 2,21,-1
 478 1377 l 2,22,23
 478 1315 478 1315 433.5 1270.5 c 128,-1,24
 389 1226 389 1226 327 1226 c 0,25,26
 263 1226 263 1226 220 1271 c 0,27,28
 176 1316 176 1316 176 1379 c 0,14,15
EndSplineSet
Validated: 1
EndChar

StartChar: k
Encoding: 107 107 78
Width: 1399
GlyphClass: 2
Flags: W
HStem: 0 21G<200 450 960.84 1394> 191 171<450 606.305> 1080 20G<900 1163> 1491 20G<200 450>
VStem: 200 250<0 199.269 362 1511> 955 248<655.696 1079.95>
LayerCount: 2
Fore
SplineSet
200 0 m 1,0,-1
 200 1511 l 1,1,-1
 450 1511 l 1,2,-1
 450 362 l 1,3,4
 547 382 547 382 642 420 c 0,5,6
 757 465 757 465 831 545 c 0,7,8
 901 620 901 620 927 696 c 0,9,10
 955 779 955 779 955 855 c 2,11,-1
 955 860 l 2,12,13
 955 963 955 963 931 1029 c 0,14,15
 919 1062 919 1062 911 1078 c 2,16,-1
 900 1100 l 1,17,-1
 1161 1100 l 1,18,-1
 1163 1096 l 1,19,20
 1174 1065 1174 1065 1180 1040 c 0,21,22
 1191 997 1191 997 1198 942 c 0,23,24
 1203 903 1203 903 1203 873 c 0,25,26
 1203 869 1203 869 1203 863 c 0,27,28
 1203 754 1203 754 1160 658 c 0,29,30
 1125 579 1125 579 1048 486 c 0,31,32
 992 419 992 419 895 343 c 1,33,-1
 1394 0 l 1,34,-1
 990 0 l 1,35,-1
 643 238 l 1,36,-1
 641 237 l 1,37,38
 539 207 539 207 450 191 c 1,39,-1
 450 0 l 1,40,-1
 200 0 l 1,0,-1
EndSplineSet
Validated: 1
EndChar

StartChar: l
Encoding: 108 108 79
Width: 650
GlyphClass: 2
Flags: W
HStem: 0 180<463.658 616> 1491 20G<200 450>
VStem: 200 250<204.443 1511>
LayerCount: 2
Fore
SplineSet
616 0 m 1,0,-1
 512 0 l 2,1,2
 380 0 380 0 298 53 c 0,3,4
 200 115 200 115 200 248 c 2,5,-1
 200 1511 l 1,6,-1
 450 1511 l 1,7,-1
 450 255 l 1,8,9
 451 218 451 218 463 204 c 0,10,11
 484 182 484 182 512 180 c 1,12,-1
 616 180 l 1,13,-1
 616 0 l 1,0,-1
EndSplineSet
Validated: 1
EndChar

StartChar: m
Encoding: 109 109 80
Width: 2214
GlyphClass: 2
Flags: W
HStem: 0 21G<200 450 982 1232 1764 2014> 934 186<658.617 942.871 1440.95 1725.15> 1080 20G<200 450>
VStem: 200 250<0 733.214 972 1100> 982 250<0 733.214> 1764 250<0 882.119>
CounterMasks: 1 1c
LayerCount: 2
Fore
SplineSet
200 0 m 1,0,-1
 200 1100 l 1,1,-1
 450 1100 l 1,2,-1
 450 972 l 1,3,4
 513 1023 513 1023 590 1061 c 0,5,6
 708 1120 708 1120 857 1120 c 0,7,8
 990 1120 990 1120 1099 1027 c 0,9,10
 1149 984 1149 984 1181 927 c 1,11,12
 1261 1006 1261 1006 1372 1061 c 0,13,14
 1490 1120 1490 1120 1639 1120 c 0,15,16
 1772 1120 1772 1120 1881 1034 c 1,17,18
 2014 931 2014 931 2014 744 c 2,19,-1
 2014 0 l 1,20,-1
 1764 0 l 1,21,-1
 1764 800 l 1,22,-1
 1764 802 l 1,23,24
 1759 855 1759 855 1733 883 c 0,25,26
 1693 926 1693 926 1630 933 c 0,27,28
 1613 935 1613 935 1602 935 c 0,29,30
 1545 935 1545 935 1485 910 c 0,31,32
 1364 861 1364 861 1284 745 c 0,33,34
 1232 670 1232 670 1232 584 c 2,35,-1
 1232 0 l 1,36,-1
 982 0 l 1,37,-1
 982 800 l 1,38,-1
 982 802 l 1,39,40
 977 855 977 855 951 883 c 0,41,42
 907 929 907 929 850 933 c 0,43,44
 836 934 836 934 826 934 c 0,45,46
 760 934 760 934 702 910 c 0,47,48
 582 861 582 861 502 745 c 0,49,50
 450 670 450 670 450 584 c 2,51,-1
 450 0 l 1,52,-1
 200 0 l 1,0,-1
EndSplineSet
Validated: 1
EndChar

StartChar: n
Encoding: 110 110 81
Width: 1432
GlyphClass: 2
Flags: W
HStem: 0 21G<200 450 982 1232> 934 186<658.617 942.871> 1080 20G<200 450>
VStem: 200 250<0 733.214 972 1100> 982 250<0 882.119>
LayerCount: 2
Fore
SplineSet
200 0 m 1,0,-1
 200 1100 l 1,1,-1
 450 1100 l 1,2,-1
 450 972 l 1,3,4
 513 1023 513 1023 590 1061 c 0,5,6
 708 1120 708 1120 857 1120 c 0,7,8
 990 1120 990 1120 1099 1034 c 1,9,10
 1232 931 1232 931 1232 744 c 2,11,-1
 1232 0 l 1,12,-1
 982 0 l 1,13,-1
 982 800 l 1,14,-1
 982 802 l 1,15,16
 977 855 977 855 951 883 c 0,17,18
 907 929 907 929 850 933 c 0,19,20
 836 934 836 934 826 934 c 0,21,22
 760 934 760 934 702 910 c 0,23,24
 582 861 582 861 502 745 c 0,25,26
 450 670 450 670 450 584 c 2,27,-1
 450 0 l 1,28,-1
 200 0 l 1,0,-1
EndSplineSet
Validated: 1
EndChar

StartChar: o
Encoding: 111 111 82
Width: 1394
GlyphClass: 2
Flags: W
HStem: -20 173<485.514 807.809> 946 174<580.425 907.968>
VStem: 100 249<290.977 707.469> 1045 249<392.982 806.942>
LayerCount: 2
Fore
SplineSet
772 1120 m 1,0,1
 900 1119 900 1119 992 1075 c 0,2,3
 1102 1023 1102 1023 1161 963 c 0,4,5
 1226 898 1226 898 1259 820 c 0,6,7
 1288 752 1288 752 1293 649 c 0,8,9
 1294 628 1294 628 1294 599 c 0,10,11
 1294 549 1294 549 1282 493 c 0,12,13
 1254 364 1254 364 1156 240 c 1,14,15
 1051 111 1051 111 899 39 c 0,16,17
 775 -20 775 -20 635 -20 c 2,18,19
 635 -20 635 -20 622 -20 c 0,20,21
 499 -20 499 -20 403 25 c 0,22,23
 293 76 293 76 233 138 c 0,24,25
 167 205 167 205 135 280 c 0,26,27
 106 349 106 349 101 450 c 0,28,29
 100 471 100 471 100 491 c 0,30,31
 100 552 100 552 112 608 c 0,32,33
 142 744 142 744 239 862 c 0,34,35
 355 1002 355 1002 507 1063 c 0,36,37
 648 1120 648 1120 768 1120 c 2,38,-1
 772 1120 l 1,0,1
743 946 m 0,39,40
 658 946 658 946 593 910 c 0,41,42
 485 851 485 851 417 750 c 0,43,44
 372 683 372 683 355 582 c 0,45,46
 349 549 349 549 349 510 c 0,47,48
 349 486 349 486 351 453 c 0,49,50
 356 369 356 369 387 304 c 0,51,52
 422 232 422 232 492 194 c 0,53,54
 567 153 567 153 641 153 c 2,55,56
 641 153 641 153 647 153 c 0,57,58
 717 153 717 153 793 189 c 0,59,60
 905 243 905 243 977 350 c 0,61,62
 1022 416 1022 416 1039 518 c 0,63,64
 1045 551 1045 551 1045 590 c 0,65,66
 1045 616 1045 616 1043 647 c 0,67,68
 1037 738 1037 738 1007 795 c 0,69,70
 973 860 973 860 899 908 c 0,71,72
 840 946 840 946 755 946 c 2,73,74
 755 946 755 946 743 946 c 0,39,40
EndSplineSet
Validated: 1
EndChar

StartChar: p
Encoding: 112 112 83
Width: 1347
GlyphClass: 2
Flags: W
HStem: -410 21G<200 450> -20 133<546.01 731.399> 947 173<579.752 858.195> 1080 20G<200 450>
VStem: 200 250<-410 820.344 1018 1100> 998 249<392.735 806.523>
LayerCount: 2
Fore
SplineSet
200 1100 m 1,0,-1
 450 1100 l 1,1,-1
 450 1018 l 1,2,-1
 471 1036 l 1,3,4
 574 1120 574 1120 712 1120 c 2,5,-1
 725 1120 l 2,6,7
 848 1120 848 1120 944 1076 c 0,8,9
 1054 1026 1054 1026 1114 965 c 0,10,11
 1180 898 1180 898 1212 822 c 0,12,13
 1241 753 1241 753 1246 652 c 0,14,15
 1247 631 1247 631 1247 601 c 0,16,17
 1247 550 1247 550 1235 494 c 0,18,19
 1201 347 1201 347 1107 234 c 0,20,21
 1005 111 1005 111 845 30 c 0,22,23
 746 -20 746 -20 666 -20 c 2,24,-1
 649 -20 l 2,25,26
 577 -20 577 -20 545 24 c 0,27,28
 522 56 522 56 522 96 c 0,29,30
 522 108 522 108 524 119 c 1,31,32
 542 113 542 113 575 113 c 0,33,34
 595 113 595 113 637 122 c 0,35,36
 694 134 694 134 750 168 c 0,37,38
 847 226 847 226 930 346 c 0,39,40
 973 408 973 408 992 515 c 0,41,42
 998 549 998 549 998 589 c 0,43,44
 998 613 998 613 996 646 c 0,45,46
 991 728 991 728 960 794 c 0,47,48
 926 867 926 867 854 906 c 1,49,50
 786 947 786 947 710 947 c 2,51,-1
 700 947 l 2,52,53
 640 947 640 947 566 893 c 0,54,55
 517 858 517 858 488 810 c 1,56,57
 458 763 458 763 450 725 c 1,58,-1
 450 -410 l 1,59,-1
 200 -410 l 1,60,-1
 200 1100 l 1,0,-1
EndSplineSet
Validated: 1
EndChar

StartChar: q
Encoding: 113 113 84
Width: 1352
GlyphClass: 2
Flags: W
HStem: -410 21G<897 1138.21> -20 174<486.421 765.216> 935 185<575.594 859.87>
VStem: 100 249<291.979 705.961> 897 250<-114 883.088>
LayerCount: 2
Fore
SplineSet
897 -410 m 1,0,-1
 897 801 l 1,1,-1
 897 803 l 1,2,3
 892 855 892 855 866 884 c 0,4,5
 829 924 829 924 763 933 c 0,6,7
 749 935 749 935 735 935 c 0,8,9
 679 935 679 935 618 910 c 0,10,11
 489 858 489 858 417 750 c 0,12,13
 375 686 375 686 355 582 c 0,14,15
 349 552 349 552 349 510 c 0,16,17
 349 485 349 485 351 452 c 0,18,19
 356 373 356 373 387 304 c 0,20,21
 417 239 417 239 494 193 c 0,22,23
 558 154 558 154 637 154 c 2,24,-1
 651 154 l 2,25,26
 719 154 719 154 776 198 c 0,27,28
 809 223 809 223 831 257 c 1,29,30
 831 257 831 257 844 279 c 1,31,-1
 849 254 l 2,32,33
 854 225 854 225 854 193 c 0,34,35
 854 120 854 120 805 62 c 0,36,37
 736 -20 736 -20 625 -20 c 2,38,-1
 622 -20 l 2,39,40
 501 -20 501 -20 403 25 c 0,41,42
 296 74 296 74 233 138 c 0,43,44
 167 204 167 204 135 280 c 0,45,46
 106 349 106 349 101 450 c 0,47,48
 100 471 100 471 100 490 c 0,49,50
 100 552 100 552 112 608 c 0,51,52
 140 733 140 733 238 860 c 0,53,54
 331 981 331 981 505 1062 c 0,55,56
 628 1120 628 1120 772 1120 c 0,57,58
 903 1120 903 1120 1014 1034 c 0,59,60
 1146 933 1146 933 1147 740 c 1,61,-1
 1147 -114 l 1,62,-1
 1347 66 l 1,63,-1
 1347 -202 l 1,64,-1
 1116 -410 l 1,65,-1
 897 -410 l 1,0,-1
EndSplineSet
Validated: 1
EndChar

StartChar: r
Encoding: 114 114 85
Width: 1101
GlyphClass: 2
Flags: W
HStem: 0 21G<200 450> 947 173<571.53 851.836> 1080 20G<200 450>
VStem: 200 250<0 819.638 1018 1100>
LayerCount: 2
Fore
SplineSet
200 0 m 1,0,-1
 200 1100 l 1,1,-1
 450 1100 l 1,2,-1
 450 1018 l 1,3,-1
 471 1036 l 1,4,5
 574 1120 574 1120 712 1120 c 2,6,-1
 725 1120 l 2,7,8
 855 1120 855 1120 945 1075 c 1,9,10
 1020 1039 1020 1039 1074 993 c 1,11,-1
 1121 951 l 1,12,-1
 942 821 l 1,13,-1
 912 853 l 2,14,15
 886 881 886 881 853 903 c 0,16,17
 787 947 787 947 710 947 c 2,18,-1
 701 947 l 1,19,20
 626 944 626 944 564 898 c 0,21,22
 523 867 523 867 488 809 c 0,23,24
 458 760 458 760 450 722 c 1,25,-1
 450 0 l 1,26,-1
 200 0 l 1,0,-1
EndSplineSet
Validated: 1
EndChar

StartChar: s
Encoding: 115 115 86
Width: 1230
GlyphClass: 2
Flags: W
HStem: -20 173<439.758 747.274> 946 174<530.125 773.5>
VStem: 233 214<744.472 866.795> 906 224<292.42 468.062>
LayerCount: 2
Fore
SplineSet
80 297 m 1,0,-1
 296 416 l 1,1,2
 331 285 331 285 438 199 c 1,3,4
 493 153 493 153 587 153 c 2,5,-1
 593 153 l 2,6,7
 667 153 667 153 737 191 c 0,8,9
 822 237 822 237 863 294 c 0,10,11
 906 354 906 354 906 398 c 0,12,13
 906 400 906 400 906 402 c 0,14,15
 906 416 906 416 903 429 c 0,16,17
 894 464 894 464 814 485 c 0,18,19
 780 494 780 494 602 526 c 0,20,21
 396 563 396 563 344 595 c 1,22,23
 233 658 233 658 233 775 c 2,24,-1
 233 789 l 1,25,26
 238 871 238 871 299 946 c 0,27,28
 348 1007 348 1007 448 1061 c 0,29,30
 556 1120 556 1120 672 1120 c 2,31,-1
 680 1120 l 2,32,33
 775 1120 775 1120 864 1075 c 0,34,35
 951 1031 951 1031 1008 974 c 2,36,-1
 1033 949 l 1,37,-1
 850 814 l 1,38,-1
 821 856 l 2,39,40
 805 879 805 879 769 906 c 1,41,42
 717 946 717 946 651 946 c 0,43,44
 610 946 610 946 561 921 c 0,45,46
 517 898 517 898 489 864 c 0,47,48
 453 821 453 821 448 795 c 0,49,50
 447 790 447 790 447 787 c 0,51,52
 451 759 451 759 485 744 c 1,53,-1
 486 744 l 1,54,55
 499 741 499 741 668 713 c 0,56,57
 859 681 859 681 948 647 c 0,58,59
 1029 616 1029 616 1072 570 c 0,60,61
 1091 550 1091 550 1108 517 c 0,62,63
 1124 487 1124 487 1128 450 c 0,64,65
 1130 431 1130 431 1130 403 c 0,66,67
 1130 306 1130 306 1046 194 c 1,68,69
 973 95 973 95 848 38 c 0,70,71
 722 -20 722 -20 581 -20 c 2,72,-1
 568 -20 l 2,73,74
 442 -20 442 -20 348 25 c 0,75,76
 242 76 242 76 179 146 c 1,77,78
 132 200 132 200 103 254 c 2,79,-1
 80 297 l 1,0,-1
EndSplineSet
Validated: 1
EndChar

StartChar: t
Encoding: 116 116 87
Width: 795
GlyphClass: 2
Flags: W
HStem: 0 180<500.658 653> 900 200<100 237 487 775> 1491 20G<237 487>
VStem: 237 250<203.411 900 1100 1511>
LayerCount: 2
Fore
SplineSet
653 0 m 1,0,-1
 549 0 l 2,1,2
 419 0 419 0 335 51 c 0,3,4
 237 111 237 111 237 239 c 2,5,-1
 237 900 l 1,6,-1
 100 900 l 1,7,-1
 100 1100 l 1,8,-1
 237 1100 l 1,9,-1
 237 1511 l 1,10,-1
 487 1511 l 1,11,-1
 487 1100 l 1,12,-1
 775 1100 l 1,13,-1
 775 900 l 1,14,-1
 487 900 l 1,15,-1
 487 250 l 1,16,17
 488 216 488 216 500 203 c 0,18,19
 521 182 521 182 549 180 c 1,20,-1
 653 180 l 1,21,-1
 653 0 l 1,0,-1
EndSplineSet
Validated: 1
EndChar

StartChar: u
Encoding: 117 117 88
Width: 1432
GlyphClass: 2
Flags: W
HStem: -20 186<489.129 773.383> 0 21G<982 1232> 1080 20G<200 450 982 1232>
VStem: 200 250<217.881 1100> 982 250<0 128 366.786 1100>
LayerCount: 2
Fore
SplineSet
1232 0 m 1,0,-1
 982 0 l 1,1,-1
 982 128 l 1,2,3
 919 77 919 77 842 39 c 0,4,5
 724 -20 724 -20 575 -20 c 0,6,7
 442 -20 442 -20 333 66 c 1,8,9
 200 169 200 169 200 356 c 2,10,-1
 200 1100 l 1,11,-1
 450 1100 l 1,12,-1
 450 300 l 1,13,-1
 450 298 l 1,14,15
 455 245 455 245 481 217 c 0,16,17
 525 171 525 171 582 167 c 0,18,19
 596 166 596 166 606 166 c 0,20,21
 672 166 672 166 730 190 c 0,22,23
 850 239 850 239 930 355 c 0,24,25
 982 430 982 430 982 516 c 2,26,-1
 982 1100 l 1,27,-1
 1232 1100 l 1,28,-1
 1232 0 l 1,0,-1
EndSplineSet
Validated: 1
EndChar

StartChar: v
Encoding: 118 118 89
Width: 1317
GlyphClass: 2
Flags: W
HStem: 0 21G<536.164 781.818> 1080 20G<5 285.752 1077.6 1312>
VStem: 5 271<829 1100> 1087 225<875 1100>
DStem2: 276 1100 5 1100 0.44133 -0.897345<0 942.32> 689 253 772 0 0.440673 0.897668<0 935.712>
LayerCount: 2
Fore
SplineSet
546 0 m 1,0,-1
 5 1100 l 1,1,-1
 276 1100 l 1,2,-1
 689 253 l 1,3,-1
 1087 1100 l 1,4,-1
 1312 1100 l 1,5,-1
 772 0 l 1,6,-1
 546 0 l 1,0,-1
EndSplineSet
Validated: 16385
EndChar

StartChar: w
Encoding: 119 119 90
Width: 2179
GlyphClass: 2
Flags: W
HStem: -20 185<489.583 767.499 1271.75 1592.14> 1080 20G<200 450 982 1232 1457 1855>
VStem: 200 250<217.912 1100> 982 250<368.564 1100> 1831 248<400.469 801.708>
LayerCount: 2
Fore
SplineSet
200 1100 m 1,0,-1
 450 1100 l 1,1,-1
 450 300 l 1,2,-1
 450 298 l 1,3,4
 455 246 455 246 481 217 c 0,5,6
 522 173 522 173 583 167 c 0,7,8
 603 165 603 165 615 165 c 0,9,10
 672 165 672 165 728 190 c 0,11,12
 868 252 868 252 928 352 c 0,13,14
 982 441 982 441 982 516 c 2,15,-1
 982 1100 l 1,16,-1
 1232 1100 l 1,17,-1
 1232 300 l 1,18,-1
 1232 298 l 1,19,20
 1237 244 1237 244 1262 217 c 0,21,22
 1304 173 1304 173 1365 167 c 0,23,24
 1385 165 1385 165 1400 165 c 0,25,26
 1490 165 1490 165 1569 199 c 0,27,28
 1696 255 1696 255 1762 354 c 0,29,30
 1809 426 1809 426 1824 524 c 0,31,32
 1831 568 1831 568 1831 606 c 0,33,34
 1831 629 1831 629 1828 654 c 0,35,36
 1814 776 1814 776 1753 858 c 0,37,38
 1681 955 1681 955 1585 1018 c 1,39,-1
 1457 1100 l 1,40,-1
 1835 1100 l 1,41,-1
 1837 1100 l 1,42,43
 1873 1077 1873 1077 1949 989 c 0,44,45
 2011 916 2011 916 2045 827 c 0,46,47
 2073 756 2073 756 2078 655 c 0,48,49
 2079 635 2079 635 2079 603 c 0,50,51
 2079 554 2079 554 2067 496 c 0,52,53
 2040 369 2040 369 1941 240 c 0,54,55
 1841 109 1841 109 1688 44 c 0,56,57
 1539 -20 1539 -20 1362 -20 c 2,58,-1
 1357 -20 l 2,59,60
 1223 -20 1223 -20 1114 73 c 1,61,62
 1064 117 1064 117 1033 173 c 1,63,64
 953 94 953 94 842 39 c 0,65,66
 724 -20 724 -20 575 -20 c 0,67,68
 442 -20 442 -20 333 66 c 1,69,70
 200 169 200 169 200 356 c 2,71,-1
 200 1100 l 1,0,-1
EndSplineSet
Validated: 1
EndChar

StartChar: x
Encoding: 120 120 91
Width: 1291
GlyphClass: 2
Flags: W
HStem: 0 21G<50 327.623 903.538 1238> 1080 20G<54 387.515 964.377 1241>
VStem: 50 261<0 261> 54 318<782 1100> 919 319<0 319> 981 260<840 1100>
DStem2: 50 0 311 0 0.646036 0.763307<168.615 661.41 948.302 1441.1> 372 1100 54 1100 0.618578 -0.785723<0 479.651 723.625 1202.66>
LayerCount: 2
Fore
SplineSet
50 0 m 1,0,-1
 500 533 l 1,1,-1
 54 1100 l 1,2,-1
 372 1100 l 1,3,-1
 666 721 l 1,4,-1
 981 1100 l 1,5,-1
 1241 1100 l 1,6,-1
 791 567 l 1,7,-1
 1238 0 l 1,8,-1
 919 0 l 1,9,-1
 626 379 l 1,10,-1
 311 0 l 1,11,-1
 50 0 l 1,0,-1
EndSplineSet
Validated: 1
EndChar

StartChar: y
Encoding: 121 121 92
Width: 1434
GlyphClass: 2
Flags: W
HStem: -410 173<436.878 725.924> -20 186<488.545 775.34> 1080 20G<202 452 984 1234>
VStem: 202 250<217.85 1100> 984 250<365.936 1100>
LayerCount: 2
Fore
SplineSet
1234 1100 m 1,0,-1
 1234 290 l 2,1,2
 1234 193 1234 193 1222 129 c 0,3,4
 1201 8 1201 8 1096 -129 c 1,5,6
 997 -268 997 -268 829 -351 c 0,7,8
 710 -410 710 -410 576 -410 c 2,9,-1
 563 -410 l 2,10,11
 435 -410 435 -410 342 -365 c 0,12,13
 267 -329 267 -329 215 -284 c 2,14,-1
 170 -246 l 1,15,-1
 338 -103 l 1,16,-1
 371 -139 l 1,17,18
 400 -173 400 -173 432 -191 c 1,19,20
 508 -237 508 -237 579 -237 c 2,21,-1
 588 -237 l 2,22,23
 631 -237 631 -237 716 -198 c 0,24,25
 847 -138 847 -138 916 -17 c 0,26,27
 953 48 953 48 969 117 c 1,28,29
 912 73 912 73 844 39 c 0,30,31
 726 -20 726 -20 577 -20 c 0,32,33
 444 -20 444 -20 334 66 c 0,34,35
 202 169 202 169 202 356 c 2,36,-1
 202 1100 l 1,37,-1
 452 1100 l 1,38,-1
 452 300 l 1,39,-1
 452 298 l 1,40,41
 456 244 456 244 482 217 c 0,42,43
 525 171 525 171 583 167 c 0,44,45
 598 166 598 166 608 166 c 0,46,47
 672 166 672 166 731 190 c 0,48,49
 854 240 854 240 931 354 c 1,50,51
 984 430 984 430 984 516 c 2,52,-1
 984 1100 l 1,53,-1
 1234 1100 l 1,0,-1
EndSplineSet
Validated: 1
EndChar

StartChar: z
Encoding: 122 122 93
Width: 1221
GlyphClass: 2
Flags: W
HStem: 0 200<70 110 619 1061> 900 200<178 805.46>
VStem: 809 252<632.61 897.215>
LayerCount: 2
Fore
SplineSet
70 0 m 1,0,-1
 70 190 l 1,1,-1
 110 199 l 1,2,3
 322 239 322 239 535 361 c 1,4,5
 658 437 658 437 737 546 c 0,6,7
 787 614 787 614 803 708 c 0,8,9
 809 742 809 742 809 779 c 0,10,11
 809 801 809 801 807 836 c 0,12,13
 805 870 805 870 799 900 c 1,14,-1
 178 900 l 1,15,-1
 178 1100 l 1,16,-1
 993 1100 l 1,17,-1
 996 1100 l 1,18,19
 1013 1071 1013 1071 1024 1043 c 0,20,21
 1057 961 1057 961 1057 832 c 0,22,23
 1057 778 1057 778 1041 711 c 0,24,25
 1006 567 1006 567 920 456 c 0,26,27
 818 323 818 323 666 227 c 0,28,29
 649 216 649 216 619 200 c 1,30,-1
 1061 200 l 1,31,-1
 1061 0 l 1,32,-1
 70 0 l 1,0,-1
EndSplineSet
Validated: 19457
EndChar

StartChar: braceleft
Encoding: 123 123 94
Width: 968
GlyphClass: 2
Flags: W
HStem: -289 200<640.441 918> 658 200<50 286> 1618 200<617.136 918>
VStem: 286 245<22.918 658 858 1532.29>
LayerCount: 2
Fore
SplineSet
918 -289 m 1,0,-1
 749 -289 l 2,1,2
 558 -289 558 -289 422 -157 c 1,3,4
 287 -24 287 -24 287 157 c 2,5,-1
 287 273 l 1,6,-1
 286 658 l 1,7,-1
 50 658 l 1,8,-1
 50 858 l 1,9,-1
 286 858 l 1,10,-1
 286 1377 l 2,11,12
 286 1570 286 1570 412 1692 c 1,13,14
 540 1818 540 1818 739 1818 c 2,15,-1
 918 1818 l 1,16,-1
 918 1618 l 1,17,-1
 833 1618 l 2,18,19
 661 1618 661 1618 597 1558 c 0,20,21
 531 1496 531 1496 531 1383 c 2,22,-1
 531 150 l 2,23,24
 531 60 531 60 617 -28 c 0,25,26
 677 -89 677 -89 832 -89 c 2,27,-1
 918 -89 l 1,28,-1
 918 -289 l 1,0,-1
EndSplineSet
Validated: 1
EndChar

StartChar: bar
Encoding: 124 124 95
Width: 703
GlyphClass: 2
Flags: W
VStem: 250 202<-183 1687>
LayerCount: 2
Fore
SplineSet
250 -183 m 1,0,-1
 250 1687 l 1,1,-1
 453 1687 l 1,2,-1
 452 -183 l 1,3,-1
 250 -183 l 1,0,-1
EndSplineSet
Validated: 1
EndChar

StartChar: braceright
Encoding: 125 125 96
Width: 968
GlyphClass: 2
Flags: W
HStem: -289 200<50 327.559> 658 200<682 918> 1618 200<50 350.864>
VStem: 437 245<22.918 658 858 1532.29>
LayerCount: 2
Fore
SplineSet
50 -289 m 1,0,-1
 50 -89 l 1,1,-1
 136 -89 l 2,2,3
 291 -89 291 -89 351 -28 c 0,4,5
 437 60 437 60 437 150 c 2,6,-1
 437 1383 l 2,7,8
 437 1496 437 1496 371 1558 c 0,9,10
 307 1618 307 1618 135 1618 c 2,11,-1
 50 1618 l 1,12,-1
 50 1818 l 1,13,-1
 229 1818 l 2,14,15
 428 1818 428 1818 556 1692 c 1,16,17
 682 1570 682 1570 682 1377 c 2,18,-1
 682 858 l 1,19,-1
 918 858 l 1,20,-1
 918 658 l 1,21,-1
 682 658 l 1,22,-1
 681 273 l 1,23,-1
 681 157 l 2,24,25
 681 -24 681 -24 546 -157 c 1,26,27
 410 -289 410 -289 219 -289 c 2,28,-1
 50 -289 l 1,0,-1
EndSplineSet
Validated: 1
EndChar

StartChar: asciitilde
Encoding: 126 126 97
Width: 1401
GlyphClass: 2
Flags: W
HStem: 555 242<811.75 1022.15> 723 242<378.843 589.25>
DStem2: 864 815 537 705 0.89357 -0.448923<-310.763 67.0536>
LayerCount: 2
Fore
SplineSet
150 668 m 1,0,-1
 157 695 l 1,1,2
 194 855 194 855 312 925 c 0,3,4
 381 965 381 965 471 965 c 2,5,-1
 475 965 l 2,6,7
 523 965 523 965 584 946 c 0,8,9
 642 927 642 927 655 920 c 2,10,-1
 864 815 l 2,11,12
 899 797 899 797 931 797 c 0,13,14
 936 797 936 797 943 798 c 0,15,16
 1026 810 1026 810 1060 908 c 2,17,-1
 1078 959 l 1,18,-1
 1251 853 l 1,19,-1
 1244 826 l 1,20,21
 1206 666 1206 666 1088 595 c 0,22,23
 1021 555 1021 555 929 555 c 2,24,-1
 925 555 l 2,25,26
 877 555 877 555 817 574 c 0,27,28
 761 592 761 592 746 600 c 2,29,-1
 537 705 l 2,30,31
 501 723 501 723 469 723 c 0,32,33
 464 723 464 723 458 722 c 0,34,35
 375 711 375 711 341 613 c 2,36,-1
 323 561 l 1,37,-1
 150 668 l 1,0,-1
EndSplineSet
Validated: 1
EndChar

StartChar: exclamdown
Encoding: 161 161 99
Width: 792
GlyphClass: 2
Flags: W
HStem: 0 21G<271 521> 1091 20G<271 521> 1226 305<290.895 501.651>
VStem: 245 302<1272.41 1485.1> 271 250<0 1111>
LayerCount: 2
Fore
SplineSet
547 1379 m 128,-1,1
 547 1316 547 1316 503 1271 c 0,2,3
 460 1226 460 1226 396 1226 c 0,4,5
 334 1226 334 1226 290 1271 c 0,6,7
 248 1313 248 1313 245 1378 c 1,8,9
 245 1442 245 1442 289.5 1486.5 c 128,-1,10
 334 1531 334 1531 396 1531 c 0,11,12
 459 1531 459 1531 503 1486 c 0,13,0
 547 1442 547 1442 547 1379 c 128,-1,1
521 1111 m 1,14,-1
 521 0 l 1,15,-1
 271 0 l 1,16,-1
 271 1111 l 1,17,-1
 521 1111 l 1,14,-1
EndSplineSet
Validated: 1
EndChar

StartChar: cent
Encoding: 162 162 100
Width: 1368
GlyphClass: 2
Flags: W
HStem: 957 170<862 964.813>
VStem: 150 249<258.798 708.979> 612 250<-186 -19.625 185 933 1122.65 1282>
LayerCount: 2
Fore
SplineSet
1203 225 m 1,0,-1
 1172 191 l 1,1,2
 1082 90 1082 90 939 24 c 0,3,4
 900 6 900 6 862 -6 c 1,5,-1
 862 -186 l 1,6,-1
 612 -186 l 1,7,-1
 612 -25 l 1,8,9
 519 -17 519 -17 453 13 c 0,10,11
 346 61 346 61 283 126 c 0,12,13
 217 195 217 195 185 273 c 0,14,15
 156 343 156 343 151 447 c 0,16,17
 150 468 150 468 150 488 c 0,18,19
 150 552 150 552 162 608 c 0,20,21
 193 747 193 747 289 867 c 0,22,23
 404 1011 404 1011 557 1074 c 0,24,25
 587 1086 587 1086 612 1094 c 1,26,-1
 612 1282 l 1,27,-1
 862 1282 l 1,28,-1
 862 1127 l 1,29,30
 967 1120 967 1120 1041 1086 c 256,31,32
 1115 1052 1115 1052 1169 1009 c 2,33,-1
 1218 969 l 1,34,-1
 1039 845 l 1,35,-1
 1008 876 l 2,36,37
 984 901 984 901 951 922 c 0,38,39
 911 947 911 947 862 957 c 1,40,-1
 862 185 l 1,41,42
 953 232 953 232 1013 316 c 1,43,-1
 1044 362 l 1,44,-1
 1203 225 l 1,0,-1
612 116 m 1,45,-1
 612 933 l 1,46,47
 525 873 525 873 468 777 c 0,48,49
 422 701 422 701 405 587 c 0,50,51
 399 550 399 550 399 505 c 0,52,53
 399 477 399 477 401 441 c 0,54,55
 406 349 406 349 437 274 c 0,56,57
 472 191 472 191 542 149 c 0,58,59
 576 128 576 128 612 116 c 1,45,-1
EndSplineSet
Validated: 1
EndChar

StartChar: sterling
Encoding: 163 163 101
Width: 1236
GlyphClass: 2
Flags: W
HStem: 0 200<106 200 450 1156> 644 200<106 200 450 872> 1358 173<580.875 854.937>
VStem: 200 250<200 644 844 1203.8>
LayerCount: 2
Fore
SplineSet
106 0 m 1,0,-1
 106 200 l 1,1,-1
 200 200 l 1,2,-1
 200 644 l 1,3,-1
 106 644 l 1,4,-1
 106 844 l 1,5,-1
 200 844 l 1,6,-1
 200 1000 l 2,7,8
 200 1191 200 1191 329 1331 c 0,9,10
 392 1400 392 1400 475 1451 c 1,11,12
 596 1531 596 1531 717 1531 c 2,13,14
 717 1531 717 1531 725 1531 c 0,15,16
 855 1531 855 1531 945 1486 c 0,17,18
 1026 1445 1026 1445 1074 1404 c 1,19,-1
 1121 1362 l 1,20,-1
 940 1232 l 1,21,-1
 910 1264 l 2,22,23
 884 1293 884 1293 854 1314 c 1,24,25
 786 1358 786 1358 710 1358 c 2,26,-1
 700 1358 l 2,27,28
 636 1358 636 1358 567 1304 c 0,29,30
 521 1269 521 1269 490 1212 c 0,31,32
 453 1146 453 1146 450 1076 c 1,33,-1
 450 844 l 1,34,-1
 872 844 l 1,35,-1
 872 644 l 1,36,-1
 450 644 l 1,37,-1
 450 200 l 1,38,-1
 1156 200 l 1,39,-1
 1156 0 l 1,40,-1
 106 0 l 1,0,-1
EndSplineSet
Validated: 1
EndChar

StartChar: currency
Encoding: 164 164 102
Width: 1744
GlyphClass: 2
Flags: W
HStem: 224 138<659.844 986.828> 1155 139<757.775 1083.32>
VStem: 275 249<500.79 908.465> 1220 249<610.477 1016.2>
DStem2: 245 1499 100 1361 0.720349 -0.693612<0 432.069 1502.13 1936.16> 100 149 244 12 0.719844 0.694136<8.56101 376.866 1576.68 1944.86>
LayerCount: 2
Fore
SplineSet
100 149 m 1,0,-1
 367 407 l 1,1,2
 331 451 331 451 310 498 c 0,3,4
 282 564 282 564 276 662 c 0,5,6
 275 682 275 682 275 702 c 0,7,8
 275 761 275 761 288 814 c 0,9,10
 319 951 319 951 415 1057 c 1,11,-1
 100 1361 l 1,12,-1
 245 1499 l 1,13,-1
 565 1178 l 1,14,15
 622 1217 622 1217 684 1241 c 0,16,17
 816 1294 816 1294 942 1294 c 2,18,-1
 947 1294 l 2,19,20
 1071 1294 1071 1294 1164 1253 c 0,21,22
 1203 1236 1203 1236 1226 1223 c 1,23,-1
 1500 1499 l 1,24,-1
 1644 1361 l 1,25,-1
 1380 1107 l 1,26,27
 1420 1044 1420 1044 1431 1018 c 1,28,29
 1463 952 1463 952 1468 855 c 0,30,31
 1469 838 1469 838 1469 802 c 0,32,33
 1469 756 1469 756 1457 703 c 0,34,35
 1432 594 1432 594 1330 461 c 1,36,-1
 1326 456 l 1,37,-1
 1644 149 l 1,38,-1
 1501 12 l 1,39,-1
 1175 337 l 1,40,41
 1129 308 1129 308 1063 278 c 0,42,43
 943 224 943 224 811 224 c 2,44,-1
 797 224 l 2,45,46
 672 224 672 224 579 265 c 0,47,48
 545 280 545 280 523 292 c 1,49,-1
 244 12 l 1,50,-1
 100 149 l 1,0,-1
931 1155 m 2,51,-1
 919 1155 l 1,52,53
 844 1154 844 1154 787 1127 c 0,54,55
 663 1068 663 1068 592 959 c 0,56,57
 545 887 545 887 529 791 c 0,58,59
 524 762 524 762 524 718 c 0,60,61
 524 677 524 677 525 661 c 0,62,63
 530 581 530 581 562 514 c 1,64,65
 595 442 595 442 665 403 c 1,66,67
 742 362 742 362 812 362 c 2,68,-1
 822 362 l 2,69,70
 890 362 890 362 962 394 c 0,71,72
 1080 448 1080 448 1152 559 c 0,73,74
 1197 629 1197 629 1215 727 c 1,75,76
 1220 760 1220 760 1220 799 c 0,77,78
 1220 825 1220 825 1218 857 c 0,79,80
 1214 935 1214 935 1182 1004 c 0,81,82
 1152 1070 1152 1070 1077 1116 c 0,83,84
 1015 1155 1015 1155 931 1155 c 2,51,-1
EndSplineSet
Validated: 1
EndChar

StartChar: yen
Encoding: 165 165 103
Width: 1559
GlyphClass: 2
Flags: W
HStem: 0 21G<646 896> 482 200<232 501 1045 1324> 770 200<232 353 728 861 1198 1324> 1491 20G<50 335.165 1267.43 1509>
VStem: 50 274<1237 1511> 646 250<0 405> 1279 230<1281 1511>
DStem2: 324 1511 50 1511 0.474385 -0.880318<0 490.009> 966 970 1198 970 0.48477 0.874642<112.467 624.914>
LayerCount: 2
Fore
SplineSet
646 0 m 1,0,-1
 646 405 l 1,1,-1
 604 482 l 1,2,-1
 232 482 l 1,3,-1
 232 682 l 1,4,-1
 501 682 l 1,5,-1
 456 770 l 1,6,-1
 232 770 l 1,7,-1
 232 970 l 1,8,-1
 353 970 l 1,9,-1
 50 1511 l 1,10,-1
 324 1511 l 1,11,-1
 626 970 l 1,12,-1
 966 970 l 1,13,-1
 1279 1511 l 1,14,-1
 1509 1511 l 1,15,-1
 1198 970 l 1,16,-1
 1324 970 l 1,17,-1
 1324 770 l 1,18,-1
 1092 770 l 1,19,-1
 1045 682 l 1,20,-1
 1324 682 l 1,21,-1
 1324 482 l 1,22,-1
 941 482 l 1,23,-1
 896 405 l 1,24,-1
 896 0 l 1,25,-1
 646 0 l 1,0,-1
728 770 m 1,26,-1
 773 682 l 1,27,-1
 814 682 l 1,28,-1
 861 770 l 1,29,-1
 728 770 l 1,26,-1
EndSplineSet
Validated: 1
EndChar

StartChar: brokenbar
Encoding: 166 166 104
Width: 702
GlyphClass: 2
Flags: W
VStem: 250 202<-183 697 812 1687>
LayerCount: 2
Fore
SplineSet
250 -183 m 1,0,-1
 250 697 l 1,1,-1
 452 697 l 1,2,-1
 452 -183 l 1,3,-1
 250 -183 l 1,0,-1
250 812 m 1,4,-1
 250 1687 l 1,5,-1
 452 1687 l 1,6,-1
 452 812 l 1,7,-1
 250 812 l 1,4,-1
EndSplineSet
Validated: 1
EndChar

StartChar: section
Encoding: 167 167 105
Width: 1270
GlyphClass: 2
Flags: W
HStem: -20 174<503.246 744.859> 1357 174<525.141 766.754>
VStem: 150 224<678.422 846.019> 223 214<1146.47 1274.06> 833 214<236.938 364.528> 896 224<664.981 832.578>
LayerCount: 2
Fore
SplineSet
1020 1359 m 1,0,-1
 838 1225 l 1,1,-1
 810 1268 l 2,2,3
 794 1292 794 1292 759 1319 c 1,4,5
 706 1357 706 1357 651 1357 c 0,6,7
 647 1357 647 1357 641 1357 c 0,8,9
 602 1357 602 1357 550 1328 c 1,10,11
 507 1306 507 1306 479 1272 c 0,12,13
 450 1238 450 1238 438 1199 c 0,14,15
 437 1194 437 1194 437 1190 c 0,16,17
 438 1161 438 1161 476 1146 c 1,18,-1
 478 1146 l 1,19,20
 496 1141 496 1141 658 1113 c 0,21,22
 852 1079 852 1079 939 1044 c 0,23,24
 954 1038 954 1038 972 1029 c 0,25,26
 988 1021 988 1021 1016 1002 c 0,27,28
 1043 983 1043 983 1061 964 c 0,29,30
 1081 942 1081 942 1098 910 c 0,31,32
 1115 876 1115 876 1119 838 c 0,33,34
 1120 828 1120 828 1120 807 c 0,35,36
 1120 712 1120 712 1041 587 c 0,37,38
 1031 572 1031 572 1019 558 c 2,39,-1
 1015 553 l 1,40,-1
 810 618 l 1,41,-1
 821 630 l 1,42,43
 850 660 850 660 858 675 c 0,44,45
 896 740 896 740 896 781 c 0,46,47
 896 796 896 796 892 810 c 0,48,49
 882 853 882 853 804 874 c 1,50,51
 767 885 767 885 591 920 c 0,52,53
 577 923 577 923 552 929 c 0,54,55
 527 934 527 934 516 936 c 0,56,57
 372 965 372 965 301 1021 c 0,58,59
 223 1082 223 1082 223 1177 c 2,60,-1
 223 1189 l 1,61,62
 225 1272 225 1272 289 1353 c 0,63,64
 344 1422 344 1422 438 1474 c 0,65,66
 542 1531 542 1531 662 1531 c 2,67,-1
 670 1531 l 2,68,69
 760 1531 760 1531 854 1489 c 0,70,71
 919 1461 919 1461 978 1401 c 2,72,-1
 1020 1359 l 1,0,-1
250 152 m 1,73,-1
 432 286 l 1,74,-1
 460 243 l 2,75,76
 476 219 476 219 511 192 c 1,77,78
 564 154 564 154 619 154 c 0,79,80
 623 154 623 154 629 154 c 0,81,82
 668 154 668 154 720 183 c 1,83,84
 763 205 763 205 791 239 c 0,85,86
 820 273 820 273 832 312 c 0,87,88
 833 317 833 317 833 321 c 0,89,90
 832 350 832 350 794 365 c 1,91,-1
 792 365 l 1,92,93
 774 370 774 370 612 398 c 0,94,95
 418 432 418 432 331 467 c 0,96,97
 316 473 316 473 298 482 c 0,98,99
 282 490 282 490 254 509 c 0,100,101
 227 528 227 528 209 547 c 0,102,103
 189 569 189 569 172 601 c 0,104,105
 155 635 155 635 151 673 c 0,106,107
 150 683 150 683 150 704 c 0,108,109
 150 799 150 799 229 924 c 0,110,111
 239 939 239 939 251 953 c 2,112,-1
 255 958 l 1,113,-1
 460 893 l 1,114,-1
 449 881 l 1,115,116
 420 851 420 851 412 836 c 0,117,118
 374 771 374 771 374 730 c 0,119,120
 374 715 374 715 378 701 c 0,121,122
 388 658 388 658 466 637 c 1,123,124
 503 626 503 626 679 591 c 0,125,126
 693 588 693 588 718 582 c 0,127,128
 743 577 743 577 754 575 c 0,129,130
 898 546 898 546 969 490 c 0,131,132
 1047 429 1047 429 1047 334 c 2,133,-1
 1047 322 l 1,134,135
 1045 239 1045 239 981 158 c 0,136,137
 926 89 926 89 832 37 c 0,138,139
 728 -20 728 -20 608 -20 c 2,140,-1
 600 -20 l 2,141,142
 510 -20 510 -20 416 22 c 0,143,144
 351 50 351 50 292 110 c 2,145,-1
 250 152 l 1,73,-1
EndSplineSet
Validated: 1
EndChar

StartChar: dieresis
Encoding: 168 168 106
Width: 1011
GlyphClass: 2
Flags: W
HStem: 1206 305<194.349 406.105 604.349 815.105>
VStem: 150 302<1252.38 1464.62> 559 302<1252.41 1465.99>
LayerCount: 2
Fore
SplineSet
559 1359 m 0,0,1
 559 1421 559 1421 603 1466 c 0,2,3
 646 1511 646 1511 710 1511 c 0,4,5
 772 1511 772 1511 816 1466 c 0,6,7
 858 1424 858 1424 861 1360 c 1,8,9
 861 1295 861 1295 816.5 1250.5 c 128,-1,10
 772 1206 772 1206 710 1206 c 0,11,12
 646 1206 646 1206 603 1251 c 0,13,14
 559 1296 559 1296 559 1359 c 0,0,1
150 1359 m 0,15,16
 150 1422 150 1422 193 1466 c 0,17,18
 236 1511 236 1511 301 1511 c 0,19,20
 363 1511 363 1511 407 1466 c 0,21,22
 449 1424 449 1424 452 1360 c 1,23,24
 452 1295 452 1295 407.5 1250.5 c 128,-1,25
 363 1206 363 1206 301 1206 c 0,26,27
 236 1206 236 1206 193 1251 c 0,28,29
 150 1295 150 1295 150 1359 c 0,15,16
EndSplineSet
Validated: 1
EndChar

StartChar: copyright
Encoding: 169 169 107
Width: 1501
GlyphClass: 2
Flags: W
HStem: 170 179<557.331 944.321> 447 146<636.867 829.704> 922 146<677.915 874.062> 1161 180<554.872 947.25>
VStem: 150 174<577.218 933.768> 442 173<615.058 859.843> 1176 175<571.545 937.557>
LayerCount: 2
Fore
SplineSet
1029 636 m 1,0,-1
 994 586 l 1,1,2
 939 511 939 511 868 477 c 0,3,4
 806 447 806 447 728 447 c 2,5,-1
 721 447 l 2,6,7
 655 447 655 447 603 471 c 1,8,9
 548 498 548 498 514 533 c 1,10,11
 476 577 476 577 460 619 c 0,12,13
 446 657 446 657 443 706 c 0,14,15
 442 719 442 719 442 727 c 0,16,17
 442 729 442 729 442 730 c 0,18,19
 443 763 443 763 448 792 c 0,20,21
 462 863 462 863 515 930 c 0,22,23
 576 1007 576 1007 654 1039 c 0,24,25
 724 1068 724 1068 789 1068 c 2,26,-1
 790 1068 l 2,27,28
 861 1068 861 1068 920 1038 c 0,29,30
 988 1003 988 1003 1034 937 c 2,31,-1
 1041 927 l 1,32,-1
 897 840 l 1,33,-1
 890 854 l 2,34,35
 874 886 874 886 842 906 c 0,36,37
 816 922 816 922 785 922 c 2,38,-1
 778 922 l 2,39,40
 754 922 754 922 725 909 c 0,41,42
 676 886 676 886 642 838 c 0,43,44
 625 813 625 813 617 767 c 0,45,46
 615 756 615 756 615 738 c 0,47,48
 615 723 615 723 616 712 c 0,49,50
 618 674 618 674 630 648 c 0,51,52
 641 624 641 624 669 608.5 c 128,-1,53
 697 593 697 593 724 593 c 2,54,-1
 730 593 l 2,55,56
 763 593 763 593 798 614 c 1,57,58
 830 631 830 631 865 680 c 2,59,-1
 901 730 l 1,60,-1
 1029 636 l 1,0,-1
751 1341 m 0,61,62
 872 1341 872 1341 981 1297 c 0,63,64
 1087 1255 1087 1255 1176 1168 c 0,65,66
 1262 1084 1262 1084 1307 979 c 0,67,68
 1351 876 1351 876 1351 754 c 0,69,70
 1351 637 1351 637 1307 532 c 0,71,72
 1266 432 1266 432 1176 344 c 0,73,74
 1089 258 1089 258 981 214 c 0,75,76
 874 170 874 170 751 170 c 0,77,78
 629 170 629 170 520 214 c 0,79,80
 415 256 415 256 325 343 c 0,81,82
 238 427 238 427 194 531 c 128,-1,83
 150 635 150 635 150 754 c 0,84,85
 150 874 150 874 193.5 978.5 c 128,-1,86
 237 1083 237 1083 325 1168 c 0,87,88
 414 1254 414 1254 521 1297.5 c 128,-1,89
 628 1341 628 1341 751 1341 c 0,61,62
751 1161 m 256,90,91
 663 1161 663 1161 589 1131.5 c 128,-1,92
 515 1102 515 1102 452 1042 c 0,93,94
 388 981 388 981 356 909.5 c 128,-1,95
 324 838 324 838 324 759 c 2,96,-1
 324 754 l 2,97,98
 324 672 324 672 356 600 c 0,99,100
 386 533 386 533 452 469 c 0,101,102
 514 409 514 409 589 379 c 0,103,104
 665 349 665 349 751 349 c 128,-1,105
 837 349 837 349 913 379 c 0,106,107
 987 409 987 409 1051 469 c 0,108,109
 1114 529 1114 529 1145 599.5 c 128,-1,110
 1176 670 1176 670 1176 754 c 0,111,112
 1176 840 1176 840 1145 911 c 0,113,114
 1114 980 1114 980 1051 1042 c 0,115,116
 989 1102 989 1102 913 1132 c 0,117,118
 839 1161 839 1161 751 1161 c 256,90,91
EndSplineSet
Validated: 1
EndChar

StartChar: ordfeminine
Encoding: 170 170 108
Width: 1233
GlyphClass: 2
Flags: W
HStem: 656 200<150 1083> 901 147<511.621 675.039> 1378 153<545.386 698.704>
VStem: 302 184<1072.81 1318.08> 700 186<911 945 1130 1375.91>
LayerCount: 2
Fore
SplineSet
886 911 m 1,0,-1
 700 911 l 1,1,-1
 700 945 l 1,2,3
 659 901 659 901 594 901 c 2,4,-1
 593 901 l 2,5,6
 525 901 525 901 471 926 c 0,7,8
 412 954 412 954 377 989 c 0,9,10
 340 1026 340 1026 322 1069 c 0,11,12
 305 1108 305 1108 303 1165 c 0,13,14
 302 1176 302 1176 302 1186 c 0,15,16
 302 1220 302 1220 309 1251 c 0,17,18
 324 1320 324 1320 377 1390 c 1,19,20
 428 1455 428 1455 522 1499 c 0,21,22
 589 1531 589 1531 668 1531 c 0,23,24
 745 1531 745 1531 808 1482 c 0,25,26
 886 1421 886 1421 886 1313 c 2,27,-1
 886 911 l 1,0,-1
700 1130 m 1,28,-1
 701 1342 l 1,29,30
 699 1351 699 1351 697 1355 c 1,31,32
 696 1360 696 1360 693 1363 c 0,33,34
 682 1375 682 1375 659 1378 c 0,35,36
 654 1378 654 1378 650 1378 c 0,37,38
 627 1378 627 1378 602 1368 c 0,39,40
 547 1346 547 1346 516 1300 c 0,41,42
 498 1272 498 1272 489 1226 c 0,43,44
 486 1214 486 1214 486 1196 c 0,45,46
 486 1184 486 1184 487 1169 c 0,47,48
 489 1135 489 1135 503 1106 c 0,49,50
 514 1082 514 1082 545 1063 c 0,51,52
 569 1048 569 1048 600 1048 c 2,53,-1
 608 1048 l 2,54,55
 631 1048 631 1048 652 1064 c 0,56,57
 664 1073 664 1073 672 1086 c 2,58,-1
 700 1130 l 1,28,-1
1083 656 m 1,59,-1
 150 656 l 1,60,-1
 150 856 l 1,61,-1
 1083 856 l 1,62,-1
 1083 656 l 1,59,-1
EndSplineSet
Validated: 1
EndChar

StartChar: guillemotleft
Encoding: 171 171 109
Width: 1445
GlyphClass: 2
Flags: W
HStem: 90 335<388 723 910 1245> 1158 264<459 723 981 1245>
DStem2: 150 851 358 785 0.708342 0.705869<100.748 622.582> 358 785 150 660 0.70896 -0.705248<0 512.66> 672 851 880 785 0.708342 0.705869<100.748 622.582> 880 785 672 660 0.70896 -0.705248<0 512.66>
LayerCount: 2
Fore
SplineSet
1245 1422 m 1,0,-1
 1245 1158 l 1,1,-1
 880 785 l 1,2,-1
 1245 425 l 1,3,-1
 1245 90 l 1,4,-1
 672 660 l 1,5,-1
 672 851 l 1,6,-1
 1245 1422 l 1,0,-1
723 1422 m 1,7,-1
 723 1158 l 1,8,-1
 358 785 l 1,9,-1
 723 425 l 1,10,-1
 723 90 l 1,11,-1
 150 660 l 1,12,-1
 150 851 l 1,13,-1
 723 1422 l 1,7,-1
EndSplineSet
Validated: 1
EndChar

StartChar: logicalnot
Encoding: 172 172 110
Width: 1233
GlyphClass: 2
Flags: W
HStem: 479 377<883 1083> 656 200<150 883>
VStem: 883 200<479 656>
LayerCount: 2
Fore
SplineSet
1083 479 m 1,0,-1
 883 479 l 1,1,-1
 883 656 l 1,2,-1
 150 656 l 1,3,-1
 150 856 l 1,4,-1
 1083 856 l 1,5,-1
 1083 479 l 1,0,-1
EndSplineSet
Validated: 1
EndChar

StartChar: uni00AD
Encoding: 173 173 111
Width: 1233
GlyphClass: 2
Flags: W
HStem: 656 200<150 1083>
LayerCount: 2
Fore
SplineSet
1083 656 m 1,0,-1
 150 656 l 1,1,-1
 150 856 l 1,2,-1
 1083 856 l 1,3,-1
 1083 656 l 1,0,-1
EndSplineSet
Validated: 1
EndChar

StartChar: registered
Encoding: 174 174 112
Width: 1501
GlyphClass: 2
Flags: W
HStem: 170 179<557.331 944.86> 920 146<691.913 822.078> 1161 180<556.911 947.25>
VStem: 150 174<577.218 933.753> 504 172<454 577 702.879 903.809 1045 1056> 827 172<726.25 918.21> 1176 175<571.59 937.557>
LayerCount: 2
Fore
SplineSet
751 1341 m 0,0,1
 872 1341 872 1341 981 1297 c 0,2,3
 1087 1255 1087 1255 1176 1168 c 0,4,5
 1262 1084 1262 1084 1307 979 c 0,6,7
 1351 876 1351 876 1351 754 c 0,8,9
 1351 637 1351 637 1307 532 c 0,10,11
 1265 432 1265 432 1176 344 c 0,12,13
 1089 258 1089 258 981 214 c 0,14,15
 874 170 874 170 751 170 c 0,16,17
 629 170 629 170 520 214 c 0,18,19
 415 256 415 256 325 343 c 0,20,21
 238 427 238 427 194 531 c 128,-1,22
 150 635 150 635 150 754 c 0,23,24
 150 874 150 874 193.5 978.5 c 128,-1,25
 237 1083 237 1083 325 1168 c 0,26,27
 414 1254 414 1254 521 1297.5 c 128,-1,28
 628 1341 628 1341 751 1341 c 0,0,1
751 1161 m 256,29,30
 663 1161 663 1161 589.5 1131.5 c 128,-1,31
 516 1102 516 1102 452 1041.5 c 128,-1,32
 388 981 388 981 356 909.5 c 128,-1,33
 324 838 324 838 324 759 c 2,34,-1
 324 754 l 2,35,36
 324 672 324 672 356 600 c 0,37,38
 386 533 386 533 452 469 c 0,39,40
 514 409 514 409 589 379 c 0,41,42
 665 349 665 349 751 349 c 128,-1,43
 837 349 837 349 913 379 c 0,44,45
 976 404 976 404 1032 452 c 1,46,-1
 850 452 l 1,47,-1
 676 577 l 1,48,-1
 676 452 l 1,49,-1
 504 454 l 1,50,-1
 504 1056 l 1,51,-1
 676 1060 l 1,52,-1
 676 1045 l 1,53,54
 727 1066 727 1066 777 1066 c 2,55,-1
 778 1066 l 2,56,57
 831 1066 831 1066 872 1047 c 0,58,59
 915 1026 915 1026 943 995 c 256,60,61
 971 964 971 964 985 928 c 0,62,63
 996 898 996 898 999 851 c 1,64,-1
 999 831 l 2,65,66
 999 814 999 814 994 784 c 0,67,68
 985 725 985 725 943 671 c 0,69,70
 913 633 913 633 875 612 c 1,71,-1
 1061 479 l 1,72,73
 1117 535 1117 535 1145 599 c 0,74,75
 1176 670 1176 670 1176 754 c 0,76,77
 1176 840 1176 840 1145 911 c 0,78,79
 1114 980 1114 980 1051 1042 c 0,80,81
 989 1102 989 1102 913 1132 c 0,82,83
 839 1161 839 1161 751 1161 c 256,29,30
734 912 m 0,84,85
 709 898 709 898 695 880 c 0,86,87
 676 857 676 857 676 818 c 2,88,-1
 676 703 l 1,89,90
 685 702 685 702 697 702 c 2,91,-1
 704 702 l 2,92,93
 712 702 712 702 722 703 c 0,94,95
 743 705 743 705 762 713 c 0,96,97
 792 726 792 726 810 757 c 0,98,99
 822 778 822 778 826 806 c 0,100,101
 827 810 827 810 827 828 c 2,102,-1
 827 847 l 1,103,104
 826 871 826 871 818 890 c 0,105,106
 813 902 813 902 796 914 c 0,107,108
 786 920 786 920 771 920 c 2,109,-1
 768 920 l 2,110,111
 750 920 750 920 734 912 c 0,84,85
EndSplineSet
Validated: 1
EndChar

StartChar: macron
Encoding: 175 175 113
Width: 1233
GlyphClass: 2
Flags: W
HStem: 1311 200<150 1083>
LayerCount: 2
Fore
SplineSet
1083 1311 m 1,0,-1
 150 1311 l 1,1,-1
 150 1511 l 1,2,-1
 1083 1511 l 1,3,-1
 1083 1311 l 1,0,-1
EndSplineSet
Validated: 1
EndChar

StartChar: degree
Encoding: 176 176 114
Width: 1102
GlyphClass: 2
Flags: W
HStem: 880 167<430.253 651.847> 1338 173<447.708 672.747>
VStem: 150 238<1074.82 1278.59> 715 237<1109.64 1312.21>
LayerCount: 2
Fore
SplineSet
952 1237 m 0,0,1
 952 1194 952 1194 930 1143 c 0,2,3
 897 1065 897 1065 829 1003 c 0,4,5
 807 982 807 982 759 949 c 0,6,7
 659 880 659 880 498 880 c 2,8,-1
 494 880 l 2,9,10
 377 880 377 880 303 920 c 1,11,12
 215 969 215 969 177 1041 c 0,13,14
 150 1092 150 1092 150 1147 c 0,15,16
 150 1198 150 1198 173 1249 c 0,17,18
 207 1327 207 1327 274 1388 c 0,19,20
 300 1411 300 1411 346 1439 c 0,21,22
 460 1511 460 1511 604 1511 c 2,23,-1
 608 1511 l 2,24,25
 715 1511 715 1511 800 1467 c 0,26,27
 889 1420 889 1420 926 1350 c 0,28,29
 952 1300 952 1300 952 1237 c 0,0,1
432 1280 m 0,30,31
 388 1235 388 1235 388 1159 c 2,32,-1
 388 1153 l 2,33,34
 388 1100 388 1100 429 1074 c 1,35,36
 469 1047 469 1047 523 1047 c 0,37,38
 530 1047 530 1047 544 1049 c 0,39,40
 630 1060 630 1060 669 1108 c 1,41,42
 715 1160 715 1160 715 1231 c 2,43,-1
 715 1235 l 1,44,45
 714 1288 714 1288 674 1313 c 256,46,47
 634 1338 634 1338 582 1338 c 0,48,49
 573 1338 573 1338 557 1336 c 0,50,51
 480 1328 480 1328 432 1280 c 0,30,31
EndSplineSet
Validated: 1
EndChar

StartChar: plusminus
Encoding: 177 177 115
Width: 1233
GlyphClass: 2
Flags: W
HStem: 166 200<150 1083> 850 200<150 516 716 1083>
VStem: 516 200<484 850 1050 1416>
LayerCount: 2
Fore
SplineSet
1083 166 m 1,0,-1
 150 166 l 1,1,-1
 150 366 l 1,2,-1
 1083 366 l 1,3,-1
 1083 166 l 1,0,-1
516 484 m 1,4,-1
 516 850 l 1,5,-1
 150 850 l 1,6,-1
 150 1050 l 1,7,-1
 516 1050 l 1,8,-1
 516 1416 l 1,9,-1
 716 1416 l 1,10,-1
 716 1050 l 1,11,-1
 1083 1050 l 1,12,-1
 1083 850 l 1,13,-1
 716 850 l 1,14,-1
 716 484 l 1,15,-1
 516 484 l 1,4,-1
EndSplineSet
Validated: 1
EndChar

StartChar: uni00B2
Encoding: 178 178 116
Width: 986
GlyphClass: 2
Flags: W
HStem: 715 200<481 835> 1344 187<419.924 594.196>
VStem: 164 671<724.688 914.094> 608 228<1158.89 1328.76>
DStem2: 413 1072 481 915 0.85821 0.513298<-20.1041 253.353>
LayerCount: 2
Fore
SplineSet
835 715 m 1,0,-1
 216 715 l 1,1,-1
 193 746 l 1,2,3
 164 781 164 781 164 823 c 0,4,5
 164 878 164 878 219 933 c 0,6,7
 298 1012 298 1012 413 1072 c 0,8,9
 526 1131 526 1131 570 1163 c 0,10,11
 591 1179 591 1179 602 1210 c 0,12,13
 608 1227 608 1227 608 1247 c 2,14,-1
 608 1248 l 2,15,16
 608 1274 608 1274 595 1299 c 0,17,18
 585 1318 585 1318 558 1333 c 0,19,20
 539 1344 539 1344 511 1344 c 2,21,-1
 509 1344 l 2,22,23
 488 1344 488 1344 459 1330 c 0,24,25
 423 1312 423 1312 388 1259 c 0,26,27
 360 1216 360 1216 348 1164 c 1,28,-1
 345 1156 l 1,29,-1
 150 1264 l 1,30,-1
 188 1330 l 2,31,32
 196 1344 196 1344 217 1371 c 0,33,34
 284 1461 284 1461 370 1498 c 0,35,36
 445 1531 445 1531 520 1531 c 2,37,-1
 523 1531 l 1,38,39
 604 1530 604 1530 654 1506 c 0,40,41
 718 1476 718 1476 754 1440 c 0,42,43
 791 1403 791 1403 812 1358 c 1,44,45
 835 1312 835 1312 836 1261 c 1,46,-1
 836 1259 l 2,47,48
 836 1196 836 1196 813 1155 c 0,49,50
 777 1092 777 1092 706 1045 c 1,51,52
 617 984 617 984 523 938 c 0,53,54
 503 928 503 928 481 915 c 1,55,-1
 835 915 l 1,56,-1
 835 715 l 1,0,-1
EndSplineSet
Validated: 1
EndChar

StartChar: uni00B3
Encoding: 179 179 117
Width: 993
GlyphClass: 2
Flags: W
HStem: 705 171<385.039 570.438> 1130 157<415 536.809> 1368 163<441.487 541.06>
VStem: 619 224<923.969 1130.51>
LayerCount: 2
Fore
SplineSet
411 1294 m 1,0,1
 411 1294 411 1294 258 1373 c 1,2,-1
 280 1403 l 2,3,4
 295 1424 295 1424 336 1460 c 0,5,6
 358 1478 358 1478 379 1490 c 0,7,8
 454 1531 454 1531 537 1531 c 2,9,-1
 539 1531 l 1,10,11
 605 1530 605 1530 660 1502 c 0,12,13
 719 1472 719 1472 743 1426 c 0,14,15
 761 1392 761 1392 761 1356 c 0,16,17
 761 1325 761 1325 746 1291 c 0,18,19
 736 1268 736 1268 723 1250 c 1,20,21
 745 1237 745 1237 761 1224 c 0,22,23
 801 1190 801 1190 822 1146 c 0,24,25
 838 1113 838 1113 842 1058 c 0,26,27
 843 1043 843 1043 843 1037 c 0,28,29
 843 1002 843 1002 836 973 c 0,30,31
 819 908 819 908 763 841 c 0,32,33
 711 780 711 780 610 737 c 0,34,35
 535 705 535 705 464 705 c 0,36,37
 391 705 391 705 328 730 c 0,38,39
 267 754 267 754 228 789 c 0,40,41
 184 828 184 828 169 869 c 0,42,43
 161 890 161 890 158 903 c 2,44,-1
 150 948 l 1,45,-1
 356 1020 l 1,46,-1
 362 989 l 2,47,48
 372 940 372 940 385 919 c 0,49,50
 395 902 395 902 414 889 c 256,51,52
 433 876 433 876 461 876 c 0,53,54
 463 876 463 876 465 876 c 2,55,-1
 470 876 l 2,56,57
 497 876 497 876 522 888 c 0,58,59
 568 910 568 910 593 945 c 0,60,61
 609 967 609 967 617 1005 c 0,62,63
 619 1013 619 1013 619 1029 c 0,64,65
 619 1042 619 1042 618 1052 c 0,66,67
 615 1081 615 1081 605 1102 c 0,68,69
 596 1120 596 1120 571 1133 c 0,70,71
 552 1143 552 1143 521 1143 c 2,72,-1
 518 1143 l 2,73,74
 507 1143 507 1143 501 1142 c 2,75,-1
 415 1130 l 1,76,-1
 415 1287 l 1,77,78
 471 1290 471 1290 512 1310 c 0,79,80
 531 1319 531 1319 537 1329 c 0,81,82
 542 1337 542 1337 542 1350 c 2,83,-1
 542 1351 l 2,84,85
 542 1354 542 1354 542 1356 c 0,86,87
 539 1362 539 1362 534 1365 c 0,88,89
 528 1368 528 1368 522 1368 c 0,90,91
 513 1369 513 1369 504 1366 c 1,92,93
 494 1364 494 1364 475 1350 c 0,94,95
 446 1330 446 1330 411 1294 c 1,0,1
EndSplineSet
Validated: 1
EndChar

StartChar: acute
Encoding: 180 180 118
Width: 842
GlyphClass: 2
Flags: W
HStem: 969 542
VStem: 150 542
DStem2: 150 1110 291 969 0.707989 0.706223<0.248951 566.391>
LayerCount: 2
Fore
SplineSet
291 969 m 1,0,-1
 150 1110 l 1,1,-1
 550 1511 l 1,2,-1
 692 1369 l 1,3,-1
 291 969 l 1,0,-1
EndSplineSet
Validated: 1
EndChar

StartChar: uni00B5
Encoding: 181 181 119
Width: 1432
GlyphClass: 2
Flags: W
HStem: -410 21G<200 450> -20 186<487.971 773.383> 0 21G<982 1232> 1080 20G<200 450 982 1232>
VStem: 200 250<-410 2 217.881 1100> 982 250<0 128 366.786 1100>
LayerCount: 2
Fore
SplineSet
1232 0 m 1,0,-1
 982 0 l 1,1,-1
 982 128 l 1,2,3
 919 77 919 77 842 39 c 0,4,5
 724 -20 724 -20 575 -20 c 0,6,7
 510 -20 510 -20 450 2 c 1,8,-1
 450 -410 l 1,9,-1
 200 -410 l 1,10,-1
 200 1100 l 1,11,-1
 450 1100 l 1,12,-1
 450 300 l 1,13,-1
 450 298 l 1,14,15
 455 245 455 245 481 217 c 0,16,17
 525 171 525 171 582 167 c 0,18,19
 596 166 596 166 606 166 c 0,20,21
 672 166 672 166 730 190 c 0,22,23
 850 239 850 239 930 355 c 0,24,25
 982 430 982 430 982 516 c 2,26,-1
 982 1100 l 1,27,-1
 1232 1100 l 1,28,-1
 1232 0 l 1,0,-1
EndSplineSet
Validated: 1
EndChar

StartChar: paragraph
Encoding: 182 182 120
Width: 1347
GlyphClass: 2
Flags: W
HStem: 0 21G<897 978 1061 1147> 381 174<486.885 765.216> 1346 185<577.2 857.312>
VStem: 100 249<694.962 1111.6> 897 81<0 1232.54> 1061 86<0 1231.77>
LayerCount: 2
Fore
SplineSet
897 0 m 1,0,-1
 897 1210 l 1,1,-1
 897 1212 l 1,2,3
 892 1265 892 1265 866 1294 c 0,4,5
 829 1335 829 1335 763 1344 c 0,6,7
 749 1346 749 1346 735 1346 c 0,8,9
 678 1346 678 1346 618 1321 c 0,10,11
 487 1267 487 1267 417 1159 c 0,12,13
 375 1093 375 1093 355 989 c 0,14,15
 349 958 349 958 349 915 c 0,16,17
 349 890 349 890 351 857 c 0,18,19
 356 776 356 776 387 707 c 0,20,21
 417 642 417 642 494 594 c 0,22,23
 558 555 558 555 637 555 c 2,24,-1
 651 555 l 2,25,26
 719 555 719 555 776 599 c 0,27,28
 808 623 808 623 831 658 c 1,29,30
 831 658 831 658 844 680 c 1,31,-1
 849 655 l 2,32,33
 854 627 854 627 854 594 c 0,34,35
 854 521 854 521 805 463 c 0,36,37
 736 381 736 381 625 381 c 2,38,-1
 622 381 l 2,39,40
 501 381 501 381 403 426 c 0,41,42
 296 475 296 475 233 539 c 0,43,44
 167 605 167 605 135 683 c 0,45,46
 106 752 106 752 101 854 c 0,47,48
 100 875 100 875 100 894 c 0,49,50
 100 957 100 957 112 1013 c 0,51,52
 140 1140 140 1140 238 1269 c 0,53,54
 331 1390 331 1390 505 1473 c 0,55,56
 628 1531 628 1531 772 1531 c 0,57,58
 903 1531 903 1531 1014 1444 c 0,59,60
 1146 1341 1146 1341 1147 1145 c 1,61,-1
 1147 0 l 1,62,-1
 1061 0 l 1,63,-1
 1061 1234 l 1,64,-1
 978 1234 l 1,65,-1
 978 0 l 1,66,-1
 897 0 l 1,0,-1
EndSplineSet
Validated: 1
EndChar

StartChar: periodcentered
Encoding: 183 183 121
Width: 602
GlyphClass: 2
Flags: W
HStem: 601 305<194.349 406.105>
VStem: 150 302<647.38 859.62>
LayerCount: 2
Fore
SplineSet
150 754 m 0,0,1
 150 817 150 817 193 861 c 0,2,3
 236 906 236 906 301 906 c 0,4,5
 363 906 363 906 407 861 c 0,6,7
 449 819 449 819 452 755 c 1,8,9
 452 690 452 690 407.5 645.5 c 128,-1,10
 363 601 363 601 301 601 c 0,11,12
 236 601 236 601 193 646 c 0,13,14
 150 690 150 690 150 754 c 0,0,1
EndSplineSet
Validated: 1
EndChar

StartChar: cedilla
Encoding: 184 184 122
Width: 648
GlyphClass: 2
Flags: W
HStem: -410 613
VStem: 259 239<-182.071 1.02783>
LayerCount: 2
Fore
SplineSet
277 203 m 1,0,-1
 310 175 l 2,1,2
 347 144 347 144 397 96 c 0,3,4
 498 -2 498 -2 498 -130 c 0,5,6
 498 -232 498 -232 441 -304 c 0,7,8
 406 -348 406 -348 383 -371 c 2,9,-1
 346 -410 l 1,10,-1
 150 -245 l 1,11,-1
 176 -220 l 1,12,13
 259 -149 259 -149 259 -95 c 2,14,-1
 259 -92 l 2,15,16
 259 -43 259 -43 227 -9 c 2,17,18
 227 -9 227 -9 186 33 c 1,19,-1
 151 67 l 1,20,-1
 277 203 l 1,0,-1
EndSplineSet
Validated: 1
EndChar

StartChar: uni00B9
Encoding: 185 185 123
Width: 750
GlyphClass: 2
Flags: W
HStem: 1311 200<150 275>
VStem: 150 350<1311 1511> 275 225<706 1311>
LayerCount: 2
Fore
SplineSet
275 706 m 1,0,-1
 275 1311 l 1,1,-1
 150 1311 l 1,2,-1
 150 1511 l 1,3,-1
 500 1511 l 1,4,-1
 500 706 l 1,5,-1
 275 706 l 1,0,-1
EndSplineSet
Validated: 1
EndChar

StartChar: ordmasculine
Encoding: 186 186 124
Width: 1233
GlyphClass: 2
Flags: W
HStem: 656 200<150 1083> 901 147<501.621 699.438> 1384 147<539.83 739.277>
VStem: 292 184<1072.45 1319.61> 764 185<1112.29 1359.3>
LayerCount: 2
Fore
SplineSet
658 1531 m 1,0,1
 729 1530 729 1530 781 1506 c 0,2,3
 840 1478 840 1478 874 1444 c 0,4,5
 911 1407 911 1407 929 1363 c 0,6,7
 946 1324 946 1324 948 1267 c 0,8,9
 949 1256 949 1256 949 1241 c 0,10,11
 949 1212 949 1212 942 1181 c 0,12,13
 926 1108 926 1108 873 1042 c 0,14,15
 817 973 817 973 734 933 c 0,16,17
 666 901 666 901 589 901 c 2,18,19
 589 901 589 901 583 901 c 0,20,21
 515 901 515 901 461 926 c 0,22,23
 402 954 402 954 367 989 c 0,24,25
 330 1027 330 1027 312 1070 c 0,26,27
 295 1109 295 1109 292 1165 c 0,28,29
 292 1176 292 1176 292 1186 c 0,30,31
 292 1220 292 1220 299 1251 c 0,32,33
 315 1327 315 1327 368 1391 c 0,34,35
 431 1467 431 1467 514 1501 c 1,36,37
 590 1531 590 1531 656 1531 c 2,38,-1
 658 1531 l 1,0,1
643 1384 m 0,39,40
 609 1384 609 1384 583 1370 c 0,41,42
 535 1344 535 1344 505 1300 c 0,43,44
 486 1271 486 1271 479 1227 c 0,45,46
 476 1213 476 1213 476 1196 c 0,47,48
 476 1185 476 1185 477 1169 c 0,49,50
 479 1133 479 1133 492 1106 c 0,51,52
 506 1079 506 1079 532 1064 c 1,53,54
 563 1048 563 1048 592 1048 c 2,55,56
 592 1048 592 1048 595 1048 c 0,57,58
 624 1048 624 1048 655 1063 c 0,59,60
 704 1086 704 1086 735 1133 c 0,61,62
 754 1161 754 1161 762 1205 c 0,63,64
 764 1219 764 1219 764 1236 c 0,65,66
 764 1248 764 1248 763 1263 c 0,67,68
 761 1302 761 1302 749 1325 c 0,69,70
 735 1350 735 1350 705 1370 c 0,71,72
 683 1384 683 1384 649 1384 c 2,73,74
 649 1384 649 1384 643 1384 c 0,39,40
1083 656 m 1,75,-1
 150 656 l 1,76,-1
 150 856 l 1,77,-1
 1083 856 l 1,78,-1
 1083 656 l 1,75,-1
EndSplineSet
Validated: 1
EndChar

StartChar: guillemotright
Encoding: 187 187 125
Width: 1445
GlyphClass: 2
Flags: W
HStem: 89 264<200 464 722 986> 1086 335<200 535 722 1057>
DStem2: 200 1421 200 1086 0.70896 -0.705248<236.258 748.918> 200 353 200 89 0.708342 0.705869<0 521.834> 722 1421 722 1086 0.70896 -0.705248<236.258 748.918> 722 353 722 89 0.708342 0.705869<0 521.834>
LayerCount: 2
Fore
SplineSet
200 89 m 1,0,-1
 200 353 l 1,1,-1
 565 726 l 1,2,-1
 200 1086 l 1,3,-1
 200 1421 l 1,4,-1
 773 851 l 1,5,-1
 773 660 l 1,6,-1
 200 89 l 1,0,-1
722 89 m 1,7,-1
 722 353 l 1,8,-1
 1087 726 l 1,9,-1
 722 1086 l 1,10,-1
 722 1421 l 1,11,-1
 1295 851 l 1,12,-1
 1295 660 l 1,13,-1
 722 89 l 1,7,-1
EndSplineSet
Validated: 1
EndChar

StartChar: onequarter
Encoding: 188 188 126
Width: 1796
GlyphClass: 2
Flags: W
HStem: 0 21G<248 523.291 1321 1546> 149 160<1157 1321> 1311 200<150 275>
VStem: 150 350<1311 1511> 248 264<0 264> 275 225<606 1311> 1101 264<1247 1511> 1321 225<0 149 309 622>
DStem2: 248 0 512 0 0.491601 0.87082<129.783 1735.15>
LayerCount: 2
Fore
SplineSet
275 606 m 1,0,-1
 275 1311 l 1,1,-1
 150 1311 l 1,2,-1
 150 1511 l 1,3,-1
 500 1511 l 1,4,-1
 500 606 l 1,5,-1
 275 606 l 1,0,-1
1365 1511 m 1,6,-1
 512 0 l 1,7,-1
 248 0 l 1,8,-1
 1101 1511 l 1,9,-1
 1365 1511 l 1,6,-1
1546 0 m 1,10,-1
 1321 0 l 1,11,-1
 1321 149 l 1,12,-1
 904 149 l 1,13,-1
 913 233 l 1,14,15
 925 331 925 331 962 424 c 0,16,17
 1006 536 1006 536 1093 647 c 0,18,19
 1150 720 1150 720 1230 789 c 0,20,21
 1301 849 1301 849 1356 883 c 1,22,-1
 1374 896 l 1,23,-1
 1546 896 l 1,24,-1
 1546 0 l 1,10,-1
1157 309 m 1,25,-1
 1321 309 l 1,26,-1
 1320 622 l 1,27,-1
 1314 614 l 1,28,29
 1252 536 1252 536 1189 400 c 0,30,31
 1162 342 1162 342 1157 309 c 1,25,-1
EndSplineSet
Validated: 1
EndChar

StartChar: onehalf
Encoding: 189 189 127
Width: 1874
GlyphClass: 2
Flags: W
HStem: 0 200<1317 1673> 689 187<1257.22 1427.93> 1311 200<150 275>
VStem: 150 350<1311 1511> 248 264<0 264> 275 225<606 1311> 1002 671<0.421875 198.437> 1101 264<1247 1511> 1446 228<475.557 671.98>
DStem2: 248 0 512 0 0.491601 0.87082<129.783 1735.15>
LayerCount: 2
Fore
SplineSet
1365 1511 m 1,0,-1
 512 0 l 1,1,-1
 248 0 l 1,2,-1
 1101 1511 l 1,3,-1
 1365 1511 l 1,0,-1
1673 0 m 1,4,-1
 1040 0 l 1,5,-1
 1024 27 l 2,6,7
 1002 64 1002 64 1002 111 c 0,8,9
 1002 172 1002 172 1056 229 c 0,10,11
 1134 310 1134 310 1250 376 c 0,12,13
 1367 443 1367 443 1406 479 c 0,14,15
 1431 503 1431 503 1438 529 c 0,16,17
 1445 552 1445 552 1446 577 c 1,18,-1
 1446 578 l 2,19,20
 1446 608 1446 608 1434 636 c 0,21,22
 1424 658 1424 658 1395 677 c 0,23,24
 1377 689 1377 689 1349 689 c 2,25,-1
 1347 689 l 2,26,27
 1328 689 1328 689 1303 678 c 0,28,29
 1255 656 1255 656 1233 611 c 0,30,31
 1215 574 1215 574 1194 527 c 2,32,-1
 1182 501 l 1,33,-1
 987 608 l 1,34,-1
 1026 674 l 1,35,36
 1035 692 1035 692 1054 716 c 0,37,38
 1119 803 1119 803 1208 842 c 1,39,40
 1283 876 1283 876 1358 876 c 2,41,-1
 1360 876 l 2,42,43
 1434 876 1434 876 1492 849 c 0,44,45
 1553 820 1553 820 1592 781 c 1,46,47
 1631 740 1631 740 1650 694 c 1,48,49
 1674 640 1674 640 1674 584 c 2,50,-1
 1674 582 l 2,51,52
 1674 512 1674 512 1650 465 c 0,53,54
 1613 391 1613 391 1544 340 c 0,55,56
 1464 281 1464 281 1361 225 c 0,57,58
 1339 213 1339 213 1317 200 c 1,59,-1
 1673 200 l 1,60,-1
 1673 0 l 1,4,-1
275 606 m 1,61,-1
 275 1311 l 1,62,-1
 150 1311 l 1,63,-1
 150 1511 l 1,64,-1
 500 1511 l 1,65,-1
 500 606 l 1,66,-1
 275 606 l 1,61,-1
EndSplineSet
Validated: 1
EndChar

StartChar: threequarters
Encoding: 190 190 128
Width: 1976
GlyphClass: 2
Flags: W
HStem: 0 21G<436 711.476 1501 1726> 149 160<1337 1501> 705 171<385.039 570.438> 1130 157<415 536.809> 1368 163<441.487 541.06> 1491 20G<1291.52 1567>
VStem: 436 264<0 264> 619 224<923.969 1130.51> 1303 264<1247 1511> 1501 225<0 149 309 622>
DStem2: 436 0 700 0 0.497684 0.867359<131.388 1742.07>
LayerCount: 2
Fore
SplineSet
411 1294 m 1,0,1
 258 1373 l 1,2,-1
 280 1403 l 2,3,4
 295 1424 295 1424 336 1460 c 0,5,6
 358 1478 358 1478 379 1490 c 0,7,8
 454 1531 454 1531 537 1531 c 2,9,-1
 539 1531 l 1,10,11
 605 1530 605 1530 660 1502 c 0,12,13
 719 1472 719 1472 743 1426 c 0,14,15
 761 1392 761 1392 761 1356 c 0,16,17
 761 1325 761 1325 746 1291 c 0,18,19
 736 1268 736 1268 723 1250 c 1,20,21
 745 1237 745 1237 761 1224 c 0,22,23
 801 1190 801 1190 822 1146 c 0,24,25
 838 1113 838 1113 842 1058 c 0,26,27
 843 1043 843 1043 843 1037 c 0,28,29
 843 1002 843 1002 836 973 c 0,30,31
 819 908 819 908 763 841 c 0,32,33
 711 780 711 780 610 737 c 0,34,35
 535 705 535 705 464 705 c 0,36,37
 391 705 391 705 328 730 c 0,38,39
 267 754 267 754 228 789 c 0,40,41
 184 828 184 828 169 869 c 0,42,43
 161 890 161 890 158 903 c 2,44,-1
 150 948 l 1,45,-1
 356 1020 l 1,46,-1
 362 989 l 2,47,48
 372 940 372 940 385 919 c 0,49,50
 395 902 395 902 414 889 c 256,51,52
 433 876 433 876 461 876 c 0,53,54
 463 876 463 876 465 876 c 2,55,-1
 470 876 l 2,56,57
 497 876 497 876 522 888 c 0,58,59
 568 910 568 910 593 945 c 0,60,61
 609 967 609 967 617 1005 c 0,62,63
 619 1013 619 1013 619 1029 c 0,64,65
 619 1042 619 1042 618 1052 c 0,66,67
 615 1081 615 1081 605 1102 c 0,68,69
 596 1120 596 1120 571 1133 c 0,70,71
 552 1143 552 1143 521 1143 c 2,72,-1
 518 1143 l 2,73,74
 507 1143 507 1143 501 1142 c 2,75,-1
 415 1130 l 1,76,-1
 415 1287 l 1,77,78
 471 1290 471 1290 512 1310 c 0,79,80
 531 1319 531 1319 537 1329 c 0,81,82
 542 1337 542 1337 542 1350 c 2,83,-1
 542 1351 l 2,84,85
 542 1354 542 1354 542 1356 c 0,86,87
 539 1362 539 1362 534 1365 c 0,88,89
 528 1368 528 1368 522 1368 c 0,90,91
 513 1369 513 1369 504 1366 c 1,92,93
 494 1364 494 1364 475 1350 c 0,94,95
 446 1330 446 1330 411 1294 c 1,0,1
436 0 m 1,96,-1
 1303 1511 l 1,97,-1
 1567 1511 l 1,98,-1
 700 0 l 1,99,-1
 436 0 l 1,96,-1
1337 309 m 1,100,-1
 1501 309 l 1,101,-1
 1500 622 l 1,102,-1
 1494 614 l 1,103,104
 1432 536 1432 536 1369 400 c 0,105,106
 1343 342 1343 342 1337 309 c 1,100,-1
1726 0 m 1,107,-1
 1501 0 l 1,108,-1
 1501 149 l 1,109,-1
 1084 149 l 1,110,-1
 1093 233 l 1,111,112
 1106 331 1106 331 1142 424 c 0,113,114
 1186 536 1186 536 1273 647 c 0,115,116
 1331 720 1331 720 1411 789 c 0,117,118
 1481 849 1481 849 1536 883 c 1,119,-1
 1554 896 l 1,120,-1
 1726 896 l 1,121,-1
 1726 0 l 1,107,-1
EndSplineSet
Validated: 1
EndChar

StartChar: questiondown
Encoding: 191 191 129
Width: 1432
GlyphClass: 2
Flags: W
HStem: -20 174<543.898 855.257> 1226 305<714.895 926.651>
VStem: 150 256<297.488 641.235> 669 302<1272.38 1484.62>
LayerCount: 2
Fore
SplineSet
971 1379 m 0,0,1
 971 1315 971 1315 928 1271 c 0,2,3
 885 1226 885 1226 820 1226 c 0,4,5
 758 1226 758 1226 713 1271 c 0,6,7
 671 1313 671 1313 669 1378 c 1,8,9
 669 1442 669 1442 713.5 1486.5 c 128,-1,10
 758 1531 758 1531 820 1531 c 0,11,12
 885 1531 885 1531 928 1486 c 0,13,14
 971 1442 971 1442 971 1379 c 0,0,1
1282 377 m 1,15,-1
 1258 333 l 2,16,17
 1239 299 1239 299 1210 260 c 0,18,19
 1092 103 1092 103 942 38 c 0,20,21
 809 -20 809 -20 681 -20 c 2,22,-1
 677 -20 l 1,23,24
 548 -19 548 -19 457 23 c 0,25,26
 352 71 352 71 288 138 c 0,27,28
 226 202 226 202 190 286 c 0,29,30
 150 378 150 378 150 467 c 0,31,32
 150 587 150 587 186 670 c 0,33,34
 236 787 236 787 349 864 c 0,35,36
 484 955 484 955 577 1009 c 0,37,38
 638 1044 638 1044 698 1085 c 0,39,40
 734 1109 734 1109 720 1135 c 2,41,-1
 716 1143 l 1,42,-1
 918 1143 l 1,43,-1
 919 1135 l 2,44,45
 921 1123 921 1123 921 1109 c 2,46,-1
 921 1107 l 2,47,48
 921 1030 921 1030 822 953 c 0,49,50
 630 804 630 804 589 775 c 0,51,52
 468 689 468 689 428 604 c 0,53,54
 406 555 406 555 406 475 c 2,55,-1
 406 469 l 2,56,57
 406 396 406 396 442 314 c 0,58,59
 472 245 472 245 550 194 c 0,60,61
 611 154 611 154 698 154 c 2,62,-1
 706 154 l 2,63,64
 774 154 774 154 835 186 c 0,65,66
 960 250 960 250 1030 373 c 0,67,68
 1045 398 1045 398 1059 434 c 2,69,-1
 1080 487 l 1,70,-1
 1282 377 l 1,15,-1
EndSplineSet
Validated: 1
EndChar

StartChar: Agrave
Encoding: 192 192 130
Width: 1614
GlyphClass: 2
Flags: W
HStem: 0 21G<5 239.151 1329.7 1609> 671 200<627 936> 1491 20G<683.893 930.107>
VStem: 5 225<0 225> 1339 270<0 270>
DStem2: 5 0 230 0 0.414393 0.910098<93.2384 831.133 1050.45 1423.7> 648 2001 508 1859 0.709492 -0.704714<0.740546 417.222> 921 1511 781 1211 0.414393 -0.910098<215.014 588.679 808.408 1548.37>
LayerCount: 2
Fore
SplineSet
5 0 m 1,0,-1
 693 1511 l 1,1,-1
 921 1511 l 1,2,-1
 1609 0 l 1,3,-1
 1339 0 l 1,4,-1
 1027 671 l 1,5,-1
 537 671 l 1,6,-1
 230 0 l 1,7,-1
 5 0 l 1,0,-1
781 1211 m 1,8,-1
 627 871 l 1,9,-1
 936 871 l 1,10,-1
 781 1211 l 1,8,-1
802 1564 m 1,11,-1
 508 1859 l 1,12,-1
 648 2001 l 1,13,-1
 945 1706 l 1,14,-1
 802 1564 l 1,11,-1
EndSplineSet
Validated: 16385
EndChar

StartChar: Aacute
Encoding: 193 193 131
Width: 1614
GlyphClass: 2
Flags: W
HStem: 0 21G<5 239.151 1329.7 1609> 671 200<627 936> 1491 20G<683.893 930.107>
VStem: 5 225<0 225> 1339 270<0 270>
DStem2: 5 0 230 0 0.414393 0.910098<93.2384 831.133 1050.45 1423.7> 664 1706 807 1564 0.709492 0.704714<1.38793 417.869> 921 1511 781 1211 0.414393 -0.910098<215.014 588.679 808.408 1548.37>
LayerCount: 2
Fore
SplineSet
807 1564 m 1,0,-1
 664 1706 l 1,1,-1
 961 2001 l 1,2,-1
 1101 1859 l 1,3,-1
 807 1564 l 1,0,-1
5 0 m 1,4,-1
 693 1511 l 1,5,-1
 921 1511 l 1,6,-1
 1609 0 l 1,7,-1
 1339 0 l 1,8,-1
 1027 671 l 1,9,-1
 537 671 l 1,10,-1
 230 0 l 1,11,-1
 5 0 l 1,4,-1
781 1211 m 1,12,-1
 627 871 l 1,13,-1
 936 871 l 1,14,-1
 781 1211 l 1,12,-1
EndSplineSet
Validated: 16385
EndChar

StartChar: Acircumflex
Encoding: 194 194 132
Width: 1614
GlyphClass: 2
Flags: W
HStem: 0 21G<5 239.151 1329.7 1609> 671 200<627 936> 1491 20G<683.893 930.107> 1717 284<660 944>
VStem: 5 225<0 225> 1339 270<0 270>
DStem2: 5 0 230 0 0.414393 0.910098<93.2384 831.133 1050.45 1423.7> 921 1511 781 1211 0.414393 -0.910098<215.014 588.679 808.408 1548.37>
LayerCount: 2
Fore
SplineSet
781 1211 m 1,0,-1
 627 871 l 1,1,-1
 936 871 l 1,2,-1
 781 1211 l 1,0,-1
5 0 m 1,3,-1
 693 1511 l 1,4,-1
 921 1511 l 1,5,-1
 1609 0 l 1,6,-1
 1339 0 l 1,7,-1
 1027 671 l 1,8,-1
 537 671 l 1,9,-1
 230 0 l 1,10,-1
 5 0 l 1,3,-1
802 1717 m 1,11,-1
 648 1564 l 1,12,-1
 508 1706 l 1,13,-1
 802 2001 l 1,14,-1
 1096 1706 l 1,15,-1
 956 1564 l 1,16,-1
 802 1717 l 1,11,-1
EndSplineSet
Validated: 16385
EndChar

StartChar: Atilde
Encoding: 195 195 133
Width: 1614
GlyphClass: 2
Flags: W
HStem: 0 21G<5 239.151 1329.7 1609> 671 200<627 936> 1491 20G<683.893 930.107>
VStem: 5 225<0 225> 1339 270<0 270>
DStem2: 5 0 230 0 0.414393 0.910098<93.2384 831.133 1050.45 1423.7> 921 1511 781 1211 0.414393 -0.910098<215.014 588.679 808.408 1548.37>
LayerCount: 2
Fore
SplineSet
5 0 m 1,0,-1
 693 1511 l 1,1,-1
 921 1511 l 1,2,-1
 1609 0 l 1,3,-1
 1339 0 l 1,4,-1
 1027 671 l 1,5,-1
 537 671 l 1,6,-1
 230 0 l 1,7,-1
 5 0 l 1,0,-1
781 1211 m 1,8,-1
 627 871 l 1,9,-1
 936 871 l 1,10,-1
 781 1211 l 1,8,-1
1168 1822 m 1,11,12
 1129 1693 1129 1693 1037 1634 c 0,13,14
 990 1603 990 1603 932 1603 c 0,15,16
 899 1603 899 1603 860 1621 c 0,17,18
 843 1629 843 1629 812 1660 c 1,19,-1
 717 1760 l 2,20,21
 712 1765 712 1765 706.5 1765 c 128,-1,22
 701 1765 701 1765 694 1758 c 0,23,24
 669 1731 669 1731 663 1656 c 2,25,-1
 662 1641 l 1,26,-1
 492 1727 l 1,27,-1
 495 1735 l 1,28,29
 550 1904 550 1904 651 1947 c 0,30,31
 679 1959 679 1959 720 1960 c 0,32,33
 752 1960 752 1960 778 1951 c 0,34,35
 816 1938 816 1938 838 1917 c 2,36,-1
 944 1817 l 2,37,38
 951 1811 951 1811 954 1810.5 c 128,-1,39
 957 1810 957 1810 958 1810 c 0,40,41
 963 1812 963 1812 968 1817 c 0,42,43
 988 1837 988 1837 996 1908 c 1,44,-1
 998 1923 l 1,45,-1
 1170 1830 l 1,46,-1
 1168 1822 l 1,11,12
EndSplineSet
Validated: 16385
EndChar

StartChar: Adieresis
Encoding: 196 196 134
Width: 1614
GlyphClass: 2
Flags: W
HStem: 0 21G<5 239.151 1329.7 1609> 671 200<627 936> 1491 20G<683.893 930.107> 1610 305<521.349 733.105 870.349 1081.11>
VStem: 5 225<0 225> 477 302<1656.38 1868.62> 825 302<1656.41 1869.99> 1339 270<0 270>
DStem2: 5 0 230 0 0.414393 0.910098<93.2384 831.133 1050.45 1423.7> 921 1511 781 1211 0.414393 -0.910098<215.014 588.679 808.408 1548.37>
LayerCount: 2
Fore
SplineSet
5 0 m 1,0,-1
 693 1511 l 1,1,-1
 921 1511 l 1,2,-1
 1609 0 l 1,3,-1
 1339 0 l 1,4,-1
 1027 671 l 1,5,-1
 537 671 l 1,6,-1
 230 0 l 1,7,-1
 5 0 l 1,0,-1
781 1211 m 1,8,-1
 627 871 l 1,9,-1
 936 871 l 1,10,-1
 781 1211 l 1,8,-1
825 1763 m 0,11,12
 825 1825 825 1825 869 1870 c 0,13,14
 912 1915 912 1915 976 1915 c 0,15,16
 1038 1915 1038 1915 1082 1870 c 0,17,18
 1124 1828 1124 1828 1127 1764 c 1,19,20
 1127 1699 1127 1699 1082.5 1654.5 c 128,-1,21
 1038 1610 1038 1610 976 1610 c 0,22,23
 912 1610 912 1610 869 1655 c 0,24,25
 825 1700 825 1700 825 1763 c 0,11,12
477 1763 m 0,26,27
 477 1826 477 1826 520 1870 c 0,28,29
 563 1915 563 1915 628 1915 c 0,30,31
 690 1915 690 1915 734 1870 c 0,32,33
 776 1828 776 1828 779 1764 c 1,34,35
 779 1699 779 1699 734.5 1654.5 c 128,-1,36
 690 1610 690 1610 628 1610 c 0,37,38
 563 1610 563 1610 520 1655 c 0,39,40
 477 1699 477 1699 477 1763 c 0,26,27
EndSplineSet
Validated: 16385
EndChar

StartChar: Aring
Encoding: 197 197 135
Width: 1614
GlyphClass: 2
Flags: W
HStem: 0 21G<5 239.151 1329.7 1609> 671 200<627 936> 1491 20G<683.893 930.107> 1573 147<781.345 874.433> 1846 152<791.533 882.907>
VStem: 5 225<0 225> 587 185<1727.19 1819.28> 884 184<1723.84 1830.97> 1339 270<0 270>
DStem2: 5 0 230 0 0.414393 0.910098<93.2384 831.133 1050.45 1423.7> 921 1511 781 1211 0.414393 -0.910098<215.014 588.679 808.408 1548.37>
LayerCount: 2
Fore
SplineSet
5 0 m 1,0,-1
 693 1511 l 1,1,-1
 921 1511 l 1,2,-1
 1609 0 l 1,3,-1
 1339 0 l 1,4,-1
 1027 671 l 1,5,-1
 537 671 l 1,6,-1
 230 0 l 1,7,-1
 5 0 l 1,0,-1
781 1211 m 1,8,-1
 627 871 l 1,9,-1
 936 871 l 1,10,-1
 781 1211 l 1,8,-1
832 1845 m 0,11,12
 808 1841 808 1841 791 1820 c 0,13,14
 772 1797 772 1797 772 1754 c 2,15,-1
 772 1751 l 2,16,17
 772 1733 772 1733 781 1727 c 256,18,19
 792 1720 792 1720 809 1720 c 2,20,-1
 825 1720 l 1,21,22
 846 1722 846 1722 863 1744 c 0,23,24
 884 1771 884 1771 884 1813 c 2,25,-1
 884 1816 l 2,26,27
 884 1830 884 1830 883 1831 c 0,28,29
 880 1835 880 1835 879 1836 c 0,30,31
 867 1846 867 1846 851 1846 c 0,32,33
 837 1846 837 1846 832 1845 c 0,11,12
786 1573 m 24,34,35
 726 1573 726 1573 683 1598 c 0,36,37
 627 1631 627 1631 604 1681 c 0,38,39
 587 1717 587 1717 587 1756 c 0,40,41
 587 1790 587 1790 602 1828 c 0,42,43
 617 1867 617 1867 661 1917 c 0,44,45
 677 1935 677 1935 701 1951 c 0,46,47
 768 1998 768 1998 854 1998 c 2,48,-1
 856 1998 l 2,49,50
 921 1998 921 1998 972 1968 c 0,51,52
 1028 1934 1028 1934 1050 1887 c 0,53,54
 1068 1849 1068 1849 1068 1806 c 0,55,56
 1068 1776 1068 1776 1054 1740 c 0,57,58
 1036 1693 1036 1693 993 1646 c 0,59,60
 982 1634 982 1634 955 1617 c 0,61,62
 889 1574 889 1574 786 1573 c 24,34,35
EndSplineSet
Validated: 16385
EndChar

StartChar: AE
Encoding: 198 198 136
Width: 2658
GlyphClass: 2
Flags: W
HStem: -20 173<1638.65 2017.75> 0 21G<5 239.151 1329.7 1609> 671 200<627 936 1404 2198> 1357 174<1790.06 2206.7> 1491 20G<683.893 930.085>
VStem: 5 225<0 225>
DStem2: 5 0 230 0 0.414393 0.910098<93.2384 831.133 1050.45 1423.7> 921 1511 781 1211 0.414393 -0.910098<215.014 588.679 1025.99 1398.07> 2352 462 2522 337 0.577465 0.816416<-256.307 46.0976>
LayerCount: 2
Fore
SplineSet
781 1211 m 1,0,-1
 627 871 l 1,1,-1
 936 871 l 1,2,-1
 781 1211 l 1,0,-1
5 0 m 1,3,-1
 693 1511 l 1,4,-1
 921 1511 l 1,5,-1
 1179 943 l 1,6,7
 1226 1068 1226 1068 1317 1181 c 0,8,9
 1477 1380 1477 1380 1674 1459 c 0,10,11
 1852 1531 1852 1531 2023 1531 c 2,12,-1
 2027 1531 l 1,13,14
 2196 1530 2196 1530 2318 1472 c 0,15,16
 2445 1412 2445 1412 2534 1320 c 2,17,-1
 2578 1274 l 1,18,-1
 2378 1157 l 1,19,-1
 2352 1194 l 2,20,21
 2314 1249 2314 1249 2241 1294 c 0,22,23
 2137 1357 2137 1357 2011 1357 c 2,24,-1
 1992 1357 l 2,25,26
 1888 1357 1888 1357 1782 1309 c 0,27,28
 1604 1228 1604 1228 1486 1065 c 0,29,30
 1435 994 1435 994 1404 871 c 1,31,-1
 2198 871 l 1,32,-1
 2198 671 l 1,33,-1
 1382 671 l 1,34,35
 1384 628 1384 628 1386 608 c 0,36,37
 1397 478 1397 478 1441 383 c 0,38,39
 1491 277 1491 277 1607 213 c 0,40,41
 1717 153 1717 153 1832 153 c 2,42,-1
 1849 153 l 2,43,44
 1925 153 1925 153 2054 212 c 0,45,46
 2229 293 2229 293 2352 462 c 1,47,-1
 2381 503 l 1,48,-1
 2552 377 l 1,49,-1
 2522 337 l 2,50,51
 2395 167 2395 167 2179 58 c 0,52,53
 2024 -20 2024 -20 1844 -20 c 2,54,-1
 1823 -20 l 2,55,56
 1703 -20 1703 -20 1604 11 c 1,57,-1
 1609 0 l 1,58,-1
 1339 0 l 1,59,-1
 1027 671 l 1,60,-1
 537 671 l 1,61,-1
 230 0 l 1,62,-1
 5 0 l 1,3,-1
EndSplineSet
Validated: 16385
EndChar

StartChar: Ccedilla
Encoding: 199 199 137
Width: 1627
GlyphClass: 2
Flags: W
HStem: -410 21G<778.527 820.974> 1357 174<761.704 1175.7>
VStem: 100 251<419.184 929.614> 715 239<-180.973 -15.0337>
DStem2: 1321 462 1491 337 0.59051 0.80703<-266.267 50.213>
LayerCount: 2
Fore
SplineSet
1521 378 m 1,0,-1
 1491 337 l 1,1,2
 1365 167 1365 167 1147 58 c 0,3,4
 1043 6 1043 6 928 -11 c 1,5,6
 954 -72 954 -72 954 -150 c 0,7,8
 954 -234 954 -234 897 -303 c 0,9,10
 857 -352 857 -352 839 -371 c 2,11,-1
 802 -410 l 1,12,-1
 606 -243 l 1,13,-1
 632 -219 l 1,14,15
 715 -147 715 -147 715 -93 c 2,16,-1
 715 -90 l 2,17,18
 715 -47 715 -47 689 -14 c 1,19,20
 587 -1 587 -1 502 38 c 0,21,22
 354 106 354 106 277 190 c 24,23,24
 185 291 185 291 145 397 c 0,25,26
 109 492 109 492 102 614 c 0,27,28
 100 647 100 647 100 673 c 0,29,30
 101 755 101 755 116 830 c 0,31,32
 154 1014 154 1014 286 1178 c 0,33,34
 443 1372 443 1372 643 1455 c 0,35,36
 827 1531 827 1531 992 1531 c 2,37,-1
 996 1531 l 1,38,39
 1165 1530 1165 1530 1287 1472 c 0,40,41
 1416 1411 1416 1411 1503 1320 c 2,42,-1
 1547 1274 l 1,43,-1
 1347 1157 l 1,44,-1
 1321 1194 l 2,45,46
 1281 1251 1281 1251 1210 1294 c 0,47,48
 1106 1357 1106 1357 980 1357 c 2,49,-1
 961 1357 l 2,50,51
 859 1357 859 1357 751 1308 c 0,52,53
 572 1226 572 1226 455 1061 c 0,54,55
 394 975 394 975 360 806 c 0,56,57
 351 761 351 761 351 699 c 0,58,59
 351 660 351 660 355 612 c 0,60,61
 367 471 367 471 410 385 c 0,62,63
 470 267 470 267 564 214 c 0,64,65
 673 153 673 153 801 153 c 2,66,-1
 818 153 l 2,67,68
 977 153 977 153 1128 268 c 0,69,70
 1243 353 1243 353 1321 462 c 1,71,-1
 1350 503 l 1,72,-1
 1521 378 l 1,0,-1
EndSplineSet
Validated: 1
EndChar

StartChar: Egrave
Encoding: 200 200 138
Width: 1627
GlyphClass: 2
Flags: W
HStem: -20 173<592.422 1007.59> 671 200<373 1167> 1357 174<759.059 1175.7>
VStem: 100 251<417.723 671>
DStem2: 844 2001 704 1859 0.695141 -0.718873<4.76019 418.525> 1321 462 1491 337 0.577465 0.816416<-256.347 46.0976>
LayerCount: 2
Fore
SplineSet
1521 377 m 1,0,-1
 1491 337 l 2,1,2
 1364 167 1364 167 1148 58 c 0,3,4
 993 -20 993 -20 813 -20 c 2,5,-1
 792 -20 l 2,6,7
 626 -20 626 -20 502 38 c 0,8,9
 355 107 355 107 277 189 c 0,10,11
 187 285 187 285 146 395 c 1,12,13
 110 486 110 486 102 616 c 0,14,15
 100 652 100 652 100 675 c 0,16,17
 101 758 101 758 116 832 c 0,18,19
 155 1018 155 1018 286 1181 c 0,20,21
 447 1380 447 1380 643 1459 c 0,22,23
 821 1531 821 1531 992 1531 c 2,24,-1
 996 1531 l 1,25,26
 1165 1530 1165 1530 1287 1472 c 0,27,28
 1416 1411 1416 1411 1503 1320 c 2,29,-1
 1547 1274 l 1,30,-1
 1347 1157 l 1,31,-1
 1321 1194 l 1,32,33
 1283 1250 1283 1250 1210 1294 c 0,34,35
 1107 1357 1107 1357 980 1357 c 2,36,-1
 961 1357 l 2,37,38
 857 1357 857 1357 751 1309 c 0,39,40
 573 1228 573 1228 455 1065 c 0,41,42
 404 994 404 994 373 871 c 1,43,-1
 1167 871 l 1,44,-1
 1167 671 l 1,45,-1
 351 671 l 1,46,47
 353 628 353 628 355 608 c 0,48,49
 367 471 367 471 410 383 c 0,50,51
 468 265 468 265 566 210 c 0,52,53
 670 153 670 153 801 153 c 2,54,-1
 818 153 l 2,55,56
 929 153 929 153 1052 218 c 0,57,58
 1196 294 1196 294 1321 462 c 1,59,-1
 1350 503 l 1,60,-1
 1521 377 l 1,0,-1
998 1564 m 1,61,-1
 704 1859 l 1,62,-1
 844 2001 l 1,63,-1
 1141 1706 l 1,64,-1
 998 1564 l 1,61,-1
EndSplineSet
Validated: 1
EndChar

StartChar: Eacute
Encoding: 201 201 139
Width: 1627
GlyphClass: 2
Flags: W
HStem: -20 173<592.422 1007.59> 671 200<373 1167> 1357 174<759.059 1175.7>
VStem: 100 251<417.723 671>
DStem2: 851 1706 994 1564 0.709492 0.704714<1.38793 417.869> 1321 462 1491 337 0.577465 0.816416<-256.347 46.0976>
LayerCount: 2
Fore
SplineSet
1521 377 m 1,0,-1
 1491 337 l 2,1,2
 1364 167 1364 167 1148 58 c 0,3,4
 993 -20 993 -20 813 -20 c 2,5,-1
 792 -20 l 2,6,7
 626 -20 626 -20 502 38 c 0,8,9
 355 107 355 107 277 189 c 0,10,11
 187 285 187 285 146 395 c 1,12,13
 110 486 110 486 102 616 c 0,14,15
 100 652 100 652 100 675 c 0,16,17
 101 758 101 758 116 832 c 0,18,19
 155 1018 155 1018 286 1181 c 0,20,21
 447 1380 447 1380 643 1459 c 0,22,23
 821 1531 821 1531 992 1531 c 2,24,-1
 996 1531 l 1,25,26
 1165 1530 1165 1530 1287 1472 c 0,27,28
 1416 1411 1416 1411 1503 1320 c 2,29,-1
 1547 1274 l 1,30,-1
 1347 1157 l 1,31,-1
 1321 1194 l 1,32,33
 1283 1250 1283 1250 1210 1294 c 0,34,35
 1107 1357 1107 1357 980 1357 c 2,36,-1
 961 1357 l 2,37,38
 857 1357 857 1357 751 1309 c 0,39,40
 573 1228 573 1228 455 1065 c 0,41,42
 404 994 404 994 373 871 c 1,43,-1
 1167 871 l 1,44,-1
 1167 671 l 1,45,-1
 351 671 l 1,46,47
 353 628 353 628 355 608 c 0,48,49
 367 471 367 471 410 383 c 0,50,51
 468 265 468 265 566 210 c 0,52,53
 670 153 670 153 801 153 c 2,54,-1
 818 153 l 2,55,56
 929 153 929 153 1052 218 c 0,57,58
 1196 294 1196 294 1321 462 c 1,59,-1
 1350 503 l 1,60,-1
 1521 377 l 1,0,-1
994 1564 m 1,61,-1
 851 1706 l 1,62,-1
 1148 2001 l 1,63,-1
 1288 1859 l 1,64,-1
 994 1564 l 1,61,-1
EndSplineSet
Validated: 1
EndChar

StartChar: Ecircumflex
Encoding: 202 202 140
Width: 1627
GlyphClass: 2
Flags: W
HStem: -20 173<592.422 1007.59> 671 200<373 1167> 1357 174<759.059 1175.7> 1717 284<855 1139>
VStem: 100 251<417.723 671>
DStem2: 1321 462 1491 337 0.577465 0.816416<-256.347 46.0976>
LayerCount: 2
Fore
SplineSet
1521 377 m 1,0,-1
 1491 337 l 2,1,2
 1364 167 1364 167 1148 58 c 0,3,4
 993 -20 993 -20 813 -20 c 2,5,-1
 792 -20 l 2,6,7
 626 -20 626 -20 502 38 c 0,8,9
 355 107 355 107 277 189 c 0,10,11
 187 285 187 285 146 395 c 1,12,13
 110 486 110 486 102 616 c 0,14,15
 100 652 100 652 100 675 c 0,16,17
 101 758 101 758 116 832 c 0,18,19
 155 1018 155 1018 286 1181 c 0,20,21
 447 1380 447 1380 643 1459 c 0,22,23
 821 1531 821 1531 992 1531 c 2,24,-1
 996 1531 l 1,25,26
 1165 1530 1165 1530 1287 1472 c 0,27,28
 1416 1411 1416 1411 1503 1320 c 2,29,-1
 1547 1274 l 1,30,-1
 1347 1157 l 1,31,-1
 1321 1194 l 1,32,33
 1283 1250 1283 1250 1210 1294 c 0,34,35
 1107 1357 1107 1357 980 1357 c 2,36,-1
 961 1357 l 2,37,38
 857 1357 857 1357 751 1309 c 0,39,40
 573 1228 573 1228 455 1065 c 0,41,42
 404 994 404 994 373 871 c 1,43,-1
 1167 871 l 1,44,-1
 1167 671 l 1,45,-1
 351 671 l 1,46,47
 353 628 353 628 355 608 c 0,48,49
 367 471 367 471 410 383 c 0,50,51
 468 265 468 265 566 210 c 0,52,53
 670 153 670 153 801 153 c 2,54,-1
 818 153 l 2,55,56
 929 153 929 153 1052 218 c 0,57,58
 1196 294 1196 294 1321 462 c 1,59,-1
 1350 503 l 1,60,-1
 1521 377 l 1,0,-1
997 1717 m 1,61,-1
 843 1564 l 1,62,-1
 703 1706 l 1,63,-1
 997 2001 l 1,64,-1
 1291 1706 l 1,65,-1
 1151 1564 l 1,66,-1
 997 1717 l 1,61,-1
EndSplineSet
Validated: 1
EndChar

StartChar: Edieresis
Encoding: 203 203 141
Width: 1627
GlyphClass: 2
Flags: W
HStem: -20 173<592.422 1007.59> 671 200<373 1167> 1357 174<759.059 1175.7> 1610 305<721.349 933.105 1070.35 1281.11>
VStem: 100 251<417.723 671> 677 302<1656.38 1868.62> 1025 302<1656.41 1869.99>
DStem2: 1321 462 1491 337 0.577465 0.816416<-256.347 46.0976>
LayerCount: 2
Fore
SplineSet
1521 377 m 1,0,-1
 1491 337 l 2,1,2
 1364 167 1364 167 1148 58 c 0,3,4
 993 -20 993 -20 813 -20 c 2,5,-1
 792 -20 l 2,6,7
 626 -20 626 -20 502 38 c 0,8,9
 355 107 355 107 277 189 c 0,10,11
 187 285 187 285 146 395 c 1,12,13
 110 486 110 486 102 616 c 0,14,15
 100 652 100 652 100 675 c 0,16,17
 101 758 101 758 116 832 c 0,18,19
 155 1018 155 1018 286 1181 c 0,20,21
 447 1380 447 1380 643 1459 c 0,22,23
 821 1531 821 1531 992 1531 c 2,24,-1
 996 1531 l 1,25,26
 1165 1530 1165 1530 1287 1472 c 0,27,28
 1416 1411 1416 1411 1503 1320 c 2,29,-1
 1547 1274 l 1,30,-1
 1347 1157 l 1,31,-1
 1321 1194 l 1,32,33
 1283 1250 1283 1250 1210 1294 c 0,34,35
 1107 1357 1107 1357 980 1357 c 2,36,-1
 961 1357 l 2,37,38
 857 1357 857 1357 751 1309 c 0,39,40
 573 1228 573 1228 455 1065 c 0,41,42
 404 994 404 994 373 871 c 1,43,-1
 1167 871 l 1,44,-1
 1167 671 l 1,45,-1
 351 671 l 1,46,47
 353 628 353 628 355 608 c 0,48,49
 367 471 367 471 410 383 c 0,50,51
 468 265 468 265 566 210 c 0,52,53
 670 153 670 153 801 153 c 2,54,-1
 818 153 l 2,55,56
 929 153 929 153 1052 218 c 0,57,58
 1196 294 1196 294 1321 462 c 1,59,-1
 1350 503 l 1,60,-1
 1521 377 l 1,0,-1
1025 1763 m 0,61,62
 1025 1825 1025 1825 1069 1870 c 0,63,64
 1112 1915 1112 1915 1176 1915 c 0,65,66
 1238 1915 1238 1915 1282 1870 c 0,67,68
 1324 1828 1324 1828 1327 1764 c 1,69,70
 1327 1699 1327 1699 1282.5 1654.5 c 128,-1,71
 1238 1610 1238 1610 1176 1610 c 0,72,73
 1112 1610 1112 1610 1069 1655 c 0,74,75
 1025 1700 1025 1700 1025 1763 c 0,61,62
677 1763 m 0,76,77
 677 1826 677 1826 720 1870 c 0,78,79
 763 1915 763 1915 828 1915 c 0,80,81
 890 1915 890 1915 934 1870 c 0,82,83
 976 1828 976 1828 979 1764 c 1,84,85
 979 1699 979 1699 934.5 1654.5 c 128,-1,86
 890 1610 890 1610 828 1610 c 0,87,88
 763 1610 763 1610 720 1655 c 0,89,90
 677 1699 677 1699 677 1763 c 0,76,77
EndSplineSet
Validated: 1
EndChar

StartChar: Igrave
Encoding: 204 204 142
Width: 650
GlyphClass: 2
Flags: W
HStem: 0 21G<200 450> 1491 20G<200 450>
VStem: 200 250<0 1511>
DStem2: 169 2001 29 1859 0.709492 -0.704714<0.740546 417.222>
LayerCount: 2
Fore
SplineSet
323 1564 m 1,0,-1
 29 1859 l 1,1,-1
 169 2001 l 1,2,-1
 466 1706 l 1,3,-1
 323 1564 l 1,0,-1
200 0 m 1,4,-1
 200 1511 l 1,5,-1
 450 1511 l 1,6,-1
 450 0 l 1,7,-1
 200 0 l 1,4,-1
EndSplineSet
Validated: 1
EndChar

StartChar: Iacute
Encoding: 205 205 143
Width: 650
GlyphClass: 2
Flags: W
HStem: 0 21G<200 450> 1491 20G<200 450>
VStem: 200 250<0 1511>
DStem2: 185 1706 328 1564 0.709492 0.704714<1.38793 417.869>
LayerCount: 2
Fore
SplineSet
328 1564 m 1,0,-1
 185 1706 l 1,1,-1
 482 2001 l 1,2,-1
 622 1859 l 1,3,-1
 328 1564 l 1,0,-1
200 0 m 1,4,-1
 200 1511 l 1,5,-1
 450 1511 l 1,6,-1
 450 0 l 1,7,-1
 200 0 l 1,4,-1
EndSplineSet
Validated: 1
EndChar

StartChar: Icircumflex
Encoding: 206 206 144
Width: 650
GlyphClass: 2
Flags: W
HStem: 0 21G<200 450> 1491 20G<200 450> 1717 284<183 467>
VStem: 200 250<0 1511>
LayerCount: 2
Fore
SplineSet
200 0 m 1,0,-1
 200 1511 l 1,1,-1
 450 1511 l 1,2,-1
 450 0 l 1,3,-1
 200 0 l 1,0,-1
325 1717 m 1,4,-1
 171 1564 l 1,5,-1
 31 1706 l 1,6,-1
 325 2001 l 1,7,-1
 619 1706 l 1,8,-1
 479 1564 l 1,9,-1
 325 1717 l 1,4,-1
EndSplineSet
Validated: 1
EndChar

StartChar: Idieresis
Encoding: 207 207 145
Width: 650
GlyphClass: 2
Flags: W
HStem: 0 21G<200 450> 1491 20G<200 450> 1610 305<44.3491 256.105 393.349 604.105>
VStem: 0 302<1656.38 1868.62> 200 250<0 1511> 348 302<1656.41 1869.99>
LayerCount: 2
Fore
SplineSet
200 0 m 1,0,-1
 200 1511 l 1,1,-1
 450 1511 l 1,2,-1
 450 0 l 1,3,-1
 200 0 l 1,0,-1
348 1763 m 0,4,5
 348 1825 348 1825 392 1870 c 0,6,7
 435 1915 435 1915 499 1915 c 0,8,9
 561 1915 561 1915 605 1870 c 0,10,11
 647 1828 647 1828 650 1764 c 1,12,13
 650 1699 650 1699 605.5 1654.5 c 128,-1,14
 561 1610 561 1610 499 1610 c 0,15,16
 435 1610 435 1610 392 1655 c 0,17,18
 348 1700 348 1700 348 1763 c 0,4,5
0 1763 m 0,19,20
 0 1826 0 1826 43 1870 c 0,21,22
 86 1915 86 1915 151 1915 c 0,23,24
 213 1915 213 1915 257 1870 c 0,25,26
 299 1828 299 1828 302 1764 c 1,27,28
 302 1699 302 1699 257.5 1654.5 c 128,-1,29
 213 1610 213 1610 151 1610 c 0,30,31
 86 1610 86 1610 43 1655 c 0,32,33
 0 1699 0 1699 0 1763 c 0,19,20
EndSplineSet
Validated: 1
EndChar

StartChar: Eth
Encoding: 208 208 146
Width: 1692
GlyphClass: 2
Flags: W
HStem: -20 160<625.953 895.909> 0 21G<200 450> 656 200<100 200 450 1033> 1357 174<665.694 1084.92> 1491 20G<200 450>
VStem: 200 250<0 656 856 1154.58 1389 1511> 1339 253<591.438 1093.14>
LayerCount: 2
Fore
SplineSet
200 0 m 1,0,-1
 200 656 l 1,1,-1
 100 656 l 1,2,-1
 100 856 l 1,3,-1
 200 856 l 1,4,-1
 200 1511 l 1,5,-1
 450 1511 l 1,6,-1
 450 1389 l 1,7,8
 495 1426 495 1426 542 1452 c 0,9,10
 689 1531 689 1531 894 1531 c 2,11,-1
 899 1531 l 1,12,13
 1071 1530 1071 1530 1191 1473 c 0,14,15
 1330 1407 1330 1407 1415 1321 c 1,16,17
 1504 1222 1504 1222 1540 1125 c 0,18,19
 1582 1012 1582 1012 1590 895 c 0,20,21
 1592 862 1592 862 1592 839 c 0,22,23
 1591 755 1591 755 1575 678 c 0,24,25
 1538 505 1538 505 1407 331 c 0,26,27
 1280 162 1280 162 1050 53 c 0,28,29
 898 -19 898 -19 756 -20 c 0,30,31
 676 -20 676 -20 609 37 c 0,32,33
 571 69 571 69 551 115 c 0,34,35
 539 143 539 143 535 165 c 1,36,37
 617 142 617 142 685 140 c 0,38,39
 708 139 708 139 727 141 c 0,40,41
 789 147 789 147 828 159 c 0,42,43
 906 183 906 183 968 220 c 0,44,45
 1134 319 1134 319 1220 444 c 0,46,47
 1296 555 1296 555 1329 706 c 0,48,49
 1339 752 1339 752 1339 817 c 0,50,51
 1339 854 1339 854 1335 899 c 0,52,53
 1322 1045 1322 1045 1279 1126 c 0,54,55
 1222 1234 1222 1234 1113 1299 c 0,56,57
 1015 1357 1015 1357 880 1357 c 2,58,-1
 864 1357 l 2,59,60
 748 1357 748 1357 657 1309 c 0,61,62
 576 1266 576 1266 525 1200 c 0,63,64
 450 1101 450 1101 450 1020 c 2,65,-1
 450 856 l 1,66,-1
 1033 856 l 1,67,-1
 1033 656 l 1,68,-1
 450 656 l 1,69,-1
 450 0 l 1,70,-1
 200 0 l 1,0,-1
EndSplineSet
Validated: 1
EndChar

StartChar: Ntilde
Encoding: 209 209 147
Width: 1621
GlyphClass: 2
Flags: W
HStem: 0 21G<200 450 1171 1421> 1357 174<703.362 1060.34> 1491 20G<200 450>
VStem: 200 250<0 1135.17 1365 1511> 1171 250<0 1249.27>
LayerCount: 2
Fore
SplineSet
1163 1822 m 1,0,1
 1124 1693 1124 1693 1032 1634 c 0,2,3
 985 1603 985 1603 927 1603 c 0,4,5
 894 1603 894 1603 855 1621 c 0,6,7
 838 1629 838 1629 807 1660 c 1,8,-1
 712 1760 l 2,9,10
 707 1765 707 1765 701.5 1765 c 128,-1,11
 696 1765 696 1765 689 1758 c 0,12,13
 664 1731 664 1731 658 1656 c 2,14,-1
 657 1641 l 1,15,-1
 487 1727 l 1,16,-1
 490 1735 l 1,17,18
 545 1904 545 1904 646 1947 c 0,19,20
 674 1959 674 1959 715 1960 c 0,21,22
 747 1960 747 1960 773 1951 c 0,23,24
 811 1938 811 1938 833 1917 c 2,25,-1
 939 1817 l 2,26,27
 946 1811 946 1811 949 1810.5 c 128,-1,28
 952 1810 952 1810 953 1810 c 0,29,30
 958 1812 958 1812 963 1817 c 0,31,32
 983 1837 983 1837 991 1908 c 1,33,-1
 993 1923 l 1,34,-1
 1165 1830 l 1,35,-1
 1163 1822 l 1,0,1
200 0 m 1,36,-1
 200 1511 l 1,37,-1
 450 1511 l 1,38,-1
 450 1365 l 1,39,40
 526 1427 526 1427 632 1473 c 0,41,42
 765 1531 765 1531 908 1531 c 2,43,-1
 913 1531 l 1,44,45
 1025 1530 1025 1530 1130 1496 c 0,46,47
 1225 1465 1225 1465 1291 1406 c 0,48,49
 1357 1346 1357 1346 1393 1252 c 0,50,51
 1420 1183 1420 1183 1421 1094 c 1,52,-1
 1421 0 l 1,53,-1
 1171 0 l 1,54,-1
 1171 1086 l 1,55,56
 1169 1172 1169 1172 1142 1223 c 0,57,58
 1110 1286 1110 1286 1045 1322 c 0,59,60
 982 1357 982 1357 896 1357 c 2,61,62
 896 1357 896 1357 884 1357 c 0,63,64
 803 1356 803 1356 701 1312 c 1,65,66
 593 1267 593 1267 532 1192 c 0,67,68
 450 1093 450 1093 450 934 c 2,69,-1
 450 0 l 1,70,-1
 200 0 l 1,36,-1
EndSplineSet
Validated: 1
EndChar

StartChar: Ograve
Encoding: 210 210 148
Width: 1789
GlyphClass: 2
Flags: W
HStem: -20 173<606.553 1019.39> 1357 174<761.263 1184.89>
VStem: 100 251<418.757 930.579> 1436 253<584.191 1089.93>
DStem2: 844 2001 704 1859 0.709492 -0.704714<0.740546 417.222>
LayerCount: 2
Fore
SplineSet
998 1564 m 1,0,-1
 704 1859 l 1,1,-1
 844 2001 l 1,2,-1
 1141 1706 l 1,3,-1
 998 1564 l 1,0,-1
996 1531 m 1,4,5
 1165 1530 1165 1530 1288 1473 c 0,6,7
 1437 1404 1437 1404 1512 1320 c 1,8,9
 1601 1223 1601 1223 1638 1127 c 1,10,11
 1676 1032 1676 1032 1687 896 c 0,12,13
 1689 868 1689 868 1689 840 c 0,14,15
 1688 758 1688 758 1672 680 c 0,16,17
 1636 509 1636 509 1504 333 c 0,18,19
 1380 168 1380 168 1147 57 c 0,20,21
 986 -20 986 -20 813 -20 c 2,22,23
 813 -20 813 -20 792 -20 c 0,24,25
 627 -20 627 -20 502 38 c 0,26,27
 357 105 357 105 277 190 c 1,28,29
 186 300 186 300 151 387 c 0,30,31
 115 475 115 475 102 614 c 0,32,33
 100 639 100 639 100 672 c 0,34,35
 101 753 101 753 116 830 c 0,36,37
 153 1012 153 1012 286 1178 c 0,38,39
 442 1372 442 1372 643 1455 c 0,40,41
 826 1531 826 1531 992 1531 c 2,42,-1
 996 1531 l 1,4,5
981 1357 m 0,43,44
 852 1354 852 1354 751 1308 c 0,45,46
 572 1226 572 1226 455 1061 c 0,47,48
 395 977 395 977 360 806 c 0,49,50
 351 762 351 762 351 699 c 0,51,52
 351 661 351 661 355 612 c 0,53,54
 366 478 366 478 410 385 c 0,55,56
 462 276 462 276 576 213 c 0,57,58
 684 153 684 153 801 153 c 2,59,-1
 818 153 l 0,60,61
 920 156 920 156 1027 200 c 0,62,63
 1216 280 1216 280 1330 450 c 0,64,65
 1404 560 1404 560 1425 703 c 0,66,67
 1436 777 1436 777 1436 819 c 0,68,69
 1436 857 1436 857 1432 899 c 0,70,71
 1419 1036 1419 1036 1376 1126 c 0,72,73
 1324 1233 1324 1233 1210 1299 c 0,74,75
 1111 1357 1111 1357 1002 1357 c 2,76,-1
 981 1357 l 0,43,44
EndSplineSet
Validated: 1
EndChar

StartChar: Oacute
Encoding: 211 211 149
Width: 1789
GlyphClass: 2
Flags: W
HStem: -20 173<606.553 1019.39> 1357 174<761.263 1184.89>
VStem: 100 251<418.757 930.579> 1436 253<584.191 1089.93>
DStem2: 851 1706 994 1564 0.709492 0.704714<1.38793 417.869>
LayerCount: 2
Fore
SplineSet
994 1564 m 1,0,-1
 851 1706 l 1,1,-1
 1148 2001 l 1,2,-1
 1288 1859 l 1,3,-1
 994 1564 l 1,0,-1
996 1531 m 1,4,5
 1165 1530 1165 1530 1288 1473 c 0,6,7
 1437 1404 1437 1404 1512 1320 c 1,8,9
 1601 1223 1601 1223 1638 1127 c 1,10,11
 1676 1032 1676 1032 1687 896 c 0,12,13
 1689 868 1689 868 1689 840 c 0,14,15
 1688 758 1688 758 1672 680 c 0,16,17
 1636 509 1636 509 1504 333 c 0,18,19
 1380 168 1380 168 1147 57 c 0,20,21
 986 -20 986 -20 813 -20 c 2,22,23
 813 -20 813 -20 792 -20 c 0,24,25
 627 -20 627 -20 502 38 c 0,26,27
 357 105 357 105 277 190 c 1,28,29
 186 300 186 300 151 387 c 0,30,31
 115 475 115 475 102 614 c 0,32,33
 100 639 100 639 100 672 c 0,34,35
 101 753 101 753 116 830 c 0,36,37
 153 1012 153 1012 286 1178 c 0,38,39
 442 1372 442 1372 643 1455 c 0,40,41
 826 1531 826 1531 992 1531 c 2,42,-1
 996 1531 l 1,4,5
981 1357 m 0,43,44
 852 1354 852 1354 751 1308 c 0,45,46
 572 1226 572 1226 455 1061 c 0,47,48
 395 977 395 977 360 806 c 0,49,50
 351 762 351 762 351 699 c 0,51,52
 351 661 351 661 355 612 c 0,53,54
 366 478 366 478 410 385 c 0,55,56
 462 276 462 276 576 213 c 0,57,58
 684 153 684 153 801 153 c 2,59,-1
 818 153 l 0,60,61
 920 156 920 156 1027 200 c 0,62,63
 1216 280 1216 280 1330 450 c 0,64,65
 1404 560 1404 560 1425 703 c 0,66,67
 1436 777 1436 777 1436 819 c 0,68,69
 1436 857 1436 857 1432 899 c 0,70,71
 1419 1036 1419 1036 1376 1126 c 0,72,73
 1324 1233 1324 1233 1210 1299 c 0,74,75
 1111 1357 1111 1357 1002 1357 c 2,76,-1
 981 1357 l 0,43,44
EndSplineSet
Validated: 1
EndChar

StartChar: Ocircumflex
Encoding: 212 212 150
Width: 1789
GlyphClass: 2
Flags: W
HStem: -20 173<606.553 1019.39> 1357 174<761.263 1184.89> 1717 284<855 1139>
VStem: 100 251<418.757 930.579> 1436 253<584.191 1089.93>
LayerCount: 2
Fore
SplineSet
997 1717 m 1,0,-1
 843 1564 l 1,1,-1
 703 1706 l 1,2,-1
 997 2001 l 1,3,-1
 1291 1706 l 1,4,-1
 1151 1564 l 1,5,-1
 997 1717 l 1,0,-1
996 1531 m 1,6,7
 1165 1530 1165 1530 1288 1473 c 0,8,9
 1437 1404 1437 1404 1512 1320 c 1,10,11
 1601 1223 1601 1223 1638 1127 c 1,12,13
 1676 1032 1676 1032 1687 896 c 0,14,15
 1689 868 1689 868 1689 840 c 0,16,17
 1688 758 1688 758 1672 680 c 0,18,19
 1636 509 1636 509 1504 333 c 0,20,21
 1380 168 1380 168 1147 57 c 0,22,23
 986 -20 986 -20 813 -20 c 2,24,25
 813 -20 813 -20 792 -20 c 0,26,27
 627 -20 627 -20 502 38 c 0,28,29
 357 105 357 105 277 190 c 1,30,31
 186 300 186 300 151 387 c 0,32,33
 115 475 115 475 102 614 c 0,34,35
 100 639 100 639 100 672 c 0,36,37
 101 753 101 753 116 830 c 0,38,39
 153 1012 153 1012 286 1178 c 0,40,41
 442 1372 442 1372 643 1455 c 0,42,43
 826 1531 826 1531 992 1531 c 2,44,-1
 996 1531 l 1,6,7
981 1357 m 0,45,46
 852 1354 852 1354 751 1308 c 0,47,48
 572 1226 572 1226 455 1061 c 0,49,50
 395 977 395 977 360 806 c 0,51,52
 351 762 351 762 351 699 c 0,53,54
 351 661 351 661 355 612 c 0,55,56
 366 478 366 478 410 385 c 0,57,58
 462 276 462 276 576 213 c 0,59,60
 684 153 684 153 801 153 c 2,61,-1
 818 153 l 0,62,63
 920 156 920 156 1027 200 c 0,64,65
 1216 280 1216 280 1330 450 c 0,66,67
 1404 560 1404 560 1425 703 c 0,68,69
 1436 777 1436 777 1436 819 c 0,70,71
 1436 857 1436 857 1432 899 c 0,72,73
 1419 1036 1419 1036 1376 1126 c 0,74,75
 1324 1233 1324 1233 1210 1299 c 0,76,77
 1111 1357 1111 1357 1002 1357 c 2,78,-1
 981 1357 l 0,45,46
EndSplineSet
Validated: 1
EndChar

StartChar: Otilde
Encoding: 213 213 151
Width: 1789
GlyphClass: 2
Flags: W
HStem: -20 173<606.553 1019.39> 1357 174<761.263 1184.89>
VStem: 100 251<418.757 930.579> 1436 253<584.191 1089.93>
LayerCount: 2
Fore
SplineSet
1356 1822 m 1,0,1
 1317 1693 1317 1693 1225 1634 c 0,2,3
 1178 1603 1178 1603 1120 1603 c 0,4,5
 1087 1603 1087 1603 1048 1621 c 0,6,7
 1031 1629 1031 1629 1000 1660 c 1,8,-1
 905 1760 l 2,9,10
 900 1765 900 1765 894.5 1765 c 128,-1,11
 889 1765 889 1765 882 1758 c 0,12,13
 857 1731 857 1731 851 1656 c 2,14,-1
 850 1641 l 1,15,-1
 680 1727 l 1,16,-1
 683 1735 l 1,17,18
 738 1904 738 1904 839 1947 c 0,19,20
 867 1959 867 1959 908 1960 c 0,21,22
 940 1960 940 1960 966 1951 c 0,23,24
 1004 1938 1004 1938 1026 1917 c 2,25,-1
 1132 1817 l 2,26,27
 1139 1811 1139 1811 1142 1810.5 c 128,-1,28
 1145 1810 1145 1810 1146 1810 c 0,29,30
 1151 1812 1151 1812 1156 1817 c 0,31,32
 1176 1837 1176 1837 1184 1908 c 1,33,-1
 1186 1923 l 1,34,-1
 1358 1830 l 1,35,-1
 1356 1822 l 1,0,1
996 1531 m 1,36,37
 1165 1530 1165 1530 1288 1473 c 0,38,39
 1437 1404 1437 1404 1512 1320 c 1,40,41
 1601 1223 1601 1223 1638 1127 c 1,42,43
 1676 1032 1676 1032 1687 896 c 0,44,45
 1689 868 1689 868 1689 840 c 0,46,47
 1688 758 1688 758 1672 680 c 0,48,49
 1636 509 1636 509 1504 333 c 0,50,51
 1380 168 1380 168 1147 57 c 0,52,53
 986 -20 986 -20 813 -20 c 2,54,55
 813 -20 813 -20 792 -20 c 0,56,57
 627 -20 627 -20 502 38 c 0,58,59
 357 105 357 105 277 190 c 1,60,61
 186 300 186 300 151 387 c 0,62,63
 115 475 115 475 102 614 c 0,64,65
 100 639 100 639 100 672 c 0,66,67
 101 753 101 753 116 830 c 0,68,69
 153 1012 153 1012 286 1178 c 0,70,71
 442 1372 442 1372 643 1455 c 0,72,73
 826 1531 826 1531 992 1531 c 2,74,-1
 996 1531 l 1,36,37
981 1357 m 0,75,76
 852 1354 852 1354 751 1308 c 0,77,78
 572 1226 572 1226 455 1061 c 0,79,80
 395 977 395 977 360 806 c 0,81,82
 351 762 351 762 351 699 c 0,83,84
 351 661 351 661 355 612 c 0,85,86
 366 478 366 478 410 385 c 0,87,88
 462 276 462 276 576 213 c 0,89,90
 684 153 684 153 801 153 c 2,91,-1
 818 153 l 0,92,93
 920 156 920 156 1027 200 c 0,94,95
 1216 280 1216 280 1330 450 c 0,96,97
 1404 560 1404 560 1425 703 c 0,98,99
 1436 777 1436 777 1436 819 c 0,100,101
 1436 857 1436 857 1432 899 c 0,102,103
 1419 1036 1419 1036 1376 1126 c 0,104,105
 1324 1233 1324 1233 1210 1299 c 0,106,107
 1111 1357 1111 1357 1002 1357 c 2,108,-1
 981 1357 l 0,75,76
EndSplineSet
Validated: 1
EndChar

StartChar: Odieresis
Encoding: 214 214 152
Width: 1789
GlyphClass: 2
Flags: W
HStem: -20 173<606.553 1019.39> 1357 174<761.263 1184.89> 1610 305<721.349 933.105 1070.35 1281.11>
VStem: 100 251<418.757 930.579> 677 302<1656.38 1868.62> 1025 302<1656.41 1869.99> 1436 253<584.191 1089.93>
LayerCount: 2
Fore
SplineSet
1025 1763 m 0,0,1
 1025 1825 1025 1825 1069 1870 c 0,2,3
 1112 1915 1112 1915 1176 1915 c 0,4,5
 1238 1915 1238 1915 1282 1870 c 0,6,7
 1324 1828 1324 1828 1327 1764 c 1,8,9
 1327 1699 1327 1699 1282.5 1654.5 c 128,-1,10
 1238 1610 1238 1610 1176 1610 c 0,11,12
 1112 1610 1112 1610 1069 1655 c 0,13,14
 1025 1700 1025 1700 1025 1763 c 0,0,1
677 1763 m 0,15,16
 677 1826 677 1826 720 1870 c 0,17,18
 763 1915 763 1915 828 1915 c 0,19,20
 890 1915 890 1915 934 1870 c 0,21,22
 976 1828 976 1828 979 1764 c 1,23,24
 979 1699 979 1699 934.5 1654.5 c 128,-1,25
 890 1610 890 1610 828 1610 c 0,26,27
 763 1610 763 1610 720 1655 c 0,28,29
 677 1699 677 1699 677 1763 c 0,15,16
996 1531 m 1,30,31
 1165 1530 1165 1530 1288 1473 c 0,32,33
 1437 1404 1437 1404 1512 1320 c 1,34,35
 1601 1223 1601 1223 1638 1127 c 1,36,37
 1676 1032 1676 1032 1687 896 c 0,38,39
 1689 868 1689 868 1689 840 c 0,40,41
 1688 758 1688 758 1672 680 c 0,42,43
 1636 509 1636 509 1504 333 c 0,44,45
 1380 168 1380 168 1147 57 c 0,46,47
 986 -20 986 -20 813 -20 c 2,48,49
 813 -20 813 -20 792 -20 c 0,50,51
 627 -20 627 -20 502 38 c 0,52,53
 357 105 357 105 277 190 c 1,54,55
 186 300 186 300 151 387 c 0,56,57
 115 475 115 475 102 614 c 0,58,59
 100 639 100 639 100 672 c 0,60,61
 101 753 101 753 116 830 c 0,62,63
 153 1012 153 1012 286 1178 c 0,64,65
 442 1372 442 1372 643 1455 c 0,66,67
 826 1531 826 1531 992 1531 c 2,68,-1
 996 1531 l 1,30,31
981 1357 m 0,69,70
 852 1354 852 1354 751 1308 c 0,71,72
 572 1226 572 1226 455 1061 c 0,73,74
 395 977 395 977 360 806 c 0,75,76
 351 762 351 762 351 699 c 0,77,78
 351 661 351 661 355 612 c 0,79,80
 366 478 366 478 410 385 c 0,81,82
 462 276 462 276 576 213 c 0,83,84
 684 153 684 153 801 153 c 2,85,-1
 818 153 l 0,86,87
 920 156 920 156 1027 200 c 0,88,89
 1216 280 1216 280 1330 450 c 0,90,91
 1404 560 1404 560 1425 703 c 0,92,93
 1436 777 1436 777 1436 819 c 0,94,95
 1436 857 1436 857 1432 899 c 0,96,97
 1419 1036 1419 1036 1376 1126 c 0,98,99
 1324 1233 1324 1233 1210 1299 c 0,100,101
 1111 1357 1111 1357 1002 1357 c 2,102,-1
 981 1357 l 0,69,70
EndSplineSet
Validated: 1
EndChar

StartChar: multiply
Encoding: 215 215 153
Width: 1201
GlyphClass: 2
Flags: W
DStem2: 341 1152 200 1011 0.711405 -0.702782<0 360.139 561.467 926.525> 200 500 341 359 0.711405 0.702782<1.21585 366.275 567.602 927.741>
LayerCount: 2
Fore
SplineSet
200 500 m 1,0,-1
 459 759 l 1,1,-1
 200 1011 l 1,2,-1
 341 1152 l 1,3,-1
 600 893 l 1,4,-1
 860 1152 l 1,5,-1
 1001 1011 l 1,6,-1
 742 759 l 1,7,-1
 1001 500 l 1,8,-1
 860 359 l 1,9,-1
 600 618 l 1,10,-1
 341 359 l 1,11,-1
 200 500 l 1,0,-1
EndSplineSet
Validated: 1
EndChar

StartChar: Oslash
Encoding: 216 216 154
Width: 1789
GlyphClass: 2
Flags: W
HStem: -20 173<686.5 1019.39> 0 21G<323 590> 1357 174<761.704 1095.43> 1491 20G<1192 1458>
VStem: 100 251<419.041 930.579> 1436 253<584.191 1089.93>
DStem2: 485 280 684 169 0.499258 0.866454<3.17592 1228.82>
LayerCount: 2
Fore
SplineSet
323 0 m 1,0,-1
 383 103 l 1,1,2
 320 144 320 144 277 190 c 1,3,4
 187 299 187 299 151 387 c 0,5,6
 115 476 115 476 102 614 c 0,7,8
 100 639 100 639 100 672 c 0,9,10
 101 753 101 753 116 830 c 0,11,12
 153 1012 153 1012 286 1178 c 0,13,14
 442 1372 442 1372 643 1455 c 0,15,16
 827 1531 827 1531 992 1531 c 2,17,-1
 996 1531 l 2,18,19
 1103 1530 1103 1530 1192 1507 c 1,20,-1
 1194 1511 l 1,21,-1
 1458 1511 l 1,22,-1
 1401 1412 l 1,23,24
 1469 1368 1469 1368 1512 1320 c 0,25,26
 1603 1219 1603 1219 1638 1127 c 1,27,28
 1676 1032 1676 1032 1687 896 c 0,29,30
 1689 868 1689 868 1689 840 c 0,31,32
 1688 758 1688 758 1672 680 c 0,33,34
 1636 509 1636 509 1504 333 c 0,35,36
 1380 168 1380 168 1147 57 c 0,37,38
 986 -20 986 -20 813 -20 c 2,39,-1
 792 -20 l 2,40,41
 682 -20 682 -20 590 6 c 1,42,-1
 587 0 l 1,43,-1
 323 0 l 1,0,-1
981 1357 m 1,44,45
 852 1354 852 1354 751 1308 c 0,46,47
 573 1226 573 1226 455 1061 c 0,48,49
 395 977 395 977 360 806 c 0,50,51
 351 762 351 762 351 699 c 0,52,53
 351 661 351 661 355 612 c 0,54,55
 366 478 366 478 410 385 c 0,56,57
 438 326 438 326 485 280 c 1,58,-1
 1098 1345 l 1,59,60
 1051 1357 1051 1357 1002 1357 c 2,61,-1
 981 1357 l 1,44,45
1298 1233 m 1,62,-1
 684 169 l 1,63,64
 741 153 741 153 801 153 c 2,65,-1
 818 153 l 1,66,67
 920 156 920 156 1027 200 c 1,68,69
 1216 280 1216 280 1330 450 c 0,70,71
 1404 560 1404 560 1425 703 c 0,72,73
 1436 777 1436 777 1436 819 c 0,74,75
 1436 857 1436 857 1432 899 c 0,76,77
 1419 1037 1419 1037 1376 1126 c 0,78,79
 1347 1186 1347 1186 1298 1233 c 1,62,-1
EndSplineSet
Validated: 1
EndChar

StartChar: Ugrave
Encoding: 217 217 155
Width: 1621
GlyphClass: 2
Flags: W
HStem: -20 174<561.983 917.638> 0 21G<1171 1421> 1491 20G<200 450 1171 1421>
VStem: 200 250<261.729 1511> 1171 250<0 146 375.827 1511>
DStem2: 643 2001 503 1859 0.709492 -0.704714<0.740546 417.222>
LayerCount: 2
Fore
SplineSet
797 1564 m 1,0,-1
 503 1859 l 1,1,-1
 643 2001 l 1,2,-1
 940 1706 l 1,3,-1
 797 1564 l 1,0,-1
1421 0 m 1,4,-1
 1171 0 l 1,5,-1
 1171 146 l 1,6,7
 1095 84 1095 84 989 38 c 0,8,9
 856 -20 856 -20 713 -20 c 2,10,11
 713 -20 713 -20 708 -20 c 0,12,13
 599 -20 599 -20 491 15 c 0,14,15
 396 46 396 46 330 105 c 0,16,17
 264 165 264 165 228 259 c 0,18,19
 201 328 201 328 200 417 c 1,20,-1
 200 1511 l 1,21,-1
 450 1511 l 1,22,-1
 450 425 l 1,23,24
 452 339 452 339 479 288 c 0,25,26
 511 225 511 225 576 189 c 0,27,28
 639 154 639 154 725 154 c 2,29,30
 725 154 725 154 737 154 c 0,31,32
 818 155 818 155 920 199 c 1,33,34
 1028 244 1028 244 1089 319 c 0,35,36
 1171 418 1171 418 1171 577 c 2,37,-1
 1171 1511 l 1,38,-1
 1421 1511 l 1,39,-1
 1421 0 l 1,4,-1
EndSplineSet
Validated: 1
EndChar

StartChar: Uacute
Encoding: 218 218 156
Width: 1621
GlyphClass: 2
Flags: W
HStem: -20 174<561.983 917.638> 0 21G<1171 1421> 1491 20G<200 450 1171 1421>
VStem: 200 250<261.729 1511> 1171 250<0 146 375.827 1511>
DStem2: 659 1706 802 1564 0.709492 0.704714<1.38793 417.869>
LayerCount: 2
Fore
SplineSet
802 1564 m 1,0,-1
 659 1706 l 1,1,-1
 956 2001 l 1,2,-1
 1096 1859 l 1,3,-1
 802 1564 l 1,0,-1
1421 0 m 1,4,-1
 1171 0 l 1,5,-1
 1171 146 l 1,6,7
 1095 84 1095 84 989 38 c 0,8,9
 856 -20 856 -20 713 -20 c 2,10,11
 713 -20 713 -20 708 -20 c 0,12,13
 599 -20 599 -20 491 15 c 0,14,15
 396 46 396 46 330 105 c 0,16,17
 264 165 264 165 228 259 c 0,18,19
 201 328 201 328 200 417 c 1,20,-1
 200 1511 l 1,21,-1
 450 1511 l 1,22,-1
 450 425 l 1,23,24
 452 339 452 339 479 288 c 0,25,26
 511 225 511 225 576 189 c 0,27,28
 639 154 639 154 725 154 c 2,29,30
 725 154 725 154 737 154 c 0,31,32
 818 155 818 155 920 199 c 1,33,34
 1028 244 1028 244 1089 319 c 0,35,36
 1171 418 1171 418 1171 577 c 2,37,-1
 1171 1511 l 1,38,-1
 1421 1511 l 1,39,-1
 1421 0 l 1,4,-1
EndSplineSet
Validated: 1
EndChar

StartChar: Ucircumflex
Encoding: 219 219 157
Width: 1621
GlyphClass: 2
Flags: W
HStem: -20 174<561.983 917.638> 0 21G<1171 1421> 1491 20G<200 450 1171 1421> 1717 284<674 958>
VStem: 200 250<261.729 1511> 1171 250<0 146 375.827 1511>
LayerCount: 2
Fore
SplineSet
816 1717 m 1,0,-1
 662 1564 l 1,1,-1
 522 1706 l 1,2,-1
 816 2001 l 1,3,-1
 1110 1706 l 1,4,-1
 970 1564 l 1,5,-1
 816 1717 l 1,0,-1
1421 0 m 1,6,-1
 1171 0 l 1,7,-1
 1171 146 l 1,8,9
 1095 84 1095 84 989 38 c 0,10,11
 856 -20 856 -20 713 -20 c 2,12,13
 713 -20 713 -20 708 -20 c 0,14,15
 599 -20 599 -20 491 15 c 0,16,17
 396 46 396 46 330 105 c 0,18,19
 264 165 264 165 228 259 c 0,20,21
 201 328 201 328 200 417 c 1,22,-1
 200 1511 l 1,23,-1
 450 1511 l 1,24,-1
 450 425 l 1,25,26
 452 339 452 339 479 288 c 0,27,28
 511 225 511 225 576 189 c 0,29,30
 639 154 639 154 725 154 c 2,31,32
 725 154 725 154 737 154 c 0,33,34
 818 155 818 155 920 199 c 1,35,36
 1028 244 1028 244 1089 319 c 0,37,38
 1171 418 1171 418 1171 577 c 2,39,-1
 1171 1511 l 1,40,-1
 1421 1511 l 1,41,-1
 1421 0 l 1,6,-1
EndSplineSet
Validated: 1
EndChar

StartChar: Udieresis
Encoding: 220 220 158
Width: 1621
GlyphClass: 2
Flags: W
HStem: -20 174<561.983 917.638> 0 21G<1171 1421> 1491 20G<200 450 1171 1421> 1610 305<539.349 751.105 888.349 1099.11>
VStem: 200 250<261.729 1511> 495 302<1656.38 1868.62> 843 302<1656.41 1869.99> 1171 250<0 146 375.827 1511>
LayerCount: 2
Fore
SplineSet
843 1763 m 0,0,1
 843 1825 843 1825 887 1870 c 0,2,3
 930 1915 930 1915 994 1915 c 0,4,5
 1056 1915 1056 1915 1100 1870 c 0,6,7
 1142 1828 1142 1828 1145 1764 c 1,8,9
 1145 1699 1145 1699 1100.5 1654.5 c 128,-1,10
 1056 1610 1056 1610 994 1610 c 0,11,12
 930 1610 930 1610 887 1655 c 0,13,14
 843 1700 843 1700 843 1763 c 0,0,1
495 1763 m 0,15,16
 495 1826 495 1826 538 1870 c 0,17,18
 581 1915 581 1915 646 1915 c 0,19,20
 708 1915 708 1915 752 1870 c 0,21,22
 794 1828 794 1828 797 1764 c 1,23,24
 797 1699 797 1699 752.5 1654.5 c 128,-1,25
 708 1610 708 1610 646 1610 c 0,26,27
 581 1610 581 1610 538 1655 c 0,28,29
 495 1699 495 1699 495 1763 c 0,15,16
1421 0 m 1,30,-1
 1171 0 l 1,31,-1
 1171 146 l 1,32,33
 1095 84 1095 84 989 38 c 0,34,35
 856 -20 856 -20 713 -20 c 2,36,37
 713 -20 713 -20 708 -20 c 0,38,39
 599 -20 599 -20 491 15 c 0,40,41
 396 46 396 46 330 105 c 0,42,43
 264 165 264 165 228 259 c 0,44,45
 201 328 201 328 200 417 c 1,46,-1
 200 1511 l 1,47,-1
 450 1511 l 1,48,-1
 450 425 l 1,49,50
 452 339 452 339 479 288 c 0,51,52
 511 225 511 225 576 189 c 0,53,54
 639 154 639 154 725 154 c 2,55,56
 725 154 725 154 737 154 c 0,57,58
 818 155 818 155 920 199 c 1,59,60
 1028 244 1028 244 1089 319 c 0,61,62
 1171 418 1171 418 1171 577 c 2,63,-1
 1171 1511 l 1,64,-1
 1421 1511 l 1,65,-1
 1421 0 l 1,30,-1
EndSplineSet
Validated: 1
EndChar

StartChar: Yacute
Encoding: 221 221 159
Width: 1459
GlyphClass: 2
Flags: W
HStem: 0 21G<596 846> 1491 20G<0 284.957 1217.93 1459>
VStem: 0 274<1237 1511> 596 250<0 421> 1229 230<1281 1511>
DStem2: 274 1511 0 1511 0.479754 -0.877403<0 988.592> 627 1706 770 1564 0.709492 0.704714<1.38793 417.869> 749 644 846 421 0.490185 0.871618<0 990.982>
LayerCount: 2
Fore
SplineSet
770 1564 m 1,0,-1
 627 1706 l 1,1,-1
 924 2001 l 1,2,-1
 1064 1859 l 1,3,-1
 770 1564 l 1,0,-1
596 0 m 1,4,-1
 596 421 l 1,5,-1
 0 1511 l 1,6,-1
 274 1511 l 1,7,-1
 749 644 l 1,8,-1
 1229 1511 l 1,9,-1
 1459 1511 l 1,10,-1
 846 421 l 1,11,-1
 846 0 l 1,12,-1
 596 0 l 1,4,-1
EndSplineSet
Validated: 1
EndChar

StartChar: Thorn
Encoding: 222 222 160
Width: 1500
GlyphClass: 2
Flags: W
HStem: 0 21G<200 450> 97 152<615.186 884.349> 1141 174<682.913 1007.43> 1491 20G<200 450>
VStem: 200 250<0 916.11 1150 1511> 1151 249<535.597 985.342>
LayerCount: 2
Fore
SplineSet
200 0 m 1,0,-1
 200 1511 l 1,1,-1
 450 1511 l 1,2,-1
 450 1150 l 1,3,4
 528 1220 528 1220 613 1257 c 0,5,6
 745 1315 745 1315 874 1315 c 2,7,-1
 878 1315 l 1,8,9
 1007 1314 1007 1314 1097 1271 c 0,10,11
 1204 1219 1204 1219 1267 1151 c 0,12,13
 1333 1079 1333 1079 1365 996 c 0,14,15
 1394 921 1394 921 1399 812 c 0,16,17
 1400 790 1400 790 1400 756 c 0,18,19
 1400 702 1400 702 1388 642 c 0,20,21
 1361 506 1361 506 1262 369 c 1,22,23
 1169 238 1169 238 1050 175 c 1,24,25
 905 97 905 97 766 97 c 0,26,27
 761 97 761 97 756 97 c 0,28,29
 670 97 670 97 609 146 c 0,30,31
 573 175 573 175 551 224 c 0,32,33
 539 252 539 252 535 274 c 1,34,35
 611 253 611 253 685 249 c 0,36,37
 707 248 707 248 727 250 c 0,38,39
 818 258 818 258 886 294 c 1,40,41
 1023 369 1023 369 1082 468 c 0,42,43
 1126 541 1126 541 1145 658 c 0,44,45
 1151 695 1151 695 1151 740 c 0,46,47
 1151 767 1151 767 1149 804 c 0,48,49
 1144 896 1144 896 1113 972 c 0,50,51
 1083 1044 1083 1044 1005 1098 c 0,52,53
 943 1141 943 1141 857 1141 c 2,54,-1
 849 1141 l 2,55,56
 764 1141 764 1141 686 1098 c 0,57,58
 586 1044 586 1044 532 974 c 1,59,60
 450 873 450 873 450 712 c 2,61,-1
 450 0 l 1,62,-1
 200 0 l 1,0,-1
EndSplineSet
Validated: 1
EndChar

StartChar: germandbls
Encoding: 223 223 161
Width: 1506
GlyphClass: 2
Flags: W
HStem: -20 160<629.953 888.536> 0 21G<200 450> 847 25<566.042 600.781> 1359 172<590.914 825.021>
VStem: 200 250<0 1159.96> 866 238<1113.71 1333.99> 1154 252<405.816 770.984>
LayerCount: 2
Fore
SplineSet
200 0 m 1,0,-1
 200 945 l 2,1,2
 200 1053 200 1053 238 1146 c 0,3,4
 283 1259 283 1259 343 1330 c 0,5,6
 427 1428 427 1428 514 1470 c 0,7,8
 638 1531 638 1531 756 1531 c 2,9,-1
 760 1531 l 1,10,11
 863 1530 863 1530 951 1484 c 0,12,13
 1043 1436 1043 1436 1078 1368 c 0,14,15
 1104 1317 1104 1317 1104 1261 c 0,16,17
 1104 1212 1104 1212 1082 1159 c 0,18,19
 1059 1103 1059 1103 1020 1058 c 1,20,21
 1063 1053 1063 1053 1099 1042 c 0,22,23
 1209 1007 1209 1007 1289 924 c 0,24,25
 1359 851 1359 851 1383 771 c 0,26,27
 1406 691 1406 691 1406 623 c 2,28,-1
 1406 618 l 2,29,30
 1406 543 1406 543 1380 449 c 0,31,32
 1344 322 1344 322 1248 211 c 0,33,34
 1173 124 1173 124 1056 55 c 1,35,36
 932 -20 932 -20 764 -20 c 0,37,38
 762 -20 762 -20 760 -20 c 0,39,40
 680 -20 680 -20 613 37 c 0,41,42
 575 69 575 69 555 115 c 0,43,44
 543 143 543 143 539 165 c 1,45,46
 621 142 621 142 689 140 c 0,47,48
 718 139 718 139 731 141 c 0,49,50
 827 156 827 156 890 185 c 0,51,52
 1018 245 1018 245 1086 359 c 1,53,54
 1126 424 1126 424 1145 513 c 0,55,56
 1154 556 1154 556 1154 600 c 0,57,58
 1154 615 1154 615 1152 633 c 0,59,60
 1145 698 1145 698 1120 752 c 0,61,62
 1091 814 1091 814 1023 864 c 1,63,64
 958 909 958 909 879 909 c 2,65,-1
 873 909 l 2,66,67
 824 909 824 909 756 897 c 0,68,69
 690 886 690 886 616 866 c 1,70,71
 580 855 580 855 554 847 c 1,72,73
 570 862 570 862 583 872 c 0,74,75
 591 878 591 878 727 1000 c 0,76,77
 776 1044 776 1044 837 1128 c 0,78,79
 866 1169 866 1169 866 1237 c 2,80,-1
 866 1245 l 2,81,82
 866 1303 866 1303 826 1335 c 0,83,84
 795 1359 795 1359 724 1359 c 0,85,86
 718 1359 718 1359 704 1358 c 0,87,88
 630 1353 630 1353 568 1298 c 0,89,90
 524 1260 524 1260 492 1210 c 0,91,92
 450 1142 450 1142 450 1057 c 2,93,-1
 450 0 l 1,94,-1
 200 0 l 1,0,-1
EndSplineSet
Validated: 1
EndChar

StartChar: agrave
Encoding: 224 224 162
Width: 1347
GlyphClass: 2
Flags: W
HStem: -20 174<485.456 765.216> 0 21G<897 1147> 935 185<575.594 858.37>
VStem: 100 249<291.979 705.961> 897 250<0 883.119>
DStem2: 618 1591 478 1449 0.709492 -0.704714<0.740546 417.222>
LayerCount: 2
Fore
SplineSet
772 1154 m 1,0,-1
 478 1449 l 1,1,-1
 618 1591 l 1,2,-1
 915 1296 l 1,3,-1
 772 1154 l 1,0,-1
1147 0 m 1,4,-1
 897 0 l 1,5,-1
 897 802 l 1,6,-1
 897 803 l 1,7,8
 892 856 892 856 866 884 c 0,9,10
 829 924 829 924 763 933 c 0,11,12
 749 935 749 935 735 935 c 0,13,14
 679 935 679 935 618 910 c 0,15,16
 489 858 489 858 417 750 c 0,17,18
 375 686 375 686 355 582 c 0,19,20
 349 552 349 552 349 510 c 0,21,22
 349 485 349 485 351 452 c 0,23,24
 356 373 356 373 387 304 c 0,25,26
 417 239 417 239 494 193 c 0,27,28
 558 154 558 154 637 154 c 2,29,-1
 651 154 l 2,30,31
 719 154 719 154 776 198 c 0,32,33
 809 223 809 223 831 257 c 1,34,35
 844 279 l 1,36,-1
 849 254 l 2,37,38
 854 225 854 225 854 193 c 0,39,40
 854 120 854 120 805 62 c 0,41,42
 736 -20 736 -20 625 -20 c 2,43,-1
 622 -20 l 2,44,45
 499 -20 499 -20 403 25 c 0,46,47
 293 76 293 76 233 138 c 1,48,49
 167 204 167 204 135 280 c 0,50,51
 106 348 106 348 101 450 c 0,52,53
 100 471 100 471 100 490 c 0,54,55
 100 551 100 551 112 608 c 0,56,57
 139 733 139 733 238 860 c 1,58,59
 331 981 331 981 505 1062 c 0,60,61
 628 1120 628 1120 772 1120 c 0,62,63
 905 1120 905 1120 1014 1034 c 1,64,65
 1147 931 1147 931 1147 744 c 2,66,-1
 1147 0 l 1,4,-1
EndSplineSet
Validated: 1
EndChar

StartChar: aacute
Encoding: 225 225 163
Width: 1347
GlyphClass: 2
Flags: W
HStem: -20 174<485.456 765.216> 0 21G<897 1147> 935 185<575.594 858.37>
VStem: 100 249<291.979 705.961> 897 250<0 883.119>
DStem2: 633 1296 776 1154 0.709492 0.704714<1.38793 417.869>
LayerCount: 2
Fore
SplineSet
776 1154 m 1,0,-1
 633 1296 l 1,1,-1
 930 1591 l 1,2,-1
 1070 1449 l 1,3,-1
 776 1154 l 1,0,-1
1147 0 m 1,4,-1
 897 0 l 1,5,-1
 897 802 l 1,6,-1
 897 803 l 1,7,8
 892 856 892 856 866 884 c 0,9,10
 829 924 829 924 763 933 c 0,11,12
 749 935 749 935 735 935 c 0,13,14
 679 935 679 935 618 910 c 0,15,16
 489 858 489 858 417 750 c 0,17,18
 375 686 375 686 355 582 c 0,19,20
 349 552 349 552 349 510 c 0,21,22
 349 485 349 485 351 452 c 0,23,24
 356 373 356 373 387 304 c 0,25,26
 417 239 417 239 494 193 c 0,27,28
 558 154 558 154 637 154 c 2,29,-1
 651 154 l 2,30,31
 719 154 719 154 776 198 c 0,32,33
 809 223 809 223 831 257 c 1,34,35
 844 279 l 1,36,-1
 849 254 l 2,37,38
 854 225 854 225 854 193 c 0,39,40
 854 120 854 120 805 62 c 0,41,42
 736 -20 736 -20 625 -20 c 2,43,-1
 622 -20 l 2,44,45
 499 -20 499 -20 403 25 c 0,46,47
 293 76 293 76 233 138 c 1,48,49
 167 204 167 204 135 280 c 0,50,51
 106 348 106 348 101 450 c 0,52,53
 100 471 100 471 100 490 c 0,54,55
 100 551 100 551 112 608 c 0,56,57
 139 733 139 733 238 860 c 1,58,59
 331 981 331 981 505 1062 c 0,60,61
 628 1120 628 1120 772 1120 c 0,62,63
 905 1120 905 1120 1014 1034 c 1,64,65
 1147 931 1147 931 1147 744 c 2,66,-1
 1147 0 l 1,4,-1
EndSplineSet
Validated: 1
EndChar

StartChar: acircumflex
Encoding: 226 226 164
Width: 1347
GlyphClass: 2
Flags: W
HStem: -20 174<485.456 765.216> 0 21G<897 1147> 935 185<575.594 858.37> 1307 284<636 920>
VStem: 100 249<291.979 705.961> 897 250<0 883.119>
LayerCount: 2
Fore
SplineSet
778 1307 m 1,0,-1
 624 1154 l 1,1,-1
 484 1296 l 1,2,-1
 778 1591 l 1,3,-1
 1072 1296 l 1,4,-1
 932 1154 l 1,5,-1
 778 1307 l 1,0,-1
1147 0 m 1,6,-1
 897 0 l 1,7,-1
 897 802 l 1,8,-1
 897 803 l 1,9,10
 892 856 892 856 866 884 c 0,11,12
 829 924 829 924 763 933 c 0,13,14
 749 935 749 935 735 935 c 0,15,16
 679 935 679 935 618 910 c 0,17,18
 489 858 489 858 417 750 c 0,19,20
 375 686 375 686 355 582 c 0,21,22
 349 552 349 552 349 510 c 0,23,24
 349 485 349 485 351 452 c 0,25,26
 356 373 356 373 387 304 c 0,27,28
 417 239 417 239 494 193 c 0,29,30
 558 154 558 154 637 154 c 2,31,-1
 651 154 l 2,32,33
 719 154 719 154 776 198 c 0,34,35
 809 223 809 223 831 257 c 1,36,37
 844 279 l 1,38,-1
 849 254 l 2,39,40
 854 225 854 225 854 193 c 0,41,42
 854 120 854 120 805 62 c 0,43,44
 736 -20 736 -20 625 -20 c 2,45,-1
 622 -20 l 2,46,47
 499 -20 499 -20 403 25 c 0,48,49
 293 76 293 76 233 138 c 1,50,51
 167 204 167 204 135 280 c 0,52,53
 106 348 106 348 101 450 c 0,54,55
 100 471 100 471 100 490 c 0,56,57
 100 551 100 551 112 608 c 0,58,59
 139 733 139 733 238 860 c 1,60,61
 331 981 331 981 505 1062 c 0,62,63
 628 1120 628 1120 772 1120 c 0,64,65
 905 1120 905 1120 1014 1034 c 1,66,67
 1147 931 1147 931 1147 744 c 2,68,-1
 1147 0 l 1,6,-1
EndSplineSet
Validated: 1
EndChar

StartChar: atilde
Encoding: 227 227 165
Width: 1347
GlyphClass: 2
Flags: W
HStem: -20 174<485.456 765.216> 0 21G<897 1147> 935 185<575.594 858.37> 1503 20G<653.5 690>
VStem: 100 249<291.979 705.961> 897 250<0 883.119>
LayerCount: 2
Fore
SplineSet
1122 1385 m 1,0,1
 1083 1256 1083 1256 991 1197 c 0,2,3
 944 1166 944 1166 886 1166 c 0,4,5
 853 1166 853 1166 814 1184 c 0,6,7
 797 1192 797 1192 766 1223 c 1,8,-1
 671 1323 l 2,9,10
 666 1328 666 1328 660.5 1328 c 128,-1,11
 655 1328 655 1328 648 1321 c 0,12,13
 623 1294 623 1294 617 1219 c 2,14,-1
 616 1204 l 1,15,-1
 446 1290 l 1,16,-1
 449 1298 l 1,17,18
 504 1467 504 1467 605 1510 c 0,19,20
 633 1522 633 1522 674 1523 c 0,21,22
 706 1523 706 1523 732 1514 c 0,23,24
 770 1501 770 1501 792 1480 c 2,25,-1
 898 1380 l 2,26,27
 905 1374 905 1374 908 1373.5 c 128,-1,28
 911 1373 911 1373 912 1373 c 0,29,30
 917 1375 917 1375 922 1380 c 0,31,32
 942 1400 942 1400 950 1471 c 1,33,-1
 952 1486 l 1,34,-1
 1124 1393 l 1,35,-1
 1122 1385 l 1,0,1
1147 0 m 1,36,-1
 897 0 l 1,37,-1
 897 802 l 1,38,-1
 897 803 l 1,39,40
 892 856 892 856 866 884 c 0,41,42
 829 924 829 924 763 933 c 0,43,44
 749 935 749 935 735 935 c 0,45,46
 679 935 679 935 618 910 c 0,47,48
 489 858 489 858 417 750 c 0,49,50
 375 686 375 686 355 582 c 0,51,52
 349 552 349 552 349 510 c 0,53,54
 349 485 349 485 351 452 c 0,55,56
 356 373 356 373 387 304 c 0,57,58
 417 239 417 239 494 193 c 0,59,60
 558 154 558 154 637 154 c 2,61,-1
 651 154 l 2,62,63
 719 154 719 154 776 198 c 0,64,65
 809 223 809 223 831 257 c 1,66,67
 844 279 l 1,68,-1
 849 254 l 2,69,70
 854 225 854 225 854 193 c 0,71,72
 854 120 854 120 805 62 c 0,73,74
 736 -20 736 -20 625 -20 c 2,75,-1
 622 -20 l 2,76,77
 499 -20 499 -20 403 25 c 0,78,79
 293 76 293 76 233 138 c 1,80,81
 167 204 167 204 135 280 c 0,82,83
 106 348 106 348 101 450 c 0,84,85
 100 471 100 471 100 490 c 0,86,87
 100 551 100 551 112 608 c 0,88,89
 139 733 139 733 238 860 c 1,90,91
 331 981 331 981 505 1062 c 0,92,93
 628 1120 628 1120 772 1120 c 0,94,95
 905 1120 905 1120 1014 1034 c 1,96,97
 1147 931 1147 931 1147 744 c 2,98,-1
 1147 0 l 1,36,-1
EndSplineSet
Validated: 1
EndChar

StartChar: adieresis
Encoding: 228 228 166
Width: 1347
GlyphClass: 2
Flags: W
HStem: -20 174<485.456 765.216> 0 21G<897 1147> 935 185<575.594 858.37> 1226 305<497.349 709.105 846.349 1057.11>
VStem: 100 249<291.979 705.961> 453 302<1272.38 1484.62> 801 302<1272.41 1485.99> 897 250<0 883.119>
LayerCount: 2
Fore
SplineSet
801 1379 m 0,0,1
 801 1441 801 1441 845 1486 c 0,2,3
 888 1531 888 1531 952 1531 c 0,4,5
 1014 1531 1014 1531 1058 1486 c 0,6,7
 1100 1444 1100 1444 1103 1380 c 1,8,9
 1103 1315 1103 1315 1058.5 1270.5 c 128,-1,10
 1014 1226 1014 1226 952 1226 c 0,11,12
 888 1226 888 1226 845 1271 c 0,13,14
 801 1316 801 1316 801 1379 c 0,0,1
453 1379 m 0,15,16
 453 1442 453 1442 496 1486 c 0,17,18
 539 1531 539 1531 604 1531 c 0,19,20
 666 1531 666 1531 710 1486 c 0,21,22
 752 1444 752 1444 755 1380 c 1,23,24
 755 1315 755 1315 710.5 1270.5 c 128,-1,25
 666 1226 666 1226 604 1226 c 0,26,27
 539 1226 539 1226 496 1271 c 0,28,29
 453 1315 453 1315 453 1379 c 0,15,16
1147 0 m 1,30,-1
 897 0 l 1,31,-1
 897 802 l 1,32,-1
 897 803 l 1,33,34
 892 856 892 856 866 884 c 0,35,36
 829 924 829 924 763 933 c 0,37,38
 749 935 749 935 735 935 c 0,39,40
 679 935 679 935 618 910 c 0,41,42
 489 858 489 858 417 750 c 0,43,44
 375 686 375 686 355 582 c 0,45,46
 349 552 349 552 349 510 c 0,47,48
 349 485 349 485 351 452 c 0,49,50
 356 373 356 373 387 304 c 0,51,52
 417 239 417 239 494 193 c 0,53,54
 558 154 558 154 637 154 c 2,55,-1
 651 154 l 2,56,57
 719 154 719 154 776 198 c 0,58,59
 809 223 809 223 831 257 c 1,60,61
 844 279 l 1,62,-1
 849 254 l 2,63,64
 854 225 854 225 854 193 c 0,65,66
 854 120 854 120 805 62 c 0,67,68
 736 -20 736 -20 625 -20 c 2,69,-1
 622 -20 l 2,70,71
 499 -20 499 -20 403 25 c 0,72,73
 293 76 293 76 233 138 c 1,74,75
 167 204 167 204 135 280 c 0,76,77
 106 348 106 348 101 450 c 0,78,79
 100 471 100 471 100 490 c 0,80,81
 100 551 100 551 112 608 c 0,82,83
 139 733 139 733 238 860 c 1,84,85
 331 981 331 981 505 1062 c 0,86,87
 628 1120 628 1120 772 1120 c 0,88,89
 905 1120 905 1120 1014 1034 c 1,90,91
 1147 931 1147 931 1147 744 c 2,92,-1
 1147 0 l 1,30,-1
EndSplineSet
Validated: 1
EndChar

StartChar: aring
Encoding: 229 229 167
Width: 1347
GlyphClass: 2
Flags: W
HStem: -20 174<485.456 765.216> 0 21G<897 1147> 935 185<575.594 858.37> 1185 147<747.314 840.433> 1459 151<757.533 848.907>
VStem: 100 249<291.979 705.961> 553 185<1339.19 1431.28> 850 184<1335.84 1442.97> 897 250<0 883.119>
LayerCount: 2
Fore
SplineSet
798 1457 m 0,0,1
 774 1453 774 1453 757 1432 c 0,2,3
 738 1409 738 1409 738 1366 c 2,4,-1
 738 1363 l 2,5,6
 738 1345 738 1345 747 1339 c 256,7,8
 757 1332 757 1332 775 1332 c 2,9,-1
 791 1332 l 1,10,11
 813 1334 813 1334 829 1356 c 0,12,13
 850 1384 850 1384 850 1425 c 2,14,-1
 850 1428 l 2,15,16
 850 1442 850 1442 849 1443 c 0,17,18
 846 1447 846 1447 845 1448 c 0,19,20
 833 1459 833 1459 819 1459 c 128,-1,21
 805 1459 805 1459 798 1457 c 0,0,1
752 1185 m 24,22,23
 692 1185 692 1185 649 1210 c 0,24,25
 593 1243 593 1243 570 1293 c 0,26,27
 553 1329 553 1329 553 1368 c 0,28,29
 553 1402 553 1402 568 1440 c 0,30,31
 583 1479 583 1479 627 1529 c 0,32,33
 643 1547 643 1547 667 1563 c 0,34,35
 734 1610 734 1610 820 1610 c 2,36,-1
 822 1610 l 2,37,38
 887 1610 887 1610 938 1580 c 0,39,40
 994 1546 994 1546 1016 1499 c 0,41,42
 1034 1461 1034 1461 1034 1418 c 0,43,44
 1034 1388 1034 1388 1020 1352 c 0,45,46
 1002 1305 1002 1305 959 1258 c 0,47,48
 948 1246 948 1246 921 1229 c 0,49,50
 855 1186 855 1186 752 1185 c 24,22,23
1147 0 m 1,51,-1
 897 0 l 1,52,-1
 897 802 l 1,53,-1
 897 803 l 1,54,55
 892 856 892 856 866 884 c 0,56,57
 829 924 829 924 763 933 c 0,58,59
 749 935 749 935 735 935 c 0,60,61
 679 935 679 935 618 910 c 0,62,63
 489 858 489 858 417 750 c 0,64,65
 375 686 375 686 355 582 c 0,66,67
 349 552 349 552 349 510 c 0,68,69
 349 485 349 485 351 452 c 0,70,71
 356 373 356 373 387 304 c 0,72,73
 417 239 417 239 494 193 c 0,74,75
 558 154 558 154 637 154 c 2,76,-1
 651 154 l 2,77,78
 719 154 719 154 776 198 c 0,79,80
 809 223 809 223 831 257 c 1,81,82
 844 279 l 1,83,-1
 849 254 l 2,84,85
 854 225 854 225 854 193 c 0,86,87
 854 120 854 120 805 62 c 0,88,89
 736 -20 736 -20 625 -20 c 2,90,-1
 622 -20 l 2,91,92
 499 -20 499 -20 403 25 c 0,93,94
 293 76 293 76 233 138 c 1,95,96
 167 204 167 204 135 280 c 0,97,98
 106 348 106 348 101 450 c 0,99,100
 100 471 100 471 100 490 c 0,101,102
 100 551 100 551 112 608 c 0,103,104
 139 733 139 733 238 860 c 1,105,106
 331 981 331 981 505 1062 c 0,107,108
 628 1120 628 1120 772 1120 c 0,109,110
 905 1120 905 1120 1014 1034 c 1,111,112
 1147 931 1147 931 1147 744 c 2,113,-1
 1147 0 l 1,51,-1
EndSplineSet
Validated: 1
EndChar

StartChar: ae
Encoding: 230 230 168
Width: 2048
GlyphClass: 2
Flags: W
HStem: -20 174<485.938 765.046 1284.53 1591.15> 0 21G<897 1147> 462 200<1173 1713> 935 185<575.797 858.37 1362.15 1717.24>
VStem: 100 249<292.149 705.485> 897 250<0 54 293.421 462>
LayerCount: 2
Fore
SplineSet
1954 254 m 1,0,-1
 1924 218 l 2,1,2
 1833 110 1833 110 1690 39 c 0,3,4
 1572 -20 1572 -20 1436 -20 c 2,5,-1
 1423 -20 l 2,6,7
 1296 -20 1296 -20 1204 25 c 1,8,9
 1174 39 1174 39 1147 54 c 1,10,-1
 1147 0 l 1,11,-1
 897 0 l 1,12,-1
 897 802 l 1,13,-1
 897 803 l 1,14,15
 892 856 892 856 866 884 c 0,16,17
 829 924 829 924 763 933 c 0,18,19
 749 935 749 935 735 935 c 0,20,21
 680 935 680 935 618 910 c 0,22,23
 489 857 489 857 417 750 c 1,24,25
 376 687 376 687 355 582 c 0,26,27
 349 551 349 551 349 510 c 0,28,29
 349 485 349 485 351 452 c 0,30,31
 356 373 356 373 387 304 c 1,32,33
 417 240 417 240 494 193 c 0,34,35
 559 154 559 154 637 154 c 2,36,-1
 651 154 l 2,37,38
 718 154 718 154 776 198 c 0,39,40
 809 223 809 223 831 257 c 1,41,-1
 844 279 l 1,42,-1
 849 254 l 2,43,44
 854 225 854 225 854 193 c 0,45,46
 854 120 854 120 805 62 c 0,47,48
 736 -20 736 -20 625 -20 c 2,49,-1
 622 -20 l 2,50,51
 500 -20 500 -20 403 25 c 0,52,53
 293 77 293 77 233 138 c 0,54,55
 167 204 167 204 135 280 c 0,56,57
 106 348 106 348 101 450 c 0,58,59
 100 471 100 471 100 490 c 0,60,61
 100 551 100 551 112 608 c 0,62,63
 139 732 139 732 238 860 c 0,64,65
 331 981 331 981 505 1062 c 0,66,67
 629 1120 629 1120 772 1120 c 0,68,69
 905 1120 905 1120 1014 1034 c 0,70,71
 1071 989 1071 989 1104 930 c 1,72,73
 1197 1019 1197 1019 1308 1063 c 1,74,75
 1442 1120 1442 1120 1569 1120 c 2,76,-1
 1573 1120 l 2,77,78
 1699 1120 1699 1120 1792 1075 c 0,79,80
 1869 1038 1869 1038 1920 994 c 1,81,-1
 1968 954 l 1,82,-1
 1790 820 l 1,83,-1
 1759 853 l 1,84,85
 1739 876 1739 876 1700 903 c 0,86,87
 1637 946 1637 946 1552 946 c 2,88,-1
 1544 946 l 2,89,90
 1475 946 1475 946 1414 919 c 0,91,92
 1291 864 1291 864 1218 758 c 0,93,94
 1191 719 1191 719 1173 662 c 1,95,-1
 1713 662 l 1,96,-1
 1713 462 l 1,97,-1
 1151 462 l 1,98,99
 1151 456 1151 456 1152 445 c 0,100,101
 1158 363 1158 363 1188 300 c 0,102,103
 1222 229 1222 229 1293 193 c 1,104,105
 1368 153 1368 153 1442 153 c 2,106,-1
 1448 153 l 2,107,108
 1491 153 1491 153 1578 192 c 0,109,110
 1693 244 1693 244 1764 351 c 1,111,-1
 1795 400 l 1,112,-1
 1954 254 l 1,0,-1
EndSplineSet
Validated: 1
EndChar

StartChar: ccedilla
Encoding: 231 231 169
Width: 1247
GlyphClass: 2
Flags: W
HStem: -410 21G<595.527 637.974> 946 174<581.821 899.943>
VStem: 100 249<292.231 707.469> 532 239<-180.966 -11.9097>
LayerCount: 2
Fore
SplineSet
1153 255 m 1,0,-1
 1123 218 l 1,1,2
 1032 108 1032 108 889 39 c 0,3,4
 819 5 819 5 745 -10 c 1,5,6
 771 -71 771 -71 771 -146 c 0,7,8
 771 -234 771 -234 714 -303 c 0,9,10
 674 -352 674 -352 656 -371 c 2,11,-1
 619 -410 l 1,12,-1
 423 -243 l 1,13,-1
 449 -219 l 1,14,15
 532 -147 532 -147 532 -93 c 2,16,-1
 532 -90 l 2,17,18
 532 -43 532 -43 501 -8 c 1,19,20
 453 2 453 2 403 25 c 24,21,22
 294 75 294 75 233 138 c 0,23,24
 167 204 167 204 135 280 c 0,25,26
 106 349 106 349 101 450 c 0,27,28
 100 471 100 471 100 491 c 0,29,30
 100 552 100 552 112 608 c 0,31,32
 142 744 142 744 239 862 c 0,33,34
 357 1004 357 1004 507 1063 c 1,35,36
 641 1120 641 1120 768 1120 c 2,37,-1
 772 1120 l 2,38,39
 898 1120 898 1120 991 1075 c 0,40,41
 1068 1038 1068 1038 1119 994 c 1,42,-1
 1167 954 l 1,43,-1
 989 819 l 1,44,-1
 959 853 l 1,45,46
 934 878 934 878 899 903 c 0,47,48
 837 946 837 946 751 946 c 2,49,-1
 743 946 l 2,50,51
 674 946 674 946 612 918 c 0,52,53
 492 862 492 862 417 750 c 0,54,55
 374 686 374 686 355 582 c 0,56,57
 349 549 349 549 349 510 c 0,58,59
 349 486 349 486 351 453 c 0,60,61
 356 366 356 366 387 304 c 0,62,63
 425 227 425 227 487 193 c 0,64,65
 560 153 560 153 641 153 c 2,66,-1
 647 153 l 2,67,68
 738 153 738 153 816 207 c 128,-1,69
 894 261 894 261 963 351 c 1,70,-1
 994 400 l 1,71,-1
 1153 255 l 1,0,-1
EndSplineSet
Validated: 1
EndChar

